<svg width="24" height="24" viewBox="0 0 24 24" fill="none" xmlns="http://www.w3.org/2000/svg">
<rect y="6.10352e-05" width="24" height="24" rx="5" fill="#27117B"/>
<path d="M8.49981 12.7C9.66181 12.7 10.5998 11.762 10.5998 10.6C10.5998 9.43804 9.66181 8.50004 8.49981 8.50004C7.33781 8.50004 6.39981 9.43804 6.39981 10.6C6.39981 11.762 7.33781 12.7 8.49981 12.7ZM16.8998 8.50004H12.6998C11.9298 8.50004 11.2998 9.13004 11.2998 9.90004V13.4H5.6998V7.80004C5.6998 7.41504 5.3848 7.10004 4.9998 7.10004C4.6148 7.10004 4.2998 7.41504 4.2998 7.80004V16.9C4.2998 17.285 4.6148 17.6 4.9998 17.6C5.3848 17.6 5.6998 17.285 5.6998 16.9V15.5H18.2998V16.9C18.2998 17.285 18.6148 17.6 18.9998 17.6C19.3848 17.6 19.6998 17.285 19.6998 16.9V11.3C19.6998 9.75304 18.4468 8.50004 16.8998 8.50004Z" fill="#8973DE"/>
</svg>
