<svg width="24" height="24" viewBox="0 0 24 24" fill="none" xmlns="http://www.w3.org/2000/svg">
<rect y="6.10352e-05" width="24" height="24" rx="5" fill="#FF364D"/>
<path fill-rule="evenodd" clip-rule="evenodd" d="M11.5424 3.60004C12.3155 3.60004 12.9413 4.20774 12.9413 4.93701C12.9413 5.66611 12.3155 6.27381 11.5424 6.27381C10.7692 6.27381 10.1249 5.66611 10.1249 4.93701C10.1249 4.20774 10.7694 3.60004 11.5424 3.60004ZM11.6345 6.39538C12.1664 6.37973 12.5777 6.69195 12.7941 7.02052L14.2667 9.32975L16.8437 10.3541C17.5799 10.6491 17.2302 11.5694 16.402 11.3611C16.3723 11.3421 16.3416 11.3247 16.3099 11.3089L14.5795 14.9203C14.5795 14.9203 15.1317 16.1184 15.8313 17.4728C16.5124 18.8443 14.8556 19.4347 14.2482 18.1672L13.6409 16.8824L12.7573 18.7055L12.3891 18.5492L13.4199 16.431L11.6896 12.8718C11.616 12.8891 11.5424 12.8718 11.4503 12.8718C11.4503 12.8718 9.44388 17.1775 8.89151 18.3062C8.35783 19.4347 6.77489 18.7576 7.30858 17.6462C7.84245 16.5351 10.3827 11.1354 10.3827 11.1354L8.49454 11.1645C8.20853 11.1669 8.14008 11.1239 8.12197 10.9217C8.0928 10.3876 8.04284 9.13084 8.17383 8.54832C8.34276 7.79746 8.44363 6.97107 9.0021 6.72522C9.56076 6.47937 10.5299 7.15937 10.5299 7.15937C10.6771 6.70795 11.1374 6.39538 11.6345 6.39538ZM12.7756 9.10386V11.1877L14.3588 14.4519L15.9417 11.1703L13.6409 10.2675C13.5303 10.2153 13.4384 10.1459 13.3646 10.0418L12.7756 9.10386Z" fill="#FFB1BA"/>
</svg>
