<svg width="18" height="17" viewBox="0 0 18 17" fill="none" xmlns="http://www.w3.org/2000/svg">
<path d="M1.56649 7.65011H17.2175C17.425 7.65011 17.624 7.73965 17.7708 7.89904C17.9176 8.05842 18 8.27459 18 8.5C18 8.72541 17.9176 8.94158 17.7708 9.10097C17.624 9.26035 17.425 9.34989 17.2175 9.34989H1.56649C1.35895 9.34989 1.15991 9.26035 1.01315 9.10097C0.866394 8.94158 0.783947 8.72541 0.783947 8.5C0.783947 8.27459 0.866394 8.05842 1.01315 7.89904C1.15991 7.73965 1.35895 7.65011 1.56649 7.65011Z" fill="#413EEA"/>
<path d="M1.89047 8.5L8.38092 15.5473C8.52786 15.7069 8.61041 15.9233 8.61041 16.149C8.61041 16.3747 8.52786 16.5912 8.38092 16.7508C8.23398 16.9103 8.03468 17 7.82688 17C7.61907 17 7.41977 16.9103 7.27283 16.7508L0.229903 9.10172C0.157027 9.02278 0.0992079 8.92899 0.0597574 8.82573C0.0203069 8.72248 0 8.61179 0 8.5C0 8.38821 0.0203069 8.27752 0.0597574 8.17426C0.0992079 8.07101 0.157027 7.97722 0.229903 7.89828L7.27283 0.249242C7.41977 0.0896549 7.61907 0 7.82688 0C8.03468 0 8.23398 0.0896549 8.38092 0.249242C8.52786 0.408829 8.61041 0.625276 8.61041 0.850966C8.61041 1.07666 8.52786 1.2931 8.38092 1.45269L1.89047 8.5Z" fill="#413EEA"/>
</svg>
