<svg width="24" height="24" viewBox="0 0 24 24" fill="none" xmlns="http://www.w3.org/2000/svg">
<rect y="6.10352e-05" width="24" height="24" rx="5" fill="#FF8C99"/>
<path d="M14.165 17.2501C14.165 18.41 13.4875 19.3501 12.3275 19.3501H7.99629C6.83637 19.3501 6.15879 18.41 6.15879 17.2501M14.6244 14.6251C15.2042 14.6251 15.6744 15.2127 15.6744 15.9376C15.6744 16.6624 15.2042 17.2501 14.6244 17.2501H5.69941C5.11962 17.2501 4.64941 16.6624 4.64941 15.9376C4.64941 15.2127 5.11962 14.6251 5.69941 14.6251" stroke="#FFD2D7" stroke-width="0.875" stroke-miterlimit="10" stroke-linecap="round"/>
<path d="M5.69941 12.6563V12.6491C5.69941 10.8444 7.17598 9.90002 8.98066 9.90002H11.3432C13.1479 9.90002 14.6244 10.8516 14.6244 12.6563V12.6491M11.5072 7.27502L11.7514 9.37404M14.8869 14.625H9.48302C9.4135 14.6251 9.34682 14.6527 9.29763 14.7018L8.41727 15.5822C8.40508 15.5944 8.39061 15.604 8.37468 15.6107C8.35874 15.6173 8.34166 15.6207 8.32441 15.6207C8.30717 15.6207 8.29009 15.6173 8.27415 15.6107C8.25822 15.604 8.24374 15.5944 8.23155 15.5822L7.3512 14.7018C7.30201 14.6527 7.23533 14.6251 7.1658 14.625H5.43691C5.22806 14.625 5.02775 14.5421 4.88007 14.3944C4.73238 14.2467 4.64941 14.0464 4.64941 13.8375C4.64941 13.6287 4.73238 13.4284 4.88007 13.2807C5.02775 13.133 5.22806 13.05 5.43691 13.05H14.8869C15.0958 13.05 15.2961 13.133 15.4438 13.2807C15.5914 13.4284 15.6744 13.6287 15.6744 13.8375C15.6744 14.0464 15.5914 14.2467 15.4438 14.3944C15.2961 14.5421 15.0958 14.625 14.8869 14.625Z" stroke="#FFD2D7" stroke-width="0.875" stroke-miterlimit="10" stroke-linecap="round"/>
<path d="M12 19.3501H16.5711C16.836 19.3501 17.0911 19.25 17.2853 19.0698C17.4795 18.8896 17.5984 18.6427 17.6182 18.3785L18.7922 7.27509" stroke="#FFD2D7" stroke-width="0.875" stroke-miterlimit="10" stroke-linecap="round"/>
<path d="M15.6748 7.27502L16.1998 5.17502L17.742 4.65002" stroke="#FFD2D7" stroke-width="0.875" stroke-linecap="round" stroke-linejoin="round"/>
<path d="M10.9492 7.27509H19.3492" stroke="#FFD2D7" stroke-width="0.875" stroke-miterlimit="10" stroke-linecap="round"/>
</svg>
