<svg width="24" height="24" viewBox="0 0 24 24" fill="none" xmlns="http://www.w3.org/2000/svg">
<rect y="6.10352e-05" width="24" height="24" rx="5" fill="#413EEA"/>
<path d="M12 5.60004H6.4C5.76348 5.60004 5.15303 5.85289 4.70294 6.30298C4.25286 6.75307 4 7.36352 4 8.00004V14.4C4 15.0366 4.25286 15.647 4.70294 16.0971C5.15303 16.5472 5.76348 16.8 6.4 16.8L5.6 17.6V18.4H6.4L8 16.776L9.6 16.8V12.8H5.6V7.20004H12.8V8.80004H14.4V8.00004C14.4 7.36352 14.1471 6.75307 13.6971 6.30298C13.247 5.85289 12.6365 5.60004 12 5.60004ZM6.4 13.6C6.61217 13.6 6.81566 13.6843 6.96568 13.8344C7.11571 13.9844 7.2 14.1879 7.2 14.4C7.2 14.6122 7.11571 14.8157 6.96568 14.9657C6.81566 15.1157 6.61217 15.2 6.4 15.2C6.18783 15.2 5.98434 15.1157 5.83431 14.9657C5.68429 14.8157 5.6 14.6122 5.6 14.4C5.6 14.1879 5.68429 13.9844 5.83431 13.8344C5.98434 13.6843 6.18783 13.6 6.4 13.6ZM18.856 10.128C18.744 9.80804 18.44 9.60004 18.08 9.60004H12.328C11.96 9.60004 11.664 9.80804 11.544 10.128L10.4 13.416V17.824C10.4 18.128 10.656 18.4 10.96 18.4H11.456C11.76 18.4 12 18.096 12 17.792V16.8H18.4V17.792C18.4 18.096 18.648 18.4 18.952 18.4H19.44C19.744 18.4 20 18.128 20 17.824V13.416L18.856 10.128ZM12.328 10.4H18.08L18.904 12.8H11.504L12.328 10.4ZM12 15.2C11.7878 15.2 11.5843 15.1157 11.4343 14.9657C11.2843 14.8157 11.2 14.6122 11.2 14.4C11.2 14.1879 11.2843 13.9844 11.4343 13.8344C11.5843 13.6843 11.7878 13.6 12 13.6C12.2122 13.6 12.4157 13.6843 12.5657 13.8344C12.7157 13.9844 12.8 14.1879 12.8 14.4C12.8 14.6122 12.7157 14.8157 12.5657 14.9657C12.4157 15.1157 12.2122 15.2 12 15.2ZM18.4 15.2C18.1878 15.2 17.9843 15.1157 17.8343 14.9657C17.6843 14.8157 17.6 14.6122 17.6 14.4C17.6 14.1879 17.6843 13.9844 17.8343 13.8344C17.9843 13.6843 18.1878 13.6 18.4 13.6C18.6122 13.6 18.8157 13.6843 18.9657 13.8344C19.1157 13.9844 19.2 14.1879 19.2 14.4C19.2 14.6122 19.1157 14.8157 18.9657 14.9657C18.8157 15.1157 18.6122 15.2 18.4 15.2Z" fill="#B6B4FF"/>
</svg>
