<svg width="642" height="853" viewBox="0 0 642 853" fill="none" xmlns="http://www.w3.org/2000/svg">
<g clip-path="url(#clip0_635_601)">
<rect x="-25.3662" width="916.557" height="1146.4" fill="url(#paint0_linear_635_601)"/>
<path fill-rule="evenodd" clip-rule="evenodd" d="M464.78 505.959C464.613 506.24 464.309 506.409 463.982 506.409H293.589C293.583 506.409 293.578 506.406 293.574 506.402C293.568 506.395 293.557 506.393 293.549 506.398C293.546 506.4 293.542 506.402 293.539 506.404C293.534 506.407 293.528 506.409 293.521 506.409H163.506C163.017 506.409 162.608 506.034 162.575 505.546C162.495 504.377 162.455 503.197 162.455 502.008C162.455 473.54 185.533 450.462 214.001 450.462C224.903 450.462 235.015 453.847 243.343 459.623C243.816 459.951 244.472 459.796 244.754 459.294C250.755 448.584 262.215 441.345 275.365 441.345C279.076 441.345 282.653 441.922 286.01 442.99C286.454 443.132 286.937 442.939 287.159 442.53C296.834 424.699 315.719 412.592 337.431 412.592C358.688 412.592 377.234 424.196 387.081 441.415C387.226 441.667 387.479 441.841 387.767 441.887C402.129 444.181 414.125 453.566 420.053 466.339C420.315 466.903 421.036 467.084 421.538 466.717C426.467 463.111 432.545 460.982 439.12 460.982C455.581 460.982 468.925 474.326 468.925 490.787C468.925 496.327 467.413 501.515 464.78 505.959Z" fill="#FFF1F2"/>
<path fill-rule="evenodd" clip-rule="evenodd" d="M-75.6677 318.65C-75.6053 319.103 -75.2121 319.43 -74.7555 319.43H130.755C131.318 319.43 131.756 318.937 131.675 318.38C129.209 301.482 114.658 288.506 97.0755 288.506C89.8056 288.506 83.0539 290.724 77.4604 294.521C76.9842 294.844 76.3282 294.689 76.0395 294.191C71.9232 287.094 64.243 282.321 55.4479 282.321C53.0215 282.321 50.68 282.684 48.4748 283.359C48.0298 283.495 47.5467 283.304 47.3221 282.896C40.7223 270.925 27.9801 262.815 13.3438 262.815C-1.02299 262.815 -13.5647 270.629 -20.2636 282.239C-20.4092 282.491 -20.6617 282.665 -20.9492 282.712C-30.4925 284.286 -38.4787 290.478 -42.5359 298.917C-42.8052 299.477 -43.5267 299.658 -44.0353 299.301C-47.3198 296.995 -51.3215 295.642 -55.6392 295.642C-66.806 295.642 -75.8585 304.694 -75.8585 315.861C-75.8585 316.808 -75.7935 317.739 -75.6677 318.65Z" fill="#FFF1F2"/>
<path fill-rule="evenodd" clip-rule="evenodd" d="M788.054 505.919C787.982 506.37 787.59 506.697 787.134 506.697H344.253C343.69 506.697 343.253 506.203 343.325 505.645C348.093 468.82 379.573 440.374 417.697 440.374C433.737 440.374 448.602 445.41 460.795 453.987C461.266 454.318 461.923 454.163 462.199 453.658C470.863 437.837 487.667 427.109 506.977 427.109C512.506 427.109 517.83 427.989 522.815 429.615C523.258 429.76 523.742 429.567 523.962 429.157C537.984 403.036 565.558 385.275 597.28 385.275C628.282 385.275 655.321 402.239 669.622 427.392C669.766 427.645 670.019 427.819 670.307 427.864C691.488 431.172 709.158 445.075 717.728 463.981C717.985 464.547 718.706 464.729 719.203 464.356C726.452 458.908 735.464 455.679 745.231 455.679C769.181 455.679 788.596 475.095 788.596 499.044C788.596 501.384 788.411 503.68 788.054 505.919Z" fill="#FFF1F2"/>
<path fill-rule="evenodd" clip-rule="evenodd" d="M81.5558 505.664C81.499 506.117 81.1051 506.444 80.6485 506.444H-74.9424C-75.5053 506.444 -75.9438 505.953 -75.8572 505.397C-73.8785 492.689 -62.8876 482.965 -49.6255 482.965C-44.1999 482.965 -39.1545 484.593 -34.9507 487.386C-34.4713 487.705 -33.8157 487.549 -33.5197 487.056C-30.3637 481.792 -24.6028 478.27 -18.0192 478.27C-16.2455 478.27 -14.5315 478.525 -12.912 479.002C-12.4656 479.133 -11.9831 478.942 -11.7558 478.536C-6.71845 469.54 2.90462 463.46 13.9479 463.46C24.8163 463.46 34.3091 469.349 39.4088 478.111C39.5554 478.363 39.8075 478.536 40.0948 478.585C47.1915 479.792 53.1417 484.365 56.2451 490.603C56.5219 491.159 57.2435 491.34 57.759 490.993C60.2056 489.345 63.1527 488.383 66.3244 488.383C74.8028 488.383 81.6759 495.257 81.6759 503.735C81.6759 504.388 81.6351 505.032 81.5558 505.664Z" fill="#FFF1F2"/>
<path d="M16.4032 661.478C3.8186 655.74 -33.4578 647.708 -81.8867 661.478V801.635H497.438V661.478C422.451 627.643 377.667 656.56 364.649 675.248C319.865 667.379 291.311 690.985 282.632 703.771C264.406 693.935 243.36 707.869 235.114 716.065C234.073 680.264 200.398 673.936 183.691 675.248C174.318 649.282 145.938 643.774 132.919 644.266C132.919 633.446 125.108 612.103 93.8634 613.284C54.8078 614.759 67.1754 635.413 46.3458 634.43C29.6821 633.643 19.4408 652.134 16.4032 661.478Z" fill="url(#paint1_linear_635_601)"/>
<path d="M16.4032 661.478C3.8186 655.74 -33.4578 647.708 -81.8867 661.478V801.635H497.438V661.478C422.451 627.643 377.667 656.56 364.649 675.248C319.865 667.379 291.311 690.985 282.632 703.771C264.406 693.935 243.36 707.869 235.114 716.065C234.073 680.264 200.398 673.936 183.691 675.248C174.318 649.282 145.938 643.774 132.919 644.266C132.919 633.446 125.108 612.103 93.8634 613.284C54.8078 614.759 67.1754 635.413 46.3458 634.43C29.6821 633.643 19.4408 652.134 16.4032 661.478Z" fill="url(#paint2_linear_635_601)"/>
<path d="M138.862 703.867C126.278 698.13 89.0012 690.097 40.5723 703.867V844.024H619.897V703.867C544.91 670.033 500.126 698.949 487.108 717.637C442.324 709.769 413.77 733.374 405.091 746.16C386.865 736.325 365.819 750.258 357.573 758.455C356.532 722.653 322.857 716.326 306.15 717.637C296.777 691.671 268.397 686.163 255.378 686.655C255.378 675.836 247.567 654.493 216.322 655.673C177.267 657.148 189.634 677.803 168.805 676.819C152.141 676.032 141.9 694.523 138.862 703.867Z" fill="url(#paint3_linear_635_601)"/>
<path d="M374.656 687.853C387.241 682.116 424.517 674.084 472.946 687.853V828.01H-106.378V687.853C-31.3916 654.019 13.3922 682.936 26.4107 701.623C71.1944 693.755 99.7484 717.36 108.427 730.146C126.653 720.311 147.7 734.245 155.945 742.441C156.987 706.639 190.661 700.312 207.368 701.623C216.742 675.657 245.122 670.149 258.141 670.641C258.141 659.822 265.952 638.479 297.196 639.659C336.252 641.134 323.884 661.789 344.714 660.805C361.377 660.019 371.619 678.51 374.656 687.853Z" fill="url(#paint4_linear_635_601)"/>
<path d="M325.793 708.589C336.959 701.859 370.032 692.437 413 708.589V873H-101V708.589C-34.4688 668.9 5.26514 702.821 16.8157 724.742C56.5497 715.512 81.8839 743.202 89.5843 758.201C105.755 746.663 124.428 763.008 131.744 772.623C132.668 730.626 162.545 723.204 177.369 724.742C185.685 694.283 210.865 687.822 222.416 688.399C222.416 675.707 229.346 650.671 257.067 652.055C291.719 653.786 280.746 678.015 299.227 676.861C314.012 675.938 323.098 697.629 325.793 708.589Z" fill="url(#paint5_linear_635_601)"/>
<path d="M420.963 731.333C432.107 724.633 465.116 715.254 508 731.333V895H-5V731.333C61.4018 691.823 101.058 725.591 112.587 747.413C152.243 738.225 177.528 765.789 185.213 780.72C201.353 769.235 219.99 785.506 227.291 795.077C228.213 753.27 258.033 745.881 272.827 747.413C281.127 717.091 306.258 710.66 317.787 711.234C317.787 698.6 324.703 673.677 352.371 675.055C386.955 676.778 376.003 700.897 394.448 699.748C409.204 698.829 418.273 720.422 420.963 731.333Z" fill="url(#paint6_linear_635_601)"/>
<path d="M420.963 770.333C432.107 763.633 465.116 754.254 508 770.333V934H-5V770.333C61.4018 730.823 101.058 764.591 112.587 786.413C152.243 777.225 177.528 804.789 185.213 819.72C201.353 808.235 219.99 824.506 227.291 834.077C228.213 792.27 258.033 784.881 272.827 786.413C281.127 756.091 306.258 749.66 317.787 750.234C317.787 737.6 324.703 712.677 352.371 714.055C386.955 715.778 376.003 739.897 394.448 738.748C409.204 737.829 418.273 759.422 420.963 770.333Z" fill="url(#paint7_linear_635_601)"/>
<rect x="443.49" y="421.223" width="151.814" height="106.603" fill="#FFFBF7"/>
<rect x="601.993" y="421.223" width="70.2224" height="106.603" fill="#DDE6D8"/>
<rect x="443.49" y="583.318" width="151.814" height="106.603" fill="#FFFBF7"/>
<rect x="601.993" y="583.318" width="70.2224" height="106.603" fill="#DDE6D8"/>
<rect x="443.49" y="745.414" width="151.814" height="106.603" fill="#FFFBF7"/>
<rect x="601.993" y="745.414" width="70.2224" height="106.603" fill="#DDE6D8"/>
<rect x="444.16" y="453.35" width="218.024" height="5.11112" fill="#FF4343"/>
<rect x="601.994" y="453.35" width="60.1906" height="5.11112" fill="#B41515"/>
<rect x="444.16" y="597.191" width="218.024" height="5.11112" fill="#FF4343"/>
<rect x="601.994" y="597.191" width="60.1906" height="5.11112" fill="#B41515"/>
<rect x="444.16" y="762.208" width="218.024" height="5.11112" fill="#FF4343"/>
<rect x="601.994" y="762.208" width="60.1906" height="5.11112" fill="#B41515"/>
<rect x="588.618" y="419.762" width="13.3757" height="433.715" fill="#FF7474"/>
<rect x="601.994" y="419.762" width="6.68784" height="433.715" fill="#FF5B5B"/>
<path d="M602.693 485.77L588.618 426.333L608.682 431.47V500.079L602.693 485.77Z" fill="#FF0C0C" fill-opacity="0.3"/>
<rect x="443.494" y="419.762" width="13.3757" height="433.715" fill="#FF7474"/>
<rect x="456.868" y="419.762" width="6.68784" height="433.715" fill="#FF5B5B"/>
<path d="M457.204 485.476L441.487 426.333L463.892 431.444V499.714L457.204 485.476Z" fill="#FF0C0C" fill-opacity="0.3"/>
<path d="M596.643 429.103C530.291 452.732 480.081 452.608 413.73 429.103C413.73 424.508 413.73 419.032 413.729 414.651C459.585 388.779 511.205 372.208 545.266 332.143H581.315C602.055 371.135 646.748 385.624 692.613 415.381V425.087C658.134 446.595 631.122 447.092 596.643 429.103Z" fill="#FF8F98"/>
<path d="M596.976 416.111L584.27 342L692.613 402.238V425.238C656.164 448.968 624.062 444.953 596.642 429.254L596.976 416.111Z" fill="#FF5E5E"/>
<path d="M596.307 414.651C523.681 440.63 466.626 436.842 394 411L394 394.207C453.856 394.207 507.534 351.697 544.477 308.048H583.935C604.009 345.957 661.514 394.207 708.998 393.841V406.254C671.258 429.901 634.048 434.429 596.307 414.651Z" fill="#728680"/>
<path d="M597.31 415.016C582.262 399.683 566.717 348.202 566.88 308.048L584.268 308.048C612.692 357.699 666.503 385.708 710 399.683C673.217 427.794 643.79 436.191 597.31 415.016Z" fill="#366167"/>
<path d="M596.308 573.096C529.956 596.725 479.747 596.601 413.395 573.096C413.395 568.501 413.395 563.025 413.395 558.644C419.08 553.168 429.446 541.334 436.134 526.366H669.205C669.205 553.641 674.889 577.112 674.889 577.112C664.921 589.449 630.33 590.846 596.308 573.096Z" fill="#FF8F98"/>
<path d="M596.642 573.096V558.128L692.612 559.953V572.001C656.163 595.731 624.062 588.794 596.642 573.096Z" fill="#FF5E5E"/>
<path d="M596.307 557.762C523.681 583.742 466.626 578.494 394 552.651L394 535.858C414.064 535.858 426.436 532.572 435.799 527.826H596.307C621.721 527.826 661.514 528.191 708.998 527.826V550.461C671.258 574.108 634.048 577.54 596.307 557.762Z" fill="#728680"/>
<path d="M596.641 558.493C593.631 550.461 590.622 539.143 590.622 527.461L669.873 527.461C674.889 534.032 679.236 539.143 702.309 549.731C680.239 570.175 643.122 579.667 596.641 558.493Z" fill="#366167"/>
<rect x="505.02" y="479.635" width="24.0762" height="46.7302" rx="10.3619" fill="#366167"/>
<rect x="505.02" y="644.652" width="24.0762" height="46.7302" rx="10.3619" fill="#366167"/>
<rect x="505.02" y="809.668" width="24.0762" height="46.7302" rx="10.3619" fill="#366167"/>
<path d="M596.308 736.652C529.956 760.281 479.747 760.156 413.395 736.652C413.395 732.057 413.395 726.581 413.395 722.2C419.08 716.724 429.446 704.89 436.134 689.922H669.205C669.205 717.197 674.889 740.668 674.889 740.668C664.921 753.004 630.33 754.402 596.308 736.652Z" fill="#FF8F98"/>
<path d="M596.308 737.017V721.319L692.613 723.509V735.557C656.164 759.287 623.728 752.715 596.308 737.017Z" fill="#FF5E5E"/>
<path d="M596.307 721.319C523.681 747.298 466.626 742.05 394 716.208L394 699.414C414.064 699.414 426.436 696.128 435.799 691.382H596.307C621.721 691.382 661.514 691.747 708.998 691.382V714.017C671.258 737.664 629.746 737.382 596.307 721.319Z" fill="#728680"/>
<path d="M596.308 721.319C593.298 713.287 589.954 703.065 589.954 691.382L669.205 691.382C674.221 697.954 678.568 703.065 701.641 713.652C679.571 734.096 642.788 742.493 596.308 721.319Z" fill="#366167"/>
<rect x="426.771" y="494.969" width="175.221" height="5.11112" fill="#FF4343"/>
<rect x="426.771" y="508.111" width="175.221" height="5.11112" fill="#FF4343"/>
<rect x="426.771" y="494.969" width="9.73453" height="31.3969" fill="#FF4343"/>
<rect x="508.82" y="494.969" width="4.86726" height="31.3969" fill="#FF4343"/>
<rect x="466.404" y="494.969" width="4.86726" height="31.3969" fill="#FF4343"/>
<rect x="551.234" y="494.969" width="4.86726" height="31.3969" fill="#FF4343"/>
<rect x="592.258" y="494.969" width="9.73453" height="31.3969" fill="#FF4343"/>
<rect x="426.771" y="521.254" width="175.221" height="5.11112" fill="#FF4343"/>
<rect x="601.993" y="494.969" width="90.9547" height="5.11112" fill="#B41515"/>
<rect x="601.993" y="508.111" width="90.9547" height="5.11112" fill="#B41515"/>
<rect x="601.993" y="494.969" width="5.05304" height="31.3969" fill="#B41515"/>
<rect x="622.566" y="494.968" width="2.52652" height="31.3969" fill="#B41515"/>
<rect x="601.993" y="521.254" width="90.9547" height="5.11112" fill="#B41515"/>
<rect x="601.993" y="659.984" width="90.9547" height="5.11112" fill="#B41515"/>
<rect x="601.993" y="673.127" width="90.9547" height="5.11112" fill="#B41515"/>
<rect x="601.993" y="659.984" width="5.05304" height="31.3969" fill="#B41515"/>
<rect x="622.566" y="659.984" width="2.52652" height="31.3969" fill="#B41515"/>
<rect x="601.993" y="686.27" width="90.9547" height="5.11112" fill="#B41515"/>
<rect x="601.993" y="825.001" width="90.9547" height="5.11112" fill="#B41515"/>
<rect x="601.993" y="838.144" width="90.9547" height="5.11112" fill="#B41515"/>
<rect x="601.993" y="825.001" width="5.05304" height="31.3969" fill="#B41515"/>
<rect x="622.566" y="825.002" width="2.52652" height="31.3969" fill="#B41515"/>
<rect x="601.993" y="851.287" width="90.9547" height="5.11112" fill="#B41515"/>
<rect x="426.771" y="659.985" width="175.221" height="5.11112" fill="#FF4343"/>
<rect x="426.771" y="673.127" width="175.221" height="5.11112" fill="#FF4343"/>
<rect x="426.771" y="659.985" width="9.73453" height="31.3969" fill="#FF4343"/>
<rect x="508.82" y="659.985" width="4.86726" height="31.3969" fill="#FF4343"/>
<rect x="466.404" y="659.985" width="4.86726" height="31.3969" fill="#FF4343"/>
<rect x="551.234" y="659.985" width="4.86726" height="31.3969" fill="#FF4343"/>
<rect x="592.258" y="659.985" width="9.73453" height="31.3969" fill="#FF4343"/>
<rect x="426.771" y="686.27" width="175.221" height="5.11112" fill="#FF4343"/>
<rect x="426.771" y="825.001" width="175.221" height="5.11112" fill="#FF4343"/>
<rect x="426.771" y="838.144" width="175.221" height="5.11112" fill="#FF4343"/>
<rect x="426.771" y="825.001" width="9.73453" height="31.3969" fill="#FF4343"/>
<rect x="508.82" y="825.001" width="4.86726" height="31.3969" fill="#FF4343"/>
<rect x="466.404" y="825.001" width="4.86726" height="31.3969" fill="#FF4343"/>
<rect x="551.234" y="825.001" width="4.86726" height="31.3969" fill="#FF4343"/>
<rect x="592.258" y="825.001" width="9.73453" height="31.3969" fill="#FF4343"/>
<rect x="426.771" y="851.287" width="175.221" height="5.11112" fill="#FF4343"/>
<rect x="544.477" y="286.143" width="39.4583" height="21.9048" fill="#728680"/>
<rect x="566.546" y="286.143" width="18.0572" height="21.9048" fill="#366167"/>
<rect x="560.528" y="181" width="7.35663" height="96.3811" fill="#366167"/>
<rect x="551.166" y="262.048" width="26.0826" height="8.76192" fill="#728680"/>
<rect x="569.893" y="262.048" width="7.35663" height="8.76192" fill="#366167"/>
<rect x="554.51" y="246.714" width="19.3947" height="8.76192" fill="#728680"/>
<rect x="567.886" y="246.714" width="6.01906" height="8.76192" fill="#366167"/>
<rect x="554.51" y="231.381" width="19.3947" height="8.76192" fill="#728680"/>
<rect x="567.886" y="231.381" width="6.01906" height="8.76192" fill="#366167"/>
<rect x="554.51" y="216.048" width="19.3947" height="8.76192" fill="#728680"/>
<rect x="567.886" y="216.048" width="6.01906" height="8.76192" fill="#366167"/>
<rect x="554.51" y="200.714" width="19.3947" height="8.76192" fill="#728680"/>
<rect x="567.886" y="200.714" width="6.01906" height="8.76192" fill="#366167"/>
<rect x="554.51" y="185.381" width="19.3947" height="8.76192" fill="#728680"/>
<rect x="567.886" y="185.381" width="6.01906" height="8.76192" fill="#366167"/>
<rect x="547.152" y="277.381" width="34.108" height="8.76192" fill="#728680"/>
<rect x="567.886" y="277.381" width="13.3757" height="8.76192" fill="#366167"/>
<path d="M601.826 792.376C563.581 766.651 533.4 792.376 523.052 818.858C523.052 818.858 472.606 805.473 472.606 851.593C438.544 832.601 418.279 870.546 418.279 870.546C391.978 844.295 341.532 865.377 336.358 895.959V932.571L1004.23 925.68V792.376C941.501 760.197 904.038 787.699 893.147 805.473C855.684 797.989 831.797 820.44 824.537 832.601C809.29 823.247 791.684 836.499 784.787 844.295C783.915 810.244 755.745 804.226 741.769 805.473C733.928 780.777 710.187 775.538 699.296 776.006C699.296 765.716 680.858 753.386 667.061 776.006C659.3 755.97 639.466 746.539 626.874 766.651C612.934 765.903 592.469 766.651 601.826 792.376Z" fill="url(#paint8_linear_635_601)"/>
<path d="M1.68286 823.851C2.44473 794.269 27.0787 789.04 39.3004 790.124C48.6273 760.94 100.682 760.985 111.331 786.174C125.661 760.823 156.731 770.516 162.336 798.428C178.591 771.197 217.825 771.197 230.562 801.752C230.562 801.752 274.676 790.124 274.676 830.192C304.462 813.692 322.183 846.657 322.183 846.657C345.182 823.851 389.296 842.167 393.82 868.736V900.544L-190.214 894.556V778.746C-135.359 750.789 -102.599 774.683 -93.0753 790.124C-60.3146 783.622 -39.4266 803.127 -33.0776 813.692C-19.7448 805.565 -4.34863 817.079 1.68286 823.851Z" fill="url(#paint9_linear_635_601)"/>
<path d="M493.892 825.542C460.34 802.964 433.862 825.542 424.784 848.783C424.784 848.783 380.528 837.036 380.528 877.514C350.646 860.846 332.868 894.148 332.868 894.148C309.794 871.108 265.538 889.611 260.999 916.452V948.585L846.918 942.537V825.542C791.886 797.299 759.019 821.437 749.465 837.036C716.599 830.468 695.644 850.172 689.274 860.846C675.898 852.635 660.452 864.266 654.401 871.108C653.637 841.223 628.924 835.941 616.663 837.036C609.784 815.361 588.956 810.764 579.401 811.174C579.401 802.143 563.226 791.322 551.121 811.174C544.313 793.59 526.913 785.312 515.866 802.964C503.637 802.307 485.683 802.964 493.892 825.542Z" fill="url(#paint10_linear_635_601)"/>
<path d="M84.4143 621.457C78.8725 613.419 102.313 620.254 102.308 630.762C86.4598 631.549 72.3395 619.8 84.4143 621.457Z" fill="#FFF1F2"/>
<path d="M282.233 211.69C276.691 203.653 300.131 210.487 300.127 220.996C284.278 221.783 270.158 210.034 282.233 211.69Z" fill="#FFF1F2"/>
<path d="M220.148 373.318C228.973 377.493 218.45 355.46 208.08 357.158C209.857 372.926 223.728 384.968 220.148 373.318Z" fill="#FFF1F2"/>
<path d="M218.616 628.804C213.853 637.326 209.632 613.276 219.063 608.64C226.768 622.511 222.463 640.369 218.616 628.804Z" fill="#FFF1F2"/>
<path d="M19.186 734.001C7.85249 738.996 20.4149 716.435 34.1008 716.994C32.6509 732.533 15.143 745.721 19.186 734.001Z" fill="#FFDDEC"/>
<path d="M52.1672 732.984C43.734 723.913 69.1657 728.389 73.1224 741.503C57.9662 745.224 39.7694 733.004 52.1672 732.984Z" fill="#FFDDEC"/>
<path d="M235.812 726.301C231.466 718.644 249.434 726.05 249.591 735.715C237.525 735.681 226.585 724.2 235.812 726.301Z" fill="#FFDDEC"/>
<path d="M421.71 676.382C420.648 668.719 432.176 680.189 429.452 688.291C420.257 684.706 415.289 671.911 421.71 676.382Z" fill="#FFDDEC"/>
<path d="M449.511 749.354C457.222 748.738 445.103 759.581 437.173 756.392C441.285 747.42 454.346 743.203 449.511 749.354Z" fill="#FFDDEC"/>
<path d="M283.721 752.18C291.433 751.564 279.314 762.408 271.384 759.218C275.496 750.246 288.557 746.029 283.721 752.18Z" fill="#FFDDEC"/>
<path d="M274.932 730.18C262.662 728.492 285.187 715.865 296.549 723.516C287.168 735.988 265.345 738.041 274.932 730.18Z" fill="#FFDDEC"/>
<path d="M39.8764 177.388C35.5301 169.731 53.4982 177.137 53.6555 186.802C41.5898 186.769 30.6491 175.288 39.8764 177.388Z" fill="#FFDDEC"/>
<path d="M225.774 127.47C224.711 119.807 236.239 131.277 233.515 139.378C224.32 135.793 219.352 122.999 225.774 127.47Z" fill="#FFDDEC"/>
<path d="M253.574 200.442C261.286 199.825 249.166 210.669 241.237 207.479C245.349 198.508 258.41 194.29 253.574 200.442Z" fill="#FFDDEC"/>
<path d="M87.7849 203.268C95.4968 202.652 83.3774 213.495 75.4475 210.306C79.5598 201.334 92.6209 197.117 87.7849 203.268Z" fill="#FFDDEC"/>
<path d="M78.9954 181.267C66.7254 179.58 89.2504 166.953 100.612 174.603C91.2314 187.076 69.4084 189.128 78.9954 181.267Z" fill="#FFDDEC"/>
<path d="M645.631 289.391C649.978 297.048 632.01 289.642 631.852 279.977C643.918 280.01 654.859 291.491 645.631 289.391Z" fill="#FFDDEC"/>
<path d="M431.934 266.337C424.222 266.954 436.341 256.11 444.271 259.3C440.159 268.271 427.098 272.489 431.934 266.337Z" fill="#FFDDEC"/>
<path d="M597.723 263.511C590.011 264.127 602.13 253.284 610.06 256.473C605.948 265.445 592.887 269.663 597.723 263.511Z" fill="#FFDDEC"/>
<path d="M606.512 285.512C618.782 287.199 596.257 299.826 584.896 292.175C594.276 279.703 616.099 277.651 606.512 285.512Z" fill="#FFDDEC"/>
<rect width="640" height="856" fill="url(#paint11_linear_635_601)" fill-opacity="0.4"/>
</g>
<defs>
<linearGradient id="paint0_linear_635_601" x1="432.913" y1="0" x2="433.384" y2="683.415" gradientUnits="userSpaceOnUse">
<stop stop-color="#ACAFFF"/>
<stop offset="0.371305" stop-color="#FFDAEC"/>
<stop offset="0.697656" stop-color="#FFEEDA"/>
</linearGradient>
<linearGradient id="paint1_linear_635_601" x1="208.247" y1="676.821" x2="207.776" y2="801.635" gradientUnits="userSpaceOnUse">
<stop stop-color="#FFDCEB"/>
<stop offset="1" stop-color="#FDB0E7"/>
</linearGradient>
<linearGradient id="paint2_linear_635_601" x1="208.247" y1="676.821" x2="207.776" y2="801.635" gradientUnits="userSpaceOnUse">
<stop stop-color="#FFDCEB"/>
<stop offset="1" stop-color="#FDB0E7"/>
</linearGradient>
<linearGradient id="paint3_linear_635_601" x1="330.706" y1="719.21" x2="330.235" y2="844.024" gradientUnits="userSpaceOnUse">
<stop stop-color="#FFDCEB"/>
<stop offset="1" stop-color="#FDB0E7"/>
</linearGradient>
<linearGradient id="paint4_linear_635_601" x1="182.813" y1="703.196" x2="183.284" y2="828.01" gradientUnits="userSpaceOnUse">
<stop stop-color="#FFDCEB"/>
<stop offset="1" stop-color="#FDB0E7"/>
</linearGradient>
<linearGradient id="paint5_linear_635_601" x1="156" y1="652" x2="156" y2="873" gradientUnits="userSpaceOnUse">
<stop stop-color="#FFBDD9"/>
<stop offset="1" stop-color="#FF94EE"/>
</linearGradient>
<linearGradient id="paint6_linear_635_601" x1="251.5" y1="675" x2="251.5" y2="895" gradientUnits="userSpaceOnUse">
<stop stop-color="#FFBDD9"/>
<stop offset="1" stop-color="#FF94EE"/>
</linearGradient>
<linearGradient id="paint7_linear_635_601" x1="251.5" y1="714" x2="251.5" y2="934" gradientUnits="userSpaceOnUse">
<stop stop-color="#FFBDD9"/>
<stop offset="1" stop-color="#FF94EE"/>
</linearGradient>
<linearGradient id="paint8_linear_635_601" x1="761.917" y1="746.494" x2="761.917" y2="925.68" gradientUnits="userSpaceOnUse">
<stop stop-color="#CA769A"/>
<stop offset="1" stop-color="#9B3F97"/>
</linearGradient>
<linearGradient id="paint9_linear_635_601" x1="21.682" y1="738.885" x2="21.682" y2="894.556" gradientUnits="userSpaceOnUse">
<stop stop-color="#CA769A"/>
<stop offset="1" stop-color="#9B3F97"/>
</linearGradient>
<linearGradient id="paint10_linear_635_601" x1="634.338" y1="785.273" x2="634.338" y2="942.537" gradientUnits="userSpaceOnUse">
<stop stop-color="#CA769A"/>
<stop offset="1" stop-color="#9B3F97"/>
</linearGradient>
<linearGradient id="paint11_linear_635_601" x1="320" y1="0" x2="320" y2="856" gradientUnits="userSpaceOnUse">
<stop stop-color="#F9F9F9" stop-opacity="0"/>
<stop offset="1" stop-color="#581441"/>
</linearGradient>
<clipPath id="clip0_635_601">
<rect width="642" height="853" rx="15" fill="white"/>
</clipPath>
</defs>
</svg>
