<svg width="644" height="855" viewBox="0 0 644 855" fill="none" xmlns="http://www.w3.org/2000/svg">
<g clip-path="url(#clip0_738_1265)">
<rect x="-27.1553" y="-34" width="921.343" height="1152.39" fill="url(#paint0_linear_738_1265)"/>
<path fill-rule="evenodd" clip-rule="evenodd" d="M731.325 499.257C731.26 499.718 730.862 500.056 730.397 500.056H374.316C373.754 500.056 373.316 499.567 373.381 499.01C377.259 465.969 402.575 440.461 433.227 440.461C446.035 440.461 457.912 444.915 467.682 452.511C468.168 452.889 468.884 452.723 469.158 452.172C476.163 438.08 489.627 428.542 505.085 428.542C509.458 428.542 513.671 429.305 517.624 430.719C518.091 430.886 518.613 430.676 518.829 430.229C530.138 406.841 552.289 390.951 577.765 390.951C602.692 390.951 624.436 406.164 635.955 428.728C636.092 428.997 636.35 429.187 636.648 429.24C653.562 432.231 667.681 444.596 674.603 461.419C674.854 462.03 675.637 462.221 676.148 461.801C681.939 457.032 689.097 454.214 696.844 454.214C716.12 454.214 731.747 471.66 731.747 493.18C731.747 495.247 731.602 497.277 731.325 499.257Z" fill="#ECB9F8"/>
<path fill-rule="evenodd" clip-rule="evenodd" d="M176.65 499.258C176.716 499.718 177.113 500.056 177.579 500.056H613.736C614.297 500.056 614.736 499.567 614.672 499.009C610.019 458.464 578.992 427.129 541.41 427.129C525.643 427.129 511.03 432.644 499.034 442.041C498.549 442.421 497.834 442.254 497.562 441.701C489.024 424.324 472.483 412.543 453.477 412.543C448.057 412.543 442.838 413.501 437.947 415.274C437.481 415.443 436.959 415.232 436.744 414.785C422.931 386.068 395.777 366.542 364.537 366.542C333.999 366.542 307.364 385.202 293.281 412.866C293.143 413.136 292.886 413.326 292.588 413.378C271.748 417.022 254.362 432.292 245.92 453.057C245.671 453.67 244.888 453.861 244.38 453.437C237.253 447.484 228.405 443.958 218.819 443.958C195.23 443.958 176.108 465.307 176.108 491.641C176.108 494.234 176.293 496.778 176.65 499.258Z" fill="#ECB9F8"/>
<path fill-rule="evenodd" clip-rule="evenodd" d="M660.608 499.22C660.44 499.503 660.134 499.672 659.806 499.672H488.522C488.517 499.672 488.511 499.67 488.508 499.666C488.502 499.659 488.492 499.657 488.484 499.662C488.481 499.664 488.478 499.666 488.474 499.668C488.47 499.671 488.464 499.672 488.458 499.672H357.762C357.27 499.672 356.859 499.296 356.826 498.805C356.747 497.63 356.706 496.444 356.706 495.249C356.706 466.632 379.904 443.434 408.521 443.434C419.48 443.434 429.645 446.837 438.016 452.643C438.492 452.973 439.152 452.817 439.435 452.312C445.467 441.546 456.987 434.27 470.205 434.27C473.935 434.27 477.53 434.849 480.905 435.923C481.351 436.065 481.837 435.872 482.06 435.46C491.785 417.536 510.768 405.366 532.594 405.366C553.962 405.366 572.605 417.03 582.503 434.339C582.649 434.593 582.903 434.768 583.192 434.814C597.63 437.119 609.69 446.553 615.649 459.393C615.912 459.959 616.637 460.142 617.141 459.773C622.096 456.148 628.205 454.009 634.813 454.009C651.36 454.009 664.774 467.422 664.774 483.969C664.774 489.539 663.255 494.753 660.608 499.22Z" fill="#FFDBDB"/>
<path fill-rule="evenodd" clip-rule="evenodd" d="M729.623 444.683C729.461 444.969 729.153 445.138 728.825 445.138H659.733C659.73 445.138 659.727 445.137 659.725 445.134C659.722 445.131 659.717 445.13 659.712 445.132C659.711 445.133 659.709 445.134 659.707 445.135C659.705 445.137 659.702 445.138 659.698 445.138H641.631C641.458 445.138 641.287 445.091 641.141 444.999C636.153 441.869 632.838 436.321 632.838 429.998C632.838 420.225 640.761 412.302 650.535 412.302C652.266 412.302 653.939 412.55 655.521 413.014C655.969 413.145 656.455 412.953 656.683 412.545C661.622 403.741 671.046 397.79 681.859 397.79C696.276 397.79 708.223 408.367 710.363 422.183C710.461 422.814 711.127 423.2 711.732 422.997C713.242 422.488 714.859 422.212 716.54 422.212C724.848 422.212 731.583 428.946 731.583 437.254C731.583 439.956 730.87 442.492 729.623 444.683Z" fill="#FFDBDB"/>
<path fill-rule="evenodd" clip-rule="evenodd" d="M351.608 404.315C351.608 404.706 351.929 405.017 352.319 405.017H465.655C465.958 405.017 466.243 404.873 466.418 404.625C469.805 399.813 471.794 393.945 471.794 387.613C471.794 371.27 458.545 358.021 442.201 358.021C431.1 358.021 421.427 364.133 416.364 373.175C416.135 373.583 415.65 373.775 415.201 373.643C413.574 373.164 411.851 372.907 410.068 372.907C403.45 372.907 397.659 376.449 394.486 381.74C394.189 382.236 393.53 382.392 393.048 382.072C388.822 379.264 383.75 377.628 378.296 377.628C363.557 377.628 351.608 389.576 351.608 404.315ZM508.242 405.017C508.61 405.017 508.947 404.805 509.09 404.465C509.858 402.632 510.282 400.618 510.282 398.506C510.282 389.983 503.373 383.074 494.851 383.074C486.328 383.074 479.419 389.983 479.419 398.506C479.419 400.618 479.844 402.632 480.612 404.465C480.754 404.805 481.091 405.017 481.459 405.017H508.242Z" fill="#FFDBDB"/>
<path fill-rule="evenodd" clip-rule="evenodd" d="M432.456 499.096C432.307 499.432 431.971 499.645 431.603 499.645H117.716C117.203 499.645 116.782 499.236 116.778 498.722C116.776 498.561 116.775 498.399 116.775 498.238C116.775 468.67 140.745 444.7 170.313 444.7C181.651 444.7 192.165 448.224 200.821 454.237C201.296 454.567 201.956 454.411 202.238 453.906C208.467 442.764 220.379 435.231 234.05 435.231C237.914 435.231 241.637 435.832 245.131 436.947C245.576 437.089 246.063 436.896 246.285 436.485C256.33 417.951 275.952 405.366 298.513 405.366C320.596 405.366 339.863 417.424 350.089 435.316C350.235 435.57 350.489 435.745 350.778 435.791C365.717 438.171 378.193 447.937 384.347 461.228C384.61 461.794 385.335 461.977 385.838 461.607C390.963 457.847 397.288 455.627 404.131 455.627C421.228 455.627 435.089 469.487 435.089 486.584C435.089 491.037 434.148 495.27 432.456 499.096Z" fill="#FFDBDB"/>
<circle cx="358.71" cy="679.496" r="84.7484" fill="url(#paint1_radial_738_1265)"/>
<rect x="-27" y="704" width="699" height="155" fill="#3B5482"/>
<path d="M246.82 728.642H236.246" stroke="#61ACCC" stroke-width="3.52482" stroke-linecap="round"/>
<path d="M229.196 723.002H225.671" stroke="#61ACCC" stroke-width="3.52482" stroke-linecap="round"/>
<path d="M350.031 760.415H339.457" stroke="#61ACCC" stroke-width="3.52482" stroke-linecap="round"/>
<path d="M332.407 754.776H328.882" stroke="#61ACCC" stroke-width="3.52482" stroke-linecap="round"/>
<path d="M317.319 725.823H306.745" stroke="#61ACCC" stroke-width="3.52482" stroke-linecap="round"/>
<path d="M329.303 723.003H325.778" stroke="#61ACCC" stroke-width="3.52482" stroke-linecap="round"/>
<path d="M306.744 719.478H303.219" stroke="#61ACCC" stroke-width="3.52482" stroke-linecap="round"/>
<path d="M423.768 715.953H413.193" stroke="#61ACCC" stroke-width="3.52482" stroke-linecap="round"/>
<path d="M406.848 725.823H403.323" stroke="#61ACCC" stroke-width="3.52482" stroke-linecap="round"/>
<path d="M444.916 723.003H434.342" stroke="#61ACCC" stroke-width="3.52482" stroke-linecap="round"/>
<path d="M239.241 774.114H249.816" stroke="#61ACCC" stroke-width="3.52482" stroke-linecap="round"/>
<path d="M256.162 764.245H259.687" stroke="#61ACCC" stroke-width="3.52482" stroke-linecap="round"/>
<path d="M218.094 767.064H228.668" stroke="#61ACCC" stroke-width="3.52482" stroke-linecap="round"/>
<path d="M176.325 723.003H165.751" stroke="#61ACCC" stroke-width="3.52482" stroke-linecap="round"/>
<path d="M165.75 715.953H162.225" stroke="#61ACCC" stroke-width="3.52482" stroke-linecap="round"/>
<path d="M354.64 719.74H365.214" stroke="#B5F2FF" stroke-width="3.52482" stroke-linecap="round"/>
<path d="M372.264 725.38H375.788" stroke="#B5F2FF" stroke-width="3.52482" stroke-linecap="round"/>
<path d="M284.141 722.56H294.715" stroke="#B5F2FF" stroke-width="3.52482" stroke-linecap="round"/>
<path d="M272.157 725.38H275.682" stroke="#B5F2FF" stroke-width="3.52482" stroke-linecap="round"/>
<path d="M294.716 728.905H298.241" stroke="#B5F2FF" stroke-width="3.52482" stroke-linecap="round"/>
<path d="M177.691 732.43H188.266" stroke="#B5F2FF" stroke-width="3.52482" stroke-linecap="round"/>
<path d="M194.612 722.56H198.137" stroke="#B5F2FF" stroke-width="3.52482" stroke-linecap="round"/>
<path d="M156.544 725.38H167.118" stroke="#B5F2FF" stroke-width="3.52482" stroke-linecap="round"/>
<path d="M425.136 725.38H435.71" stroke="#B5F2FF" stroke-width="3.52482" stroke-linecap="round"/>
<path d="M435.711 732.43H439.236" stroke="#B5F2FF" stroke-width="3.52482" stroke-linecap="round"/>
<path d="M317.838 742.466H307.263" stroke="#B5F2FF" stroke-width="3.52482" stroke-linecap="round"/>
<path d="M300.214 748.105H296.689" stroke="#B5F2FF" stroke-width="3.52482" stroke-linecap="round"/>
<path d="M259.652 757.616H249.078" stroke="#B5F2FF" stroke-width="3.52482" stroke-linecap="round"/>
<path d="M271.636 760.436H268.111" stroke="#B5F2FF" stroke-width="3.52482" stroke-linecap="round"/>
<path d="M249.077 763.961H245.552" stroke="#B5F2FF" stroke-width="3.52482" stroke-linecap="round"/>
<path d="M338.909 741.919H328.335" stroke="#B5F2FF" stroke-width="3.52482" stroke-linecap="round"/>
<path d="M321.989 732.05H318.464" stroke="#B5F2FF" stroke-width="3.52482" stroke-linecap="round"/>
<path d="M360.058 734.869H349.483" stroke="#B5F2FF" stroke-width="3.52482" stroke-linecap="round"/>
<path d="M214.2 735.837H203.626" stroke="#B5F2FF" stroke-width="3.52482" stroke-linecap="round"/>
<path d="M203.625 742.887H200.1" stroke="#B5F2FF" stroke-width="3.52482" stroke-linecap="round"/>
<path d="M513.797 910.221C581.623 831.782 589.097 696.528 570.699 546.764L593.346 548.652C616.044 633.902 648.283 815.622 619.838 914.784L513.797 910.221Z" fill="#351C45"/>
<path d="M478.97 566.538C469.256 568.299 459.044 549.22 434.922 567.959C481.369 509.571 558.092 510.021 609.042 569.237C600.338 577.27 575.038 536.568 559.939 582.51C553.628 577.031 548.952 571.718 563.295 558.126C553.72 563.824 554.518 565.123 546.025 578.809C554.175 555.029 556.973 546.974 550.74 561.64C544.508 576.306 542.028 574.755 513.224 577.038C533.969 568.038 528.524 563.308 536.366 552.95C526.989 565.336 509.221 579.904 490.644 580.716C501.069 572.308 513.719 559.251 520.445 548.766C510.282 548.714 499.816 564.433 497.694 569.332C499.236 554.929 505.141 552.284 506.703 542.926C506.703 542.926 488.684 564.776 478.97 566.538Z" fill="#27255B"/>
<path d="M686.409 554.034C696.133 555.737 691.74 543.085 714.255 540.03C664.95 505.509 573.869 533.053 568.827 562.061C577.58 570.042 602.634 529.188 618.01 575.038C624.287 569.521 628.931 564.18 614.506 550.674C624.116 556.315 623.325 557.619 631.901 571.254C623.608 547.522 620.761 539.484 627.082 554.113C633.403 568.741 635.873 567.176 664.691 569.285C643.892 560.409 649.308 555.647 641.404 545.337C650.855 557.665 668.711 572.127 687.293 572.827C676.816 564.481 664.088 551.501 657.299 541.056C665.13 551.344 677.177 556.345 679.329 561.231C677.7 546.838 671.675 552.484 670.056 543.136C670.056 543.136 676.684 552.332 686.409 554.034Z" fill="#27255B"/>
<path d="M540.723 657.372C537.841 664.899 522.678 660.035 506.158 671.145C515.272 620.681 527.512 593.521 580.815 550.082C582.75 559.55 563.104 577.785 576.577 605.15C568.599 599.096 566.889 596.085 563.45 580.333C563.382 589.425 564.95 604.589 570.933 616.295C557.738 600.57 555.683 595.011 556.667 597.472C557.652 599.933 572.609 623.852 568.276 630.279C566.288 615.628 558.819 613.398 554.89 603.552C559.588 615.325 562.714 618.059 555.413 631.376C553.943 620.547 554.504 619.173 550.013 610.052C545.672 617.128 549.903 624.339 552.434 627.888C543.005 620.734 543.289 618.749 537.4 613.71C537.4 613.71 543.605 649.845 540.723 657.372Z" fill="#27255B"/>
<path d="M682.683 604.457C689.692 608.436 698.307 595.043 718.122 593.12C679.011 559.954 652.299 546.766 583.538 547.11C588.062 555.649 614.819 557.24 621.811 586.929C624.123 577.185 623.529 573.773 616.172 559.427C622.002 566.403 630.431 579.107 633.252 591.946C633.444 571.42 631.497 565.821 632.301 568.347C633.106 570.873 636.762 598.846 644.191 601.053C636.414 588.479 640.763 582.01 637.538 571.911C641.395 583.987 640.718 588.084 654.819 593.724C649.071 584.43 647.765 583.726 645.434 573.83C653.284 576.534 654.6 584.79 654.902 589.138C657.634 577.622 656.153 576.27 657.496 568.637C657.496 568.637 675.674 600.478 682.683 604.457Z" fill="#27255B"/>
<path d="M483.432 619.556C475.985 626.037 457.453 614.863 446.304 643.301C456.365 569.374 522.53 530.53 596.595 555.368C593.222 566.722 550.668 544.679 561.183 591.882C552.958 590.4 546.223 588.225 551.599 569.21C546.284 579.003 547.634 579.712 547.333 595.816C542.178 571.212 540.464 562.859 542.606 578.65C544.749 594.441 541.826 594.376 518.239 611.066C531.464 592.724 524.367 591.443 525.81 578.532C524.085 593.97 516.264 615.576 500.714 625.773C505.375 613.215 509.57 595.527 509.988 583.076C501.228 588.229 500.271 607.089 500.952 612.384C494.913 599.218 498.635 593.925 495.193 585.084C495.193 585.084 490.88 613.076 483.432 619.556Z" fill="#27255B"/>
<path d="M666.507 642.126C671.784 650.469 692.741 645.077 695.269 675.518C706.824 601.809 654.572 545.628 576.495 548.19C576.472 560.035 623.559 551.117 599.954 593.323C608.258 594.262 615.334 594.109 615.634 574.351C617.919 585.256 616.422 585.548 612.094 601.063C624.087 578.969 628.124 571.458 621.544 585.972C614.964 600.486 617.783 601.262 635.595 624.013C628.183 602.649 635.35 603.457 637.669 590.674C634.896 605.959 636.194 628.9 648.168 643.127C647.304 629.76 648.355 611.612 651.524 599.564C658.44 607.012 653.949 625.354 651.779 630.232C661.339 619.35 659.291 613.212 665.123 605.729C665.123 605.729 661.23 633.782 666.507 642.126Z" fill="#27255B"/>
<path d="M94.5868 921.975C51.1562 847.887 65.4278 736.611 102.952 617.414L84.2245 615.543C52.9085 681.554 -0.698913 824.692 7.54063 909.731L94.5868 921.975Z" fill="#482463"/>
<path d="M4.08631 628.366C-3.95864 629.824 -12.4163 614.024 -32.3942 629.543C6.07253 581.187 69.6135 581.559 111.81 630.601C104.601 637.254 83.6479 603.545 71.1431 641.594C65.9166 637.056 62.0444 632.656 73.923 621.399C65.9929 626.118 66.654 627.194 59.6199 638.529C66.3696 618.834 68.6869 612.163 63.5252 624.309C58.3634 636.456 56.31 635.171 32.4546 637.062C49.635 629.608 45.1261 625.691 51.6203 617.113C43.8549 627.37 29.1394 639.436 13.7539 640.108C22.3885 633.144 32.8648 622.331 38.4353 613.647C30.0179 613.604 21.3503 626.623 19.5928 630.68C20.8702 618.752 25.7602 616.561 27.0543 608.81C27.0543 608.81 12.1313 626.907 4.08631 628.366Z" fill="#484772"/>
<path d="M175.883 618.011C183.936 619.421 180.298 608.943 198.945 606.412C158.111 577.822 82.6789 600.634 78.503 624.658C85.752 631.267 106.501 597.433 119.235 635.405C124.434 630.836 128.28 626.413 116.334 615.228C124.292 619.899 123.638 620.979 130.74 632.271C123.872 612.617 121.514 605.96 126.749 618.075C131.984 630.19 134.029 628.894 157.896 630.641C140.671 623.29 145.156 619.346 138.61 610.807C146.437 621.018 161.225 632.994 176.614 633.574C167.938 626.662 157.397 615.913 151.774 607.262C158.26 615.783 168.237 619.924 170.019 623.971C168.67 612.05 163.68 616.727 162.34 608.985C162.34 608.985 167.829 616.6 175.883 618.011Z" fill="#484772"/>
<path d="M55.229 703.593C52.842 709.827 40.284 705.799 26.6025 715C34.1506 673.206 44.2874 650.713 88.4324 614.737C90.0353 622.578 73.7646 637.681 84.9225 660.343C78.3151 655.33 76.8989 652.836 74.051 639.791C73.9951 647.32 75.2934 659.879 80.248 669.574C69.3206 656.551 67.6181 651.946 68.4336 653.985C69.249 656.023 81.6362 675.833 78.0479 681.155C76.4013 669.021 70.2154 667.175 66.9615 659.02C70.8523 668.771 73.4415 671.035 67.3945 682.063C66.1775 673.095 66.6422 671.958 62.9229 664.403C59.3273 670.264 62.8318 676.236 64.9275 679.175C57.1187 673.25 57.3542 671.606 52.4771 667.433C52.4771 667.433 57.616 697.359 55.229 703.593Z" fill="#484772"/>
<path d="M172.798 659.77C178.603 663.066 185.738 651.974 202.149 650.381C169.757 622.913 147.635 611.991 90.6877 612.276C94.4342 619.348 116.595 620.666 122.385 645.254C124.3 637.184 123.808 634.358 117.715 622.477C122.543 628.254 129.524 638.775 131.861 649.409C132.019 632.409 130.407 627.772 131.073 629.864C131.739 631.956 134.767 655.123 140.92 656.951C134.479 646.537 138.081 641.18 135.41 632.816C138.604 642.817 138.044 646.21 149.722 650.881C144.961 643.184 143.88 642.601 141.949 634.405C148.45 636.644 149.54 643.482 149.791 647.083C152.053 637.546 150.827 636.426 151.939 630.105C151.939 630.105 166.993 656.475 172.798 659.77Z" fill="#484772"/>
<path d="M7.78066 672.275C1.61274 677.642 -13.7349 668.388 -22.9682 691.94C-14.6359 630.714 40.161 598.545 101.501 619.115C98.7067 628.518 63.4638 610.263 72.1724 649.355C65.3605 648.128 59.7831 646.327 64.2355 630.579C59.8335 638.689 60.9517 639.276 60.7024 652.614C56.4325 632.237 55.013 625.319 56.7877 638.397C58.5625 651.474 56.1411 651.421 36.6067 665.243C47.5599 650.052 41.6822 648.992 42.877 638.299C41.4483 651.085 34.9714 668.978 22.0932 677.423C25.9528 667.023 29.4271 652.374 29.7739 642.062C22.5183 646.33 21.726 661.95 22.2902 666.335C17.2888 655.431 20.3709 651.047 17.5202 643.725C17.5202 643.725 13.9486 666.908 7.78066 672.275Z" fill="#484772"/>
<path d="M159.401 690.967C163.772 697.877 181.128 693.411 183.222 718.622C192.792 657.577 149.517 611.048 84.8552 613.17C84.836 622.98 123.833 615.594 104.283 650.549C111.161 651.327 117.02 651.2 117.27 634.836C119.162 643.868 117.922 644.11 114.337 656.959C124.27 638.662 127.613 632.441 122.164 644.461C116.714 656.481 119.049 657.124 133.801 675.966C127.663 658.273 133.598 658.942 135.518 648.355C133.222 661.014 134.297 680.013 144.214 691.796C143.498 680.726 144.369 665.696 146.993 655.717C152.72 661.886 149.001 677.077 147.204 681.117C155.121 672.104 153.425 667.021 158.255 660.823C158.255 660.823 155.031 684.057 159.401 690.967Z" fill="#484772"/>
<path d="M112.799 902.451C22.4486 797.964 12.4929 617.792 36.9999 418.292L6.83157 420.807C-23.4032 534.369 -66.3491 776.436 -28.4579 908.53L112.799 902.451Z" fill="#351C45"/>
<path d="M159.19 444.632C172.13 446.978 185.734 421.564 217.867 446.526C155.996 368.747 53.7931 369.347 -14.0777 448.228C-2.4823 458.929 31.2195 404.709 51.3328 465.909C59.7394 458.61 65.9676 451.533 46.8615 433.427C59.6167 441.017 58.5534 442.748 69.8673 460.979C59.0108 429.301 55.2835 418.571 63.5859 438.108C71.8884 457.644 75.1911 455.579 113.561 458.62C85.9275 446.63 93.1799 440.33 82.7342 426.532C95.2246 443.031 118.894 462.438 143.64 463.519C129.752 452.318 112.902 434.926 103.942 420.958C117.481 420.889 131.422 441.829 134.249 448.355C132.194 429.169 124.329 425.644 122.247 413.179C122.247 413.179 146.25 442.286 159.19 444.632Z" fill="#27255B"/>
<path d="M-117.137 427.977C-130.091 430.245 -124.239 413.392 -154.231 409.321C-88.5518 363.336 32.7763 400.027 39.4931 438.669C27.8334 449.3 -5.54113 394.878 -26.0228 455.955C-34.3853 448.606 -40.5707 441.492 -21.3558 423.501C-34.1565 431.015 -33.1037 432.752 -44.5272 450.914C-33.48 419.302 -29.6881 408.595 -38.1081 428.081C-46.5282 447.567 -49.8184 445.482 -88.2062 448.292C-60.5007 436.469 -67.715 430.125 -57.1864 416.39C-69.7759 432.813 -93.5615 452.077 -118.314 453.01C-104.359 441.893 -87.4037 424.602 -78.3599 410.688C-88.7915 424.393 -104.84 431.055 -107.706 437.564C-105.536 418.39 -97.5105 425.912 -95.354 413.459C-95.354 413.459 -104.183 425.708 -117.137 427.977Z" fill="#27255B"/>
<path d="M76.9308 565.632C80.7702 575.659 100.969 569.18 122.975 583.979C110.834 516.756 94.5299 480.577 23.5249 422.712C20.9466 435.324 47.1173 459.616 29.1703 496.067C39.7981 488.004 42.0759 483.992 46.6567 463.01C46.7466 475.12 44.6582 495.321 36.689 510.914C54.2652 489.967 57.0036 482.561 55.692 485.84C54.3804 489.118 34.4562 520.981 40.2279 529.542C42.8764 510.025 52.8261 507.055 58.0597 493.939C51.8016 509.622 47.637 513.264 57.3632 531.003C59.3208 516.578 58.5732 514.748 64.5555 502.598C70.3389 512.024 64.7021 521.629 61.3313 526.356C73.8914 516.827 73.5127 514.183 81.3571 507.47C81.3571 507.47 73.0914 555.605 76.9308 565.632Z" fill="#27255B"/>
<path d="M-112.172 495.145C-121.509 500.446 -132.984 482.605 -159.38 480.043C-107.28 435.863 -71.6973 418.295 19.8991 418.753C13.8731 430.129 -21.7707 432.248 -31.0841 471.796C-34.1637 458.816 -33.3724 454.271 -23.5724 435.161C-31.3393 444.453 -42.5667 461.376 -46.3253 478.48C-46.5805 451.137 -43.9874 443.679 -45.0587 447.043C-46.1301 450.408 -51.0001 487.671 -60.8972 490.611C-50.5373 473.861 -56.3305 465.243 -52.0342 451.791C-57.1715 467.877 -56.2709 473.335 -75.0547 480.848C-67.3974 468.467 -65.6572 467.53 -62.5528 454.347C-73.0091 457.948 -74.7623 468.946 -75.1648 474.739C-78.8044 459.398 -76.8316 457.598 -78.6209 447.43C-78.6209 447.43 -102.835 489.845 -112.172 495.145Z" fill="#27255B"/>
<path d="M153.248 515.258C163.169 523.891 187.855 509.006 202.706 546.888C189.304 448.41 101.166 396.667 2.50433 429.753C6.99796 444.878 63.6844 415.515 49.6771 478.393C60.6336 476.419 69.6046 473.522 62.4432 448.192C69.5236 461.237 67.725 462.181 68.126 483.634C74.9939 450.858 77.2771 439.731 74.4226 460.766C71.568 481.801 75.4626 481.715 106.883 503.948C89.265 479.514 98.719 477.808 96.7973 460.609C99.0952 481.175 109.513 509.955 130.227 523.539C124.019 506.811 118.431 483.248 117.873 466.663C129.543 473.527 130.818 498.65 129.91 505.704C137.955 488.165 132.997 481.115 137.582 469.337C137.582 469.337 143.327 506.625 153.248 515.258Z" fill="#27255B"/>
<path d="M-90.6237 545.323C-97.6532 556.438 -125.57 549.254 -128.938 589.805C-144.33 491.618 -74.7254 416.779 29.2801 420.192C29.3111 435.97 -33.4138 424.09 -1.96849 480.314C-13.031 481.564 -22.4561 481.36 -22.8568 455.04C-25.9002 469.568 -23.9065 469.956 -18.1406 490.624C-34.1162 461.193 -39.4936 451.187 -30.7285 470.521C-21.9634 489.855 -25.7193 490.889 -49.4469 521.196C-39.5734 492.737 -49.1196 493.813 -52.2091 476.785C-48.5148 497.146 -50.2446 527.705 -66.1951 546.657C-65.0432 528.851 -66.4443 504.676 -70.6647 488.627C-79.8773 498.548 -73.8959 522.982 -71.0043 529.48C-83.7391 514.983 -81.0111 506.808 -88.7801 496.839C-88.7801 496.839 -83.5941 534.209 -90.6237 545.323Z" fill="#27255B"/>
<circle cx="286.745" cy="-1.33159" r="1.42036" fill="#FFFEFC" fill-opacity="0.5"/>
<circle cx="1.42036" cy="1.42036" r="1.42036" transform="matrix(-1 0 0 1 305.211 118.452)" fill="#FFFEFC" fill-opacity="0.5"/>
<circle cx="1.42036" cy="1.42036" r="1.42036" transform="matrix(-1 0 0 1 103.519 118.452)" fill="#FFFEFC" fill-opacity="0.5"/>
<circle cx="1.42036" cy="1.42036" r="1.42036" transform="matrix(1 0 0 -1 402.742 70.1602)" fill="#FFFEFC" fill-opacity="0.5"/>
<circle cx="482.756" cy="235.396" r="1.42036" fill="#FFFEFC" fill-opacity="0.5"/>
<circle cx="213.834" cy="301.68" r="1.42036" transform="rotate(180 213.834 301.68)" fill="#FFFEFC" fill-opacity="0.5"/>
<circle cx="302.843" cy="11.9254" r="2.36727" fill="#FFFEFC" fill-opacity="0.5"/>
<circle cx="1.42036" cy="1.42036" r="1.42036" transform="matrix(1 0 0 -1 497.434 70.1602)" fill="#FFFEFC" fill-opacity="0.5"/>
<circle cx="2.36727" cy="2.36727" r="2.36727" transform="matrix(1 0 0 -1 379.069 294.578)" fill="#FFFEFC" fill-opacity="0.5"/>
<circle cx="2.36727" cy="2.36727" r="2.36727" transform="matrix(-1 0 0 1 317.52 242.498)" fill="#FFFEFC" fill-opacity="0.5"/>
<circle cx="101.151" cy="11.9254" r="2.36727" fill="#FFFEFC" fill-opacity="0.5"/>
<circle cx="2.36727" cy="2.36727" r="2.36727" transform="matrix(-1 0 0 1 290.06 130.762)" fill="#FFFEFC" fill-opacity="0.5"/>
<circle cx="2.36727" cy="2.36727" r="2.36727" transform="matrix(-1 0 0 1 88.3682 130.762)" fill="#FFFEFC" fill-opacity="0.5"/>
<circle cx="2.36727" cy="2.36727" r="2.36727" transform="matrix(1 0 0 -1 463.344 12.3987)" fill="#FFFEFC" fill-opacity="0.5"/>
<circle cx="2.36727" cy="2.36727" r="2.36727" transform="matrix(1 0 0 -1 463.344 108.984)" fill="#FFFEFC" fill-opacity="0.5"/>
<circle cx="2.36727" cy="2.36727" r="2.36727" transform="matrix(1 0 0 -1 417.893 57.8503)" fill="#FFFEFC" fill-opacity="0.5"/>
<circle cx="2.36727" cy="2.36727" r="2.36727" transform="matrix(1 0 0 -1 216.2 57.8503)" fill="#FFFEFC" fill-opacity="0.5"/>
<circle cx="544.305" cy="294.104" r="2.36727" fill="#FFFEFC" fill-opacity="0.5"/>
<circle cx="152.284" cy="242.971" r="2.36727" transform="rotate(180 152.284 242.971)" fill="#FFFEFC" fill-opacity="0.5"/>
<circle cx="544.305" cy="197.519" r="2.36727" fill="#FFFEFC" fill-opacity="0.5"/>
<circle cx="152.284" cy="339.556" r="2.36727" transform="rotate(180 152.284 339.556)" fill="#FFFEFC" fill-opacity="0.5"/>
<path fill-rule="evenodd" clip-rule="evenodd" d="M101.163 200.542C74.4716 200.542 52.8336 179.253 52.8336 152.991C52.8336 126.73 74.4716 105.441 101.163 105.441C124.183 105.441 143.443 121.275 148.308 142.476C148.42 142.965 148.887 143.291 149.384 143.227C151.275 142.983 153.198 142.858 155.148 142.858C182.591 142.858 204.838 167.695 204.838 198.334C204.838 202.933 204.336 207.402 203.391 211.676C203.296 212.105 202.914 212.408 202.474 212.408H107.822C107.382 212.408 107 212.105 106.905 211.676C106.168 208.344 105.7 204.892 105.53 201.353C105.504 200.811 105.035 200.394 104.493 200.431C103.393 200.504 102.283 200.542 101.163 200.542ZM14.0659 278.073C15.0594 278.073 15.3571 279.357 14.4483 279.759C6.40198 283.314 -2.36835 285.267 -11.5473 285.267C-20.7263 285.267 -29.4966 283.314 -37.543 279.759C-38.4517 279.357 -38.154 278.073 -37.1605 278.073H14.0659ZM-90.2703 211.609C-90.2076 212.07 -89.8098 212.408 -89.3444 212.408H58.046C58.5441 212.408 58.9576 212.022 58.9864 211.525C59.0854 209.816 59.1357 208.091 59.1357 206.354C59.1357 162.772 27.4898 127.441 -11.5473 127.441C-42.366 127.441 -68.5779 149.461 -78.2487 180.178C-78.3065 180.361 -78.4186 180.524 -78.5691 180.644C-85.8519 186.463 -90.5981 195.986 -90.5981 206.747C-90.5981 208.4 -90.4862 210.023 -90.2703 211.609Z" fill="#CBAEEF"/>
<path fill-rule="evenodd" clip-rule="evenodd" d="M-67.151 212.902C-67.0823 213.355 -66.6879 213.684 -66.2289 213.684H246.035C246.6 213.684 247.04 213.189 246.964 212.628C243.459 186.77 221.295 166.839 194.476 166.839C183.263 166.839 172.864 170.323 164.302 176.267C163.827 176.597 163.167 176.441 162.885 175.936C156.721 164.918 144.938 157.47 131.415 157.47C127.595 157.47 123.913 158.064 120.458 159.166C120.013 159.308 119.526 159.115 119.303 158.704C109.364 140.37 89.952 127.921 67.6324 127.921C45.7843 127.921 26.7222 139.85 16.6039 157.55C16.4585 157.804 16.2043 157.979 15.9151 158.025C1.14148 160.381 -11.1974 170.037 -17.2872 183.179C-17.5498 183.746 -18.2749 183.928 -18.7787 183.559C-23.8476 179.844 -30.1015 177.65 -36.8678 177.65C-53.7841 177.65 -67.4975 191.363 -67.4975 208.279C-67.4975 209.851 -67.3792 211.394 -67.151 212.902ZM247.446 220.173V219.449C247.447 219.569 247.447 219.69 247.447 219.811C247.447 219.932 247.447 220.052 247.446 220.173Z" fill="#FFCEE8"/>
<path fill-rule="evenodd" clip-rule="evenodd" d="M609.629 96.3812C636.321 96.3812 657.959 75.0922 657.959 48.8308C657.959 22.5695 636.321 1.28052 609.629 1.28052C586.61 1.28052 567.35 17.114 562.485 38.3154C562.373 38.8043 561.906 39.1306 561.409 39.0665C559.518 38.8226 557.595 38.6973 555.645 38.6973C528.202 38.6973 505.955 63.5345 505.955 94.1729C505.955 98.7727 506.457 103.242 507.402 107.516C507.497 107.945 507.879 108.247 508.319 108.247H602.971C603.411 108.247 603.793 107.945 603.888 107.515C604.625 104.183 605.092 100.732 605.263 97.193C605.289 96.6502 605.758 96.2338 606.3 96.2701C607.4 96.3438 608.51 96.3812 609.629 96.3812ZM696.731 173.912C695.738 173.912 695.44 175.197 696.349 175.599C704.395 179.153 713.166 181.107 722.345 181.107C731.524 181.107 740.294 179.153 748.341 175.599C749.249 175.197 748.952 173.912 747.958 173.912H696.731ZM801.063 107.448C801.001 107.909 800.603 108.247 800.137 108.247H652.751C652.253 108.247 651.84 107.862 651.811 107.365C651.712 105.655 651.662 103.931 651.662 102.194C651.662 58.6113 683.308 23.2807 722.345 23.2807C753.165 23.2807 779.378 45.3032 789.048 76.0221C789.105 76.2057 789.217 76.3681 789.368 76.4882C796.647 82.3076 801.391 91.8289 801.391 102.587C801.391 104.24 801.279 105.863 801.063 107.448Z" fill="#CBAEEF"/>
<path fill-rule="evenodd" clip-rule="evenodd" d="M777.942 108.742C777.874 109.196 777.479 109.524 777.02 109.524H464.756C464.191 109.524 463.751 109.029 463.827 108.468C467.332 82.61 489.496 62.6792 516.315 62.6792C527.528 62.6792 537.927 66.163 546.489 72.1072C546.964 72.4372 547.624 72.281 547.906 71.7761C554.07 60.7582 565.853 53.3098 579.376 53.3098C583.196 53.3098 586.878 53.9043 590.333 55.0059C590.778 55.148 591.265 54.9548 591.488 54.5436C601.427 36.2103 620.839 23.7612 643.159 23.7612C665.007 23.7612 684.069 35.69 694.187 53.3899C694.333 53.6441 694.587 53.8188 694.876 53.865C709.65 56.2209 721.989 65.8773 728.078 79.0195C728.341 79.5863 729.066 79.7685 729.57 79.3991C734.639 75.6836 740.893 73.4896 747.659 73.4896C764.575 73.4896 778.289 87.2029 778.289 104.119C778.289 105.691 778.171 107.234 777.942 108.742ZM463.345 115.996V115.306C463.344 115.42 463.344 115.535 463.344 115.651C463.344 115.766 463.344 115.881 463.345 115.996Z" fill="#FFCEE8"/>
<path fill-rule="evenodd" clip-rule="evenodd" d="M89.8555 118.349C89.8555 118.74 89.5352 119.051 89.1448 119.051H-24.1923C-24.495 119.051 -24.7803 118.907 -24.9545 118.659C-28.3416 113.846 -30.3304 107.979 -30.3304 101.647C-30.3304 85.3032 -17.0814 72.0542 -0.737976 72.0542C10.3629 72.0542 20.0361 78.1665 25.0998 87.2092C25.3283 87.6174 25.8134 87.8093 26.2621 87.6773C27.89 87.1982 29.613 86.9412 31.396 86.9412C38.0141 86.9412 43.8051 90.4824 46.9776 95.7734C47.2751 96.2696 47.9341 96.4258 48.416 96.1056C52.6418 93.2975 57.7137 91.6614 63.1678 91.6614C77.907 91.6614 89.8555 103.61 89.8555 118.349ZM-66.7782 119.051C-67.1462 119.051 -67.4834 118.838 -67.6256 118.499C-68.3939 116.665 -68.8184 114.652 -68.8184 112.54C-68.8184 104.017 -61.9094 97.1079 -53.3867 97.1079C-44.8641 97.1079 -37.9551 104.017 -37.9551 112.54C-37.9551 114.652 -38.3795 116.665 -39.1478 118.499C-39.2901 118.838 -39.6272 119.051 -39.9953 119.051H-66.7782Z" fill="#FFCEE8"/>
<path fill-rule="evenodd" clip-rule="evenodd" d="M560.875 173.27C560.875 173.66 561.195 173.971 561.585 173.971H674.923C675.226 173.971 675.511 173.827 675.685 173.579C679.072 168.767 681.061 162.899 681.061 156.567C681.061 140.224 667.812 126.975 651.468 126.975C640.368 126.975 630.694 133.087 625.631 142.13C625.402 142.538 624.917 142.73 624.468 142.598C622.84 142.119 621.118 141.862 619.335 141.862C612.716 141.862 606.925 145.403 603.753 150.694C603.455 151.19 602.796 151.346 602.314 151.026C598.089 148.218 593.017 146.582 587.563 146.582C572.823 146.582 560.875 158.53 560.875 173.27ZM717.509 173.971C717.877 173.971 718.214 173.759 718.356 173.419C719.124 171.586 719.549 169.573 719.549 167.46C719.549 158.938 712.64 152.029 704.117 152.029C695.594 152.029 688.685 158.938 688.685 167.46C688.685 169.573 689.11 171.586 689.878 173.419C690.02 173.759 690.357 173.971 690.725 173.971H717.509Z" fill="#FFCEE8"/>
<rect width="644" height="874" fill="url(#paint2_linear_738_1265)" fill-opacity="0.5"/>
</g>
<defs>
<linearGradient id="paint0_linear_738_1265" x1="433.516" y1="-34" x2="433.516" y2="838.577" gradientUnits="userSpaceOnUse">
<stop stop-color="#4484E4"/>
<stop offset="0.266524" stop-color="#A29AFF"/>
<stop offset="0.476113" stop-color="#FFACFC"/>
<stop offset="0.758495" stop-color="#FFC3B6"/>
<stop offset="0.953569" stop-color="#FFECD0"/>
</linearGradient>
<radialGradient id="paint1_radial_738_1265" cx="0" cy="0" r="1" gradientUnits="userSpaceOnUse" gradientTransform="translate(358.71 679.496) rotate(90) scale(84.7484)">
<stop stop-color="white"/>
<stop offset="1" stop-color="#FFEEC2" stop-opacity="0"/>
</radialGradient>
<linearGradient id="paint2_linear_738_1265" x1="322" y1="0" x2="322" y2="874" gradientUnits="userSpaceOnUse">
<stop stop-color="#1E1E1E" stop-opacity="0"/>
<stop offset="0.997705" stop-color="#1E1E1E" stop-opacity="0.65"/>
</linearGradient>
<clipPath id="clip0_738_1265">
<rect width="644" height="855" rx="15" fill="white"/>
</clipPath>
</defs>
</svg>
