<svg width="715" height="433" viewBox="0 0 715 433" fill="none" xmlns="http://www.w3.org/2000/svg">
<g clip-path="url(#clip0_906_4193)">
<rect width="717" height="433" fill="url(#paint0_linear_906_4193)" fill-opacity="0.1"/>
<g clip-path="url(#clip1_906_4193)">
<rect y="-254" width="720" height="900" fill="url(#paint1_linear_906_4193)"/>
<path fill-rule="evenodd" clip-rule="evenodd" d="M617.622 78.4533C617.439 78.768 617.099 78.9557 616.735 78.9557H486.165C486.161 78.9557 486.157 78.9538 486.154 78.9505C486.15 78.9451 486.142 78.9438 486.136 78.9475C486.133 78.949 486.13 78.9506 486.128 78.9521C486.124 78.9545 486.12 78.9557 486.115 78.9557H386.647C386.102 78.9557 385.646 78.5382 385.613 77.994C385.565 77.1951 385.541 76.3898 385.541 75.5788C385.541 53.7339 403.249 36.0251 425.094 36.0251C433.325 36.0251 440.968 38.5388 447.298 42.8405C447.828 43.2008 448.559 43.0277 448.88 42.4729C453.534 34.4358 462.226 29.0292 472.182 29.0292C474.931 29.0292 477.584 29.4416 480.083 30.2079C480.578 30.3598 481.116 30.1465 481.366 29.6925C488.83 16.1444 503.247 6.96529 519.808 6.96529C536.062 6.96529 550.251 15.8072 557.828 28.9435C557.99 29.2246 558.271 29.418 558.591 29.4707C569.397 31.2505 578.438 38.2641 583.026 47.8214C583.325 48.4454 584.129 48.6473 584.695 48.249C588.414 45.6332 592.947 44.0973 597.839 44.0973C610.47 44.0973 620.71 54.3371 620.71 66.9685C620.71 71.1547 619.585 75.0782 617.622 78.4533Z" fill="#FFF1F2"/>
<path fill-rule="evenodd" clip-rule="evenodd" d="M-89.1827 25.1749C-89.1132 25.6786 -88.6752 26.043 -88.1667 26.043H140.733C141.36 26.043 141.848 25.4946 141.758 24.8742C139.011 6.05296 122.804 -8.40024 103.221 -8.40024C95.1231 -8.40024 87.6027 -5.929 81.3725 -1.69957C80.8421 -1.33949 80.1115 -1.51262 79.7898 -2.06719C75.2051 -9.97229 66.6507 -15.2888 56.8545 -15.2888C54.1522 -15.2888 51.5443 -14.8842 49.0881 -14.1323C48.5926 -13.9806 48.0545 -14.1939 47.8043 -14.6478C40.4534 -27.9816 26.2609 -37.0144 9.95862 -37.0144C-6.04337 -37.0144 -20.0126 -28.3113 -27.4739 -15.3802C-27.6361 -15.0991 -27.9173 -14.9058 -28.2375 -14.853C-38.8669 -13.1001 -47.7621 -6.2035 -52.2813 3.19497C-52.5813 3.81875 -53.3848 4.02057 -53.9513 3.62292C-57.6094 1.05531 -62.066 -0.451786 -66.8746 -0.451786C-79.3124 -0.451786 -89.3952 9.63099 -89.3952 22.0687C-89.3952 23.1226 -89.3228 24.1595 -89.1827 25.1749ZM142.168 30.7008V30.3932C142.168 30.4444 142.168 30.4957 142.168 30.547C142.168 30.5983 142.168 30.6495 142.168 30.7008Z" fill="#FFF1F2"/>
<path fill-rule="evenodd" clip-rule="evenodd" d="M865.626 78.3093C865.551 78.8122 865.113 79.1766 864.605 79.1766H525.397C524.77 79.1766 524.283 78.6273 524.367 78.006C528.185 49.9247 552.26 28.2833 581.388 28.2833C593.562 28.2833 604.853 32.0632 614.151 38.5133C614.678 38.8787 615.409 38.7057 615.722 38.1464C622.422 26.1877 635.217 18.1049 649.899 18.1049C654.043 18.1049 658.036 18.7486 661.784 19.9415C662.278 20.0987 662.817 19.8847 663.064 19.4292C673.865 -0.479534 694.95 -13.9971 719.191 -13.9971C742.924 -13.9971 763.63 -1.04172 774.624 18.1825C774.785 18.4643 775.067 18.6579 775.387 18.709C791.425 21.2689 804.821 31.7479 811.44 46.011C811.732 46.6389 812.535 46.8407 813.094 46.4319C818.597 42.4052 825.383 40.0278 832.724 40.0278C851.102 40.0278 866 54.9262 866 73.3042C866 75.0054 865.873 76.6768 865.626 78.3093ZM523.84 86.0622V85.6014C523.84 85.6782 523.84 85.755 523.84 85.8318C523.84 85.9086 523.84 85.9854 523.84 86.0622Z" fill="#FFF1F2"/>
<mask id="mask0_906_4193" style="mask-type:alpha" maskUnits="userSpaceOnUse" x="-101" y="57" width="881" height="241">
<path d="M34.1853 161.624L-95.6507 275.116C-104.575 282.916 -99.0577 297.611 -87.2047 297.611H766.231C774.746 297.611 780.9 289.47 778.578 281.278L739.943 144.975C737.358 135.855 726.117 132.589 719.047 138.904L686.986 167.542C681.952 172.038 674.295 171.867 669.468 167.15L570.793 70.739C566.143 66.1965 558.832 65.8473 553.771 69.926L475.676 132.864C472.18 135.682 467.464 136.468 463.243 134.934L442.526 127.411C438.754 126.041 434.56 126.514 431.188 128.689L386.06 157.803C381.021 161.054 374.403 160.382 370.12 156.184L273.498 61.4831C268.83 56.9078 261.469 56.5721 256.404 60.7035L218.121 91.929C215.83 93.7972 212.965 94.8175 210.009 94.8175H193.451C190.001 94.8175 186.695 96.2072 184.281 98.673L160.686 122.774C159.107 124.387 157.13 125.555 154.955 126.16L117.781 136.501C115.653 137.093 113.713 138.225 112.15 139.786L83.2573 168.655C79.1889 172.72 72.9131 173.582 67.8994 170.765L48.9184 160.098C44.1799 157.435 38.2777 158.046 34.1853 161.624Z" fill="#429EA3"/>
</mask>
<g mask="url(#mask0_906_4193)">
<path d="M34.1604 161.93L-91.4471 276.935C-100.082 284.841 -94.4886 299.233 -82.7809 299.233H766.275C774.776 299.233 780.928 291.116 778.63 282.931L739.91 145.043C737.344 135.903 726.086 132.617 719.006 138.941L686.986 167.542C681.952 172.039 674.296 171.867 669.469 167.15L570.793 70.739C566.144 66.1965 558.833 65.8473 553.772 69.926L475.677 132.864C472.18 135.682 467.465 136.468 463.243 134.934L442.526 127.411C438.755 126.041 434.56 126.514 431.189 128.689L386.061 157.803C381.022 161.054 374.403 160.382 370.121 156.184L273.499 61.4831C268.831 56.9079 261.47 56.5721 256.405 60.7035L218.121 91.929C215.831 93.7973 212.966 94.8176 210.01 94.8176H193.452C190.001 94.8176 186.696 96.2072 184.282 98.673L160.686 122.774C159.107 124.387 157.13 125.555 154.956 126.16L117.782 136.501C115.653 137.093 113.714 138.225 112.151 139.786L83.2579 168.655C79.1895 172.72 72.9137 173.582 67.9 170.765L49.1137 160.208C44.2805 157.492 38.2495 158.186 34.1604 161.93Z" fill="#81AFB1"/>
<path d="M397.85 168.91L367.824 151.811C367.115 151.408 366.529 150.818 366.13 150.107L314.98 58.9855C314.185 57.5692 312.687 56.6924 311.063 56.6924H252.27L240.558 102.995C239.871 105.708 236.898 107.14 234.349 105.985L220.575 99.7417C218.126 98.6319 215.257 99.9073 214.441 102.469L185.75 192.496C184.703 195.78 180.499 196.71 178.165 194.173L112.605 122.916C110.034 120.122 105.372 121.58 104.851 125.341L95.8067 190.61C95.2899 194.34 90.688 195.817 88.0975 193.084L30.2911 132.091C27.6886 129.345 23.0648 130.85 22.5769 134.601L7.76926 248.444C7.17941 252.979 0.980911 253.835 -0.815453 249.629L-80.5577 62.9485C-81.8234 59.9852 -79.6494 56.6924 -76.4271 56.6924H252.27H311.063H557.058V54.3418C557.058 50.2078 562.171 48.269 564.912 51.3636L569.632 56.6924H750.772C753.879 56.6924 756.048 59.7708 755.002 62.6962L708.379 193.104C707.263 196.228 703.261 197.105 700.94 194.734L605.917 97.6567L569.632 56.6924H557.058V128.73C557.058 132.373 552.949 134.5 549.974 132.398L544.518 128.542C542.138 126.86 538.812 127.855 537.746 130.567L519.351 177.358C518.22 180.233 514.592 181.135 512.246 179.124L436.975 114.563C434.061 112.064 429.559 114.134 429.559 117.972V123.976C429.559 124.801 429.332 125.609 428.903 126.313L403.908 167.344C402.644 169.418 399.96 170.112 397.85 168.91Z" fill="url(#paint2_linear_906_4193)"/>
</g>
<path fill-rule="evenodd" clip-rule="evenodd" d="M362.303 112.541C362.24 113.046 361.801 113.41 361.293 113.41H187.994C187.367 113.41 186.879 112.862 186.975 112.243C189.179 98.0896 201.421 87.259 216.192 87.259C222.235 87.259 227.855 89.0717 232.537 92.183C233.071 92.5378 233.801 92.3647 234.131 91.8149C237.646 85.9524 244.063 82.0288 251.396 82.0288C253.371 82.0288 255.281 82.3136 257.084 82.8444C257.582 82.9908 258.119 82.7781 258.372 82.3259C263.983 72.3062 274.701 65.5335 287.001 65.5335C299.107 65.5335 309.68 72.0934 315.36 81.8522C315.523 82.1327 315.804 82.3257 316.124 82.3802C324.028 83.7246 330.655 88.8178 334.112 95.766C334.42 96.3858 335.224 96.5874 335.798 96.2007C338.523 94.3652 341.805 93.2938 345.338 93.2938C354.782 93.2938 362.437 100.949 362.437 110.393C362.437 111.12 362.391 111.837 362.303 112.541Z" fill="#FFF1F2"/>
<mask id="mask1_906_4193" style="mask-type:alpha" maskUnits="userSpaceOnUse" x="-744" y="80" width="1509" height="339">
<path d="M-502.063 216.514L-737.712 392.798C-748.657 400.986 -742.867 418.394 -729.198 418.394H750.049C759.74 418.394 766.589 408.91 763.542 399.711L692.735 185.923C689.664 176.65 678.37 173.167 670.61 179.1L599.528 233.438C594.251 237.471 586.885 237.313 581.786 233.057L403.118 83.9012C398.135 79.7418 390.968 79.4856 385.702 83.2788L322.031 129.136L302.713 144.346L230.194 196.446C224.736 200.367 217.277 199.93 212.315 195.398L177.868 163.939C172.347 158.897 163.863 158.994 158.459 164.161L88.0964 231.442C82.817 236.49 74.5706 236.714 69.024 231.961L-82.855 101.806C-87.7758 97.5887 -94.926 97.2341 -100.24 100.943L-173.989 152.423C-176.375 154.088 -179.215 154.982 -182.125 154.982H-221.688C-222.466 154.982 -223.243 155.045 -224.011 155.173L-295.314 166.982L-366.521 183.934C-368.715 184.456 -370.753 185.493 -372.467 186.959L-427.843 234.311C-432.125 237.972 -438.164 238.759 -443.241 236.318L-487.388 215.086C-492.163 212.789 -497.82 213.34 -502.063 216.514Z" fill="#429EA3"/>
</mask>
<g mask="url(#mask1_906_4193)">
<path d="M-502.118 216.802L-729.993 395.358C-740.625 403.689 -734.734 420.76 -721.226 420.76H841.064C852.643 420.76 859.364 407.657 852.608 398.253L695.005 178.874C690.328 172.364 681.197 171.006 674.828 175.874L599.535 233.432C594.255 237.468 586.883 237.307 581.785 233.044L402.123 82.8148C397.223 78.7178 390.193 78.3919 384.935 82.0182L241.708 180.805C238.116 183.282 233.585 183.972 229.419 182.677L184.705 168.78C181.009 167.631 177.005 168.039 173.616 169.91L86.7257 217.884C81.5894 220.719 75.2385 220.108 70.7375 216.344L-73.5038 95.7301C-78.4262 91.614 -85.496 91.3062 -90.7576 94.979L-164.618 146.537C-167.005 148.202 -169.844 149.095 -172.754 149.095H-211.952C-212.972 149.095 -213.99 149.205 -214.987 149.423L-295.314 166.982L-366.522 183.934C-368.715 184.456 -370.753 185.493 -372.467 186.958L-427.843 234.311C-432.125 237.972 -438.165 238.759 -443.242 236.318L-487.191 215.181C-492.069 212.834 -497.857 213.463 -502.118 216.802Z" fill="#429EA3"/>
<path d="M116.377 232.334L61.1947 205.441C60.3897 205.049 59.7055 204.446 59.2143 203.697L-28.9677 69.2549C-29.8873 67.853 -31.451 67.0085 -33.1276 67.0085H-80.0062L-98.138 163.734C-98.5069 165.702 -100.019 167.257 -101.976 167.68L-132.705 174.324C-134.227 174.654 -135.508 175.677 -136.164 177.089L-179.751 270.795C-181.001 273.481 -184.307 274.487 -186.841 272.951L-377.824 157.2C-380.841 155.372 -384.75 157.177 -385.313 160.66L-402.499 266.805C-403.129 270.696 -407.819 272.344 -410.744 269.703L-517.638 173.179C-520.58 170.523 -525.295 172.205 -525.891 176.124L-553.071 354.957C-553.8 359.759 -560.272 360.777 -562.44 356.432L-703.307 74.2051C-704.958 70.8975 -702.552 67.0085 -698.856 67.0085H-80.0062H-33.1276H394.619C395.278 63.499 399.882 61.3436 403.005 64.361L405.745 67.0085H717.85C721.402 67.0085 723.81 70.6236 722.441 73.901L640.75 269.453C639.44 272.588 635.443 273.517 632.885 271.281L467.584 126.756L405.745 67.0085H394.619C394.445 67.9309 394.544 68.9467 395.014 69.9868L408.085 98.9214C408.844 100.6 408.612 102.561 407.484 104.017L396.957 117.6C396.385 118.338 395.618 118.9 394.742 119.222L377.926 125.407C375.774 126.199 374.442 128.359 374.7 130.637L385.162 222.84C385.578 226.507 381.997 229.335 378.526 228.08L357.316 220.409C354.073 219.236 350.65 221.638 350.65 225.087V323.983C350.65 328.516 345.08 330.687 342.012 327.349L194.154 166.495C191.631 163.752 187.053 165.536 187.053 169.263C187.053 170.4 186.58 171.486 185.746 172.26L121.941 231.507C120.435 232.906 118.224 233.234 116.377 232.334Z" fill="url(#paint3_linear_906_4193)"/>
</g>
<rect x="-33.1587" y="322.926" width="759.622" height="164.725" fill="#174C63"/>
<path d="M409.5 345.5C354.474 337.26 253.52 336.04 223 323C216.549 303.824 236.924 277.639 231.766 233.66C223.168 197.353 215.427 198.12 215.427 198.12C215.427 198.12 231.766 194.029 242.083 233.66C252.4 273.292 205.804 324.534 271.148 325.301C336.491 326.068 439.162 337.787 459.367 345.5C479.572 353.213 192.213 369.634 192.213 378.38C192.213 384.005 441.969 384.871 497.435 386.817C628.552 391.42 729.289 423.466 674.98 440H279.911C279.911 440 479.694 403.08 374.916 397.557C270.138 392.033 142.346 390.398 130.309 378.635C118.272 366.873 464.526 353.74 409.5 345.5Z" fill="url(#paint4_linear_906_4193)"/>
<path d="M417 346.5C385.734 340.976 221.5 337 221.5 323C221.5 306.125 237.103 277.639 231.937 233.66C223.326 197.353 215.573 198.12 215.573 198.12C215.573 198.12 231.937 194.029 242.27 233.66C252.603 273.292 218.945 320.443 262 323C305.055 325.557 445.847 334.227 461.347 346.5C476.847 358.773 192.324 369.634 192.324 378.38C192.324 384.005 448.06 383.592 503.611 385.539C634.929 390.142 756.057 423.466 701.664 440H280.156C280.156 440 463.024 403.847 358.085 398.324C253.147 392.8 142.38 390.398 130.325 378.635C118.269 366.873 448.266 352.024 417 346.5Z" fill="url(#paint5_linear_906_4193)"/>
<path d="M177.748 379.342H168.137" stroke="#95E6FF" stroke-width="2.74688" stroke-linecap="round"/>
<path d="M161.73 376.295H158.527" stroke="#95E6FF" stroke-width="2.74688" stroke-linecap="round"/>
<path d="M200.019 385.303H190.409" stroke="#95E6FF" stroke-width="2.74688" stroke-linecap="round"/>
<path d="M210.911 383.78H207.708" stroke="#95E6FF" stroke-width="2.74688" stroke-linecap="round"/>
<path d="M190.409 381.876H187.206" stroke="#95E6FF" stroke-width="2.74688" stroke-linecap="round"/>
<path d="M454.221 391.13H444.611" stroke="#95E6FF" stroke-width="2.74688" stroke-linecap="round"/>
<path d="M438.843 396.462H435.639" stroke="#95E6FF" stroke-width="2.74688" stroke-linecap="round"/>
<path d="M473.441 394.938H463.831" stroke="#95E6FF" stroke-width="2.74688" stroke-linecap="round"/>
<path d="M515.96 413.854H525.571" stroke="#95E6FF" stroke-width="4.95885" stroke-linecap="round"/>
<path d="M531.338 408.522H534.542" stroke="#95E6FF" stroke-width="4.95885" stroke-linecap="round"/>
<path d="M496.74 410.045H506.35" stroke="#95E6FF" stroke-width="4.95885" stroke-linecap="round"/>
<path d="M588.252 415.172H597.862" stroke="#95E6FF" stroke-width="4.95885" stroke-linecap="round"/>
<path d="M603.631 420.504H606.834" stroke="#95E6FF" stroke-width="4.95885" stroke-linecap="round"/>
<path d="M569.03 418.981H578.641" stroke="#95E6FF" stroke-width="4.95885" stroke-linecap="round"/>
<path d="M437.815 346.809H428.204" stroke="#95E6FF" stroke-width="2.74688" stroke-linecap="round"/>
<path d="M428.204 343H425.001" stroke="#95E6FF" stroke-width="2.74688" stroke-linecap="round"/>
<path d="M657.576 424.096H647.966" stroke="#95E6FF" stroke-width="3.483" stroke-linecap="round"/>
<path d="M647.965 420.288H644.761" stroke="#95E6FF" stroke-width="3.483" stroke-linecap="round"/>
<path fill-rule="evenodd" clip-rule="evenodd" d="M671.881 52.3615C674.422 53.1184 676.898 54.7943 680.101 58.1602C680.873 58.9708 682.141 59.0426 682.999 58.3243C686.865 55.0876 689.53 53.3434 692.093 52.5125C694.591 51.703 697.211 51.6922 701.135 52.4204C702.287 52.6341 706.28 51.8737 706.494 50.7219C706.708 49.5702 703.061 48.4633 701.909 48.2495C697.648 47.4589 694.232 47.3602 690.785 48.4772C689.662 48.8414 688.56 49.3274 687.444 49.9352C683.991 51.8165 679.788 51.5548 676.341 49.6623C675.286 49.0836 674.212 48.6297 673.091 48.296C669.565 47.2457 665.86 47.4714 661.391 48.245C660.237 48.4449 656.981 49.5426 657.181 50.6968C657.38 51.851 660.961 52.6247 662.115 52.4249C666.402 51.6825 669.315 51.5974 671.881 52.3615Z" fill="#1F5060"/>
<path fill-rule="evenodd" clip-rule="evenodd" d="M640.595 80.4647C643.137 81.2217 645.613 82.8976 648.816 86.2635C649.587 87.074 650.856 87.1458 651.714 86.4275C655.58 83.1908 658.245 81.4467 660.808 80.6157C663.306 79.8063 665.926 79.7955 669.85 80.5236C671.002 80.7373 674.995 79.9769 675.209 78.8252C675.422 77.6734 671.776 76.5665 670.624 76.3528C666.363 75.5622 662.946 75.4634 659.5 76.5804C658.377 76.9447 657.274 77.4306 656.159 78.0385C652.705 79.9198 648.503 79.658 645.055 77.7656C644.001 77.1868 642.927 76.7329 641.806 76.3992C638.28 75.3489 634.575 75.5746 630.106 76.3483C628.952 76.5481 625.696 77.6458 625.895 78.8C626.095 79.9543 629.676 80.728 630.83 80.5281C635.117 79.7858 638.03 79.7006 640.595 80.4647Z" fill="#1F5060"/>
</g>
</g>
<defs>
<linearGradient id="paint0_linear_906_4193" x1="358.5" y1="0" x2="358.5" y2="433" gradientUnits="userSpaceOnUse">
<stop stop-color="#454545" stop-opacity="0"/>
<stop offset="1" stop-color="#27117B"/>
</linearGradient>
<linearGradient id="paint1_linear_906_4193" x1="360" y1="-254" x2="360" y2="646" gradientUnits="userSpaceOnUse">
<stop stop-color="#54C2FF"/>
<stop offset="0.647214" stop-color="#DAEDFF"/>
</linearGradient>
<linearGradient id="paint2_linear_906_4193" x1="336.959" y1="42.9025" x2="336.959" y2="251.78" gradientUnits="userSpaceOnUse">
<stop stop-color="#3B4E6F"/>
<stop offset="1" stop-color="#3B4E6F" stop-opacity="0"/>
</linearGradient>
<linearGradient id="paint3_linear_906_4193" x1="9.21057" y1="46.8955" x2="9.21057" y2="351.548" gradientUnits="userSpaceOnUse">
<stop stop-color="#3B4E6F"/>
<stop offset="1" stop-color="#3B4E6F" stop-opacity="0"/>
</linearGradient>
<linearGradient id="paint4_linear_906_4193" x1="212.848" y1="190.705" x2="360.745" y2="511.905" gradientUnits="userSpaceOnUse">
<stop stop-color="#9CEDFF" stop-opacity="0.37"/>
<stop offset="1" stop-color="#27CBFF"/>
</linearGradient>
<linearGradient id="paint5_linear_906_4193" x1="212.99" y1="190.705" x2="360.739" y2="512.077" gradientUnits="userSpaceOnUse">
<stop stop-color="white" stop-opacity="0.2"/>
<stop offset="1" stop-color="#F6FDFF" stop-opacity="0.26"/>
</linearGradient>
<clipPath id="clip0_906_4193">
<rect width="715" height="433" rx="15" fill="white"/>
</clipPath>
<clipPath id="clip1_906_4193">
<rect width="720" height="585" fill="white" transform="translate(0 -152)"/>
</clipPath>
</defs>
</svg>
