<svg width="642" height="854" viewBox="0 0 642 854" fill="none" xmlns="http://www.w3.org/2000/svg">
<g clip-path="url(#clip0_488_2611)">
<rect width="642" height="854" rx="15" fill="#D9D9D9"/>
<g clip-path="url(#clip1_488_2611)">
<rect x="-20" width="916.584" height="1146.44" fill="url(#paint0_linear_488_2611)"/>
<path d="M288.582 252.476C476.297 389.625 586.402 459.981 717.791 672.918V485.665C535.667 423.548 449.206 357.495 288.582 252.476Z" fill="white"/>
<path fill-rule="evenodd" clip-rule="evenodd" d="M679.856 297.01C679.856 300.069 677.166 302.27 674.107 302.27H389.454C381.072 302.27 374.44 294.802 377.871 287.154C385.928 269.194 403.966 256.684 424.926 256.684C430.431 256.684 435.735 257.547 440.709 259.145C448.869 261.767 458.756 259.297 465.687 254.256C471.472 250.048 478.592 247.567 486.292 247.567C492.977 247.567 499.874 244.962 504.108 239.789C514.59 226.984 530.52 218.812 548.359 218.812C567.318 218.812 584.122 228.043 594.52 242.256C597.081 245.758 600.798 248.274 604.932 249.589C610.932 251.498 616.363 254.684 620.904 258.828C627.74 265.066 639.152 267.756 648.391 267.249C648.941 267.219 649.494 267.204 650.05 267.204C666.512 267.204 679.856 280.548 679.856 297.01Z" fill="#FFF1F2"/>
<path fill-rule="evenodd" clip-rule="evenodd" d="M-70.4959 438.073C-70.4959 440.148 -68.6706 441.641 -66.5954 441.641H121.446C129.828 441.641 136.466 434.008 131.966 426.936C125.76 417.186 114.857 410.717 102.443 410.717C100.529 410.717 98.6513 410.87 96.8209 411.166C88.3604 412.534 78.1215 409.884 70.2566 406.479C67.362 405.226 64.1692 404.532 60.8143 404.532C56.2791 404.532 51.6003 402.765 48.7275 399.255C41.6167 390.569 30.8102 385.026 18.7089 385.026C6.6417 385.026 -4.13799 390.538 -11.2494 399.182C-14.0058 402.532 -17.7274 405.028 -21.7496 406.654C-24.6451 407.825 -27.3105 409.445 -29.6591 411.429C-34.8873 415.846 -43.4321 417.853 -50.276 417.853C-61.4432 417.853 -70.4959 426.906 -70.4959 438.073Z" fill="#FFF1F2"/>
<path fill-rule="evenodd" clip-rule="evenodd" d="M717.621 452.455C717.621 454.031 716.235 455.164 714.659 455.164H575.677C567.294 455.164 560.698 447.322 566.155 440.959C571.025 435.282 578.25 431.685 586.316 431.685C586.44 431.685 586.563 431.686 586.686 431.687C595.255 431.804 606.074 428.934 614.49 427.315C615.602 427.101 616.749 426.989 617.923 426.989C621.367 426.989 624.919 425.647 627.1 422.983C632.499 416.388 640.704 412.179 649.892 412.179C658.72 412.179 666.641 416.065 672.037 422.22C674.594 425.137 677.931 427.362 681.463 428.967C683.333 429.816 685.065 430.917 686.615 432.226C690.585 435.579 697.073 437.103 702.269 437.103C710.748 437.103 717.621 443.977 717.621 452.455ZM559.767 458.377V458.093C559.767 458.14 559.767 458.187 559.767 458.235C559.767 458.282 559.767 458.33 559.767 458.377Z" fill="#FFF1F2"/>
<path fill-rule="evenodd" clip-rule="evenodd" d="M26.345 357.274C26.345 358.849 24.9591 359.983 23.3835 359.983H-115.599C-123.982 359.983 -130.578 352.14 -125.121 345.778C-120.251 340.1 -113.025 336.503 -104.959 336.503C-104.836 336.503 -104.713 336.504 -104.59 336.506C-96.0204 336.623 -85.2006 333.752 -76.7842 332.133C-75.6729 331.919 -74.5254 331.807 -73.3517 331.807C-69.9087 331.807 -66.3568 330.466 -64.1759 327.802C-58.7771 321.207 -50.5721 316.997 -41.384 316.997C-32.5557 316.997 -24.6351 320.883 -19.2392 327.038C-16.6816 329.955 -13.3451 332.181 -9.81262 333.785C-7.9425 334.634 -6.21088 335.735 -4.66096 337.044C-0.691284 340.397 5.79668 341.922 10.9931 341.922C19.4717 341.922 26.345 348.795 26.345 357.274Z" fill="#FFF1F2"/>
<path fill-rule="evenodd" clip-rule="evenodd" d="M503.393 293.158C500.032 294.159 496.757 296.376 492.52 300.828C491.5 301.9 489.822 301.995 488.687 301.045C483.574 296.764 480.049 294.457 476.659 293.358C473.356 292.287 469.89 292.273 464.7 293.236C463.177 293.519 457.895 292.513 457.613 290.99C457.33 289.466 462.153 288.002 463.677 287.72C469.312 286.674 473.831 286.543 478.389 288.021C480.708 288.772 482.957 289.916 485.314 291.452C488.272 293.38 492.128 293.166 495.018 291.137C497.213 289.596 499.425 288.486 501.791 287.781C506.455 286.392 511.356 286.69 517.266 287.714C518.793 287.978 523.1 289.43 522.835 290.956C522.571 292.483 517.836 293.506 516.309 293.242C510.638 292.26 506.786 292.147 503.393 293.158Z" fill="#758097"/>
<path fill-rule="evenodd" clip-rule="evenodd" d="M544.771 330.328C541.41 331.329 538.135 333.546 533.898 337.998C532.878 339.07 531.2 339.165 530.065 338.215C524.952 333.934 521.427 331.627 518.037 330.528C514.734 329.457 511.268 329.443 506.078 330.406C504.555 330.689 499.273 329.683 498.99 328.16C498.708 326.636 503.531 325.172 505.055 324.89C510.69 323.844 515.209 323.713 519.767 325.191C522.086 325.942 524.335 327.086 526.692 328.622C529.65 330.55 533.506 330.336 536.396 328.307C538.591 326.766 540.803 325.656 543.169 324.951C547.833 323.562 552.734 323.86 558.644 324.884C560.171 325.148 564.478 326.6 564.213 328.126C563.949 329.653 559.214 330.676 557.687 330.412C552.016 329.43 548.164 329.317 544.771 330.328Z" fill="#758097"/>
<path fill-rule="evenodd" clip-rule="evenodd" d="M112.768 210.936C114.503 211.467 116.192 212.64 118.378 214.997C118.899 215.559 119.774 215.612 120.356 215.112C122.994 212.846 124.812 211.624 126.562 211.042C128.266 210.475 130.054 210.468 132.731 210.978C133.517 211.127 136.243 210.595 136.388 209.788C136.534 208.982 134.046 208.206 133.26 208.057C130.352 207.503 128.021 207.434 125.669 208.216C125.387 208.31 125.107 208.415 124.828 208.532C121.508 209.922 117.722 209.672 114.371 208.359C114.115 208.259 113.857 208.169 113.595 208.089C111.188 207.354 108.66 207.512 105.611 208.053C104.823 208.193 102.601 208.962 102.737 209.771C102.873 210.579 105.317 211.121 106.104 210.981C109.03 210.461 111.018 210.401 112.768 210.936Z" fill="#758097"/>
<path fill-rule="evenodd" clip-rule="evenodd" d="M79.1042 195.507C80.8385 196.037 82.528 197.211 84.714 199.568C85.2352 200.13 86.1102 200.183 86.6915 199.683C89.3298 197.417 91.1481 196.195 92.8975 195.613C94.6016 195.046 96.3898 195.039 99.0674 195.549C99.8534 195.698 102.578 195.166 102.724 194.359C102.87 193.552 100.381 192.777 99.5956 192.628C96.688 192.074 94.3566 192.005 92.0049 192.787C91.723 192.881 91.4431 192.986 91.1639 193.103C87.8436 194.493 84.0584 194.243 80.7068 192.93C80.4512 192.83 80.1928 192.74 79.9306 192.66C77.5244 191.925 74.9957 192.083 71.9465 192.624C71.1588 192.764 68.9367 193.533 69.073 194.341C69.2094 195.15 71.6527 195.692 72.4403 195.552C75.3661 195.032 77.3537 194.972 79.1042 195.507Z" fill="#758097"/>
<path fill-rule="evenodd" clip-rule="evenodd" d="M15.9861 238.989C17.7204 239.519 19.4098 240.693 21.5958 243.05C22.117 243.612 22.992 243.665 23.5734 243.165C26.2116 240.898 28.03 239.677 29.7793 239.095C31.4835 238.528 33.2716 238.521 35.9492 239.03C36.7352 239.18 39.4603 238.648 39.6062 237.841C39.752 237.034 37.2633 236.259 36.4774 236.109C33.5699 235.556 31.2384 235.487 28.8868 236.269C28.6048 236.363 28.3249 236.468 28.0458 236.585C24.7254 237.975 20.9402 237.725 17.5886 236.412C17.3331 236.312 17.0746 236.222 16.8124 236.142C14.4062 235.406 11.8775 235.564 8.82829 236.106C8.04065 236.246 5.8185 237.015 5.95488 237.823C6.09125 238.632 8.53451 239.174 9.32215 239.034C12.2479 238.514 14.2356 238.454 15.9861 238.989Z" fill="#758097"/>
<path fill-rule="evenodd" clip-rule="evenodd" d="M62.2732 255.821C64.0075 256.351 65.6969 257.525 67.8829 259.882C68.4041 260.444 69.2791 260.496 69.8605 259.997C72.4987 257.73 74.3171 256.509 76.0665 255.927C77.7706 255.36 79.5587 255.352 82.2364 255.862C83.0223 256.012 85.7474 255.479 85.8933 254.673C86.0391 253.866 83.5504 253.091 82.7645 252.941C79.857 252.387 77.5255 252.318 75.1739 253.101C74.892 253.194 74.612 253.3 74.3329 253.417C71.0125 254.806 67.2273 254.557 63.8757 253.244C63.6202 253.144 63.3617 253.054 63.0995 252.974C60.6933 252.238 58.1646 252.396 55.1154 252.938C54.3278 253.078 52.1056 253.847 52.242 254.655C52.3784 255.463 54.8216 256.005 55.6093 255.865C58.535 255.345 60.5227 255.286 62.2732 255.821Z" fill="#758097"/>
<path fill-rule="evenodd" clip-rule="evenodd" d="M141.522 187.091C143.256 187.622 144.946 188.795 147.132 191.153C147.653 191.715 148.528 191.767 149.11 191.267C151.748 189.001 153.566 187.779 155.315 187.197C157.02 186.63 158.808 186.623 161.485 187.133C162.271 187.282 164.996 186.75 165.142 185.943C165.288 185.137 162.799 184.361 162.014 184.212C159.106 183.658 156.775 183.589 154.423 184.371C154.141 184.465 153.861 184.57 153.582 184.687C150.262 186.077 146.476 185.827 143.125 184.514C142.869 184.414 142.611 184.324 142.349 184.244C139.942 183.509 137.414 183.667 134.364 184.209C133.577 184.348 131.355 185.117 131.491 185.926C131.627 186.734 134.071 187.276 134.858 187.136C137.784 186.616 139.772 186.556 141.522 187.091Z" fill="#758097"/>
<path d="M-16.5432 626.468C1.75222 600.173 36.8431 591.753 65.0786 606.882L108.295 630.038C118.682 635.603 130.421 638.15 142.181 637.389L168.288 635.7C185.146 634.609 201.739 640.322 214.352 651.56L265.087 696.763H-65.4531L-16.5432 626.468Z" fill="#A9BECA"/>
<path fill-rule="evenodd" clip-rule="evenodd" d="M14.3 603.219L16.0578 605.517C21.9909 613.273 30.4364 618.723 39.9471 620.935L58.0894 625.154C66.1634 627.032 73.5029 631.252 79.187 637.286L83.7723 642.154C89.7555 648.505 98.3534 651.711 107.034 650.826L125.02 648.995C129.075 648.582 133.169 648.76 137.173 649.524L167.692 655.35C176.526 657.036 183.775 663.333 186.681 671.844C189.807 680.996 197.926 687.528 207.535 688.621L262.727 694.898L265.087 697H-65.4531L-16.5432 626.706C-8.71788 615.459 2.18005 607.482 14.3 603.219Z" fill="#758097"/>
<path d="M717.778 650.459C705.705 633.108 682.55 627.552 663.919 637.535L635.402 652.814C628.548 656.487 620.802 658.167 613.042 657.665L595.815 656.55C584.691 655.831 573.742 659.6 565.419 667.016L531.941 696.844H750.052L717.778 650.459Z" fill="#A9BECA"/>
<path fill-rule="evenodd" clip-rule="evenodd" d="M697.104 635.006C705.23 637.79 712.545 643.095 717.778 650.616L750.052 697.001H531.941L565.419 667.173C568.525 664.405 571.997 662.145 575.708 660.437L574.771 665.495C574.553 666.674 575.362 667.796 576.549 667.962L604.528 671.866L608.662 672.798C620.911 675.558 633.489 669.754 639.337 658.642L640.952 655.575C642.362 652.894 644.41 650.6 646.914 648.895L656.296 642.507C661.908 638.685 668.971 637.673 675.431 639.765C683.072 642.239 691.344 640.326 697.104 635.006Z" fill="#758097"/>
<circle cx="225.814" cy="544.576" r="47.3392" fill="url(#paint1_linear_488_2611)"/>
<path d="M260.088 232.418C260.053 232.384 260.025 232.344 260.003 232.301C259.529 231.356 260.298 230.263 261.348 230.39L261.589 230.419C261.664 230.428 261.736 230.454 261.799 230.496L270.322 236.128C271.357 236.812 271.579 238.238 270.801 239.203L270.554 239.509C269.772 240.48 268.323 240.562 267.436 239.685L260.088 232.418Z" fill="#2C3B5C"/>
<path d="M280.973 248.504C281.669 248.89 282.369 248.002 281.829 247.416L271.642 236.346C270.765 235.393 269.242 235.452 268.441 236.47L267.191 238.057C266.389 239.075 266.69 240.569 267.822 241.198L280.973 248.504Z" fill="#2C3B5C"/>
<path d="M280.434 247.859C280.38 247.506 280.599 247.169 280.943 247.076L287.085 245.404C287.277 245.351 287.481 245.43 287.588 245.598C287.72 245.806 287.663 246.082 287.458 246.219L283.438 248.927C283.28 249.034 283.172 249.2 283.139 249.388L282.319 254.07C282.281 254.289 282.096 254.451 281.874 254.462C281.632 254.473 281.421 254.3 281.384 254.06L280.434 247.859Z" fill="#2C3B5C"/>
<path d="M263.716 253.388C263.518 253.224 263.426 252.965 263.475 252.712L266.406 237.87C266.509 237.349 267.13 237.127 267.54 237.465L272.257 241.35C272.523 241.568 272.59 241.948 272.416 242.245L265.598 253.889C265.379 254.263 264.878 254.351 264.545 254.075L263.716 253.388Z" fill="#2C3B5C"/>
<path d="M282.324 230.514C282.124 230.348 281.849 230.307 281.61 230.407L267.663 236.186C267.175 236.389 267.078 237.039 267.486 237.375L272.208 241.265C272.474 241.484 272.86 241.477 273.118 241.249L283.242 232.323C283.565 232.038 283.557 231.531 283.224 231.256L282.324 230.514Z" fill="#2C3B5C"/>
<rect x="-20" y="689.399" width="682.386" height="164.109" fill="url(#paint2_linear_488_2611)"/>
<g filter="url(#filter0_f_488_2611)">
<rect x="-20" y="689.399" width="682.386" height="90.4705" fill="url(#paint3_linear_488_2611)" fill-opacity="0.3"/>
</g>
<path d="M318.739 696.412H329.259" stroke="#FFF1F2" stroke-width="3.50661" stroke-linecap="round"/>
<path d="M336.272 702.023H339.779" stroke="#FFF1F2" stroke-width="3.50661" stroke-linecap="round"/>
<path d="M248.604 699.218H259.124" stroke="#FFF1F2" stroke-width="3.50661" stroke-linecap="round"/>
<path d="M236.684 702.023H240.19" stroke="#FFF1F2" stroke-width="3.50661" stroke-linecap="round"/>
<path d="M259.125 705.529H262.632" stroke="#FFF1F2" stroke-width="3.50661" stroke-linecap="round"/>
<path d="M142.706 709.036H153.226" stroke="#FFF1F2" stroke-width="3.50661" stroke-linecap="round"/>
<path d="M159.539 699.218H163.046" stroke="#FFF1F2" stroke-width="3.50661" stroke-linecap="round"/>
<path d="M121.667 702.023H132.187" stroke="#FFF1F2" stroke-width="3.50661" stroke-linecap="round"/>
<path d="M388.871 702.023H399.391" stroke="#FFF1F2" stroke-width="3.50661" stroke-linecap="round"/>
<path d="M399.392 709.036H402.898" stroke="#FFF1F2" stroke-width="3.50661" stroke-linecap="round"/>
<path d="M249.308 724.465H238.788" stroke="#FFF1F2" stroke-width="3.50661" stroke-linecap="round"/>
<path d="M231.774 718.855H228.268" stroke="#FFF1F2" stroke-width="3.50661" stroke-linecap="round"/>
<path d="M429.545 706.932H419.025" stroke="#FFF1F2" stroke-width="3.50661" stroke-linecap="round"/>
<path d="M441.469 704.127H437.962" stroke="#FFF1F2" stroke-width="3.50661" stroke-linecap="round"/>
<path d="M419.026 700.62H415.52" stroke="#FFF1F2" stroke-width="3.50661" stroke-linecap="round"/>
<path d="M519.318 697.114H508.799" stroke="#FFF1F2" stroke-width="3.50661" stroke-linecap="round"/>
<path d="M502.485 706.932H498.979" stroke="#FFF1F2" stroke-width="3.50661" stroke-linecap="round"/>
<path d="M540.357 704.127H529.838" stroke="#FFF1F2" stroke-width="3.50661" stroke-linecap="round"/>
<path d="M310.324 716.049H299.804" stroke="#FFF1F2" stroke-width="3.50661" stroke-linecap="round"/>
<path d="M299.804 709.036H296.297" stroke="#FFF1F2" stroke-width="3.50661" stroke-linecap="round"/>
</g>
<rect width="686" height="869" fill="url(#paint4_linear_488_2611)" fill-opacity="0.1"/>
</g>
<defs>
<filter id="filter0_f_488_2611" x="-50.8582" y="658.541" width="744.102" height="152.187" filterUnits="userSpaceOnUse" color-interpolation-filters="sRGB">
<feFlood flood-opacity="0" result="BackgroundImageFix"/>
<feBlend mode="normal" in="SourceGraphic" in2="BackgroundImageFix" result="shape"/>
<feGaussianBlur stdDeviation="15.4291" result="effect1_foregroundBlur_488_2611"/>
</filter>
<linearGradient id="paint0_linear_488_2611" x1="438.292" y1="0" x2="438.292" y2="1146.44" gradientUnits="userSpaceOnUse">
<stop stop-color="#91C4FC"/>
<stop offset="0.647214" stop-color="#F0F3F6"/>
<stop offset="1" stop-color="#FFF0E8"/>
</linearGradient>
<linearGradient id="paint1_linear_488_2611" x1="225.814" y1="497.237" x2="171.461" y2="629.787" gradientUnits="userSpaceOnUse">
<stop offset="0.214967" stop-color="#FEFAF6"/>
<stop offset="1" stop-color="#FEF6FC" stop-opacity="0"/>
</linearGradient>
<linearGradient id="paint2_linear_488_2611" x1="321.193" y1="689.399" x2="321.193" y2="853.508" gradientUnits="userSpaceOnUse">
<stop stop-color="#64B7EC"/>
<stop offset="1" stop-color="#718EF9"/>
</linearGradient>
<linearGradient id="paint3_linear_488_2611" x1="321.193" y1="689.399" x2="321.193" y2="758.83" gradientUnits="userSpaceOnUse">
<stop offset="0.725" stop-color="#E1F3FF"/>
<stop offset="1" stop-color="#86C7F1"/>
</linearGradient>
<linearGradient id="paint4_linear_488_2611" x1="343" y1="0" x2="343" y2="869" gradientUnits="userSpaceOnUse">
<stop stop-color="#454545" stop-opacity="0"/>
<stop offset="1" stop-color="#27117B"/>
</linearGradient>
<clipPath id="clip0_488_2611">
<rect width="642" height="854" rx="15" fill="white"/>
</clipPath>
<clipPath id="clip1_488_2611">
<rect width="682.386" height="853.508" fill="white" transform="translate(-20)"/>
</clipPath>
</defs>
</svg>
