<svg width="715" height="433" viewBox="0 0 715 433" fill="none" xmlns="http://www.w3.org/2000/svg">
<g clip-path="url(#clip0_906_4014)">
<g clip-path="url(#clip1_906_4014)">
<rect y="-365" width="916.584" height="1146.44" fill="url(#paint0_linear_906_4014)"/>
<path d="M328.81 84.0258C528.83 230.165 646.152 305.133 786.153 532.028V332.501C592.091 266.312 499.962 195.929 328.81 84.0258Z" fill="white"/>
<path fill-rule="evenodd" clip-rule="evenodd" d="M745.731 131.479C745.731 134.738 742.864 137.084 739.605 137.084H436.294C427.362 137.084 420.295 129.127 423.951 120.978C432.536 101.84 451.757 88.5096 474.091 88.5096C479.957 88.5096 485.608 89.4292 490.908 91.1321C499.603 93.9256 510.138 91.2945 517.524 85.9226C523.687 81.4393 531.274 78.7947 539.479 78.7947C546.602 78.7947 553.951 76.0194 558.463 70.5075C569.632 56.8635 586.606 48.1557 605.615 48.1557C625.817 48.1557 643.722 57.992 654.802 73.1366C657.531 76.8675 661.491 79.5484 665.896 80.9501C672.289 82.9843 678.075 86.3794 682.914 90.7949C690.198 97.4412 702.358 100.307 712.204 99.7673C712.789 99.7352 713.378 99.719 713.971 99.719C731.512 99.719 745.731 113.938 745.731 131.479ZM419.165 143.716V143.155C419.165 143.249 419.165 143.342 419.165 143.436C419.165 143.529 419.165 143.622 419.165 143.716Z" fill="#FFF1F2"/>
<path fill-rule="evenodd" clip-rule="evenodd" d="M-53.805 281.789C-53.805 284 -51.8601 285.591 -49.6489 285.591H150.718C159.65 285.591 166.723 277.458 161.928 269.923C155.316 259.533 143.698 252.64 130.47 252.64C128.43 252.64 126.429 252.803 124.479 253.119C115.464 254.576 104.554 251.753 96.1736 248.125C93.0892 246.789 89.6872 246.049 86.1123 246.049C81.2797 246.049 76.2941 244.166 73.2329 240.427C65.656 231.171 54.1411 225.264 41.2466 225.264C28.3883 225.264 16.9019 231.138 9.3243 240.349C6.38733 243.919 2.42189 246.578 -1.86385 248.311C-4.94897 249.558 -7.78891 251.285 -10.2913 253.399C-15.8623 258.105 -24.9672 260.244 -32.2598 260.244C-44.1589 260.244 -53.805 269.89 -53.805 281.789ZM167.73 290.069V289.732C167.73 289.788 167.73 289.844 167.73 289.9C167.73 289.956 167.73 290.013 167.73 290.069Z" fill="#FFF1F2"/>
<path fill-rule="evenodd" clip-rule="evenodd" d="M785.974 297.114C785.974 298.793 784.497 300.001 782.818 300.001H634.725C625.793 300.001 618.765 291.644 624.579 284.864C629.768 278.815 637.467 274.982 646.062 274.982C646.194 274.982 646.325 274.983 646.456 274.985C655.587 275.109 667.115 272.051 676.083 270.326C677.267 270.098 678.49 269.979 679.741 269.979C683.41 269.979 687.195 268.549 689.519 265.71C695.272 258.683 704.015 254.198 713.805 254.198C723.212 254.198 731.651 258.338 737.401 264.896C740.126 268.005 743.682 270.376 747.446 272.086C749.439 272.991 751.285 274.164 752.936 275.559C757.166 279.132 764.079 280.756 769.615 280.756C778.65 280.756 785.974 288.08 785.974 297.114Z" fill="#FFF1F2"/>
<path fill-rule="evenodd" clip-rule="evenodd" d="M49.3829 195.693C49.3829 197.372 47.9062 198.58 46.2273 198.58H-101.866C-110.798 198.58 -117.826 190.223 -112.011 183.444C-106.823 177.394 -99.1233 173.562 -90.5287 173.562C-90.3974 173.562 -90.2663 173.562 -90.1355 173.564C-81.0037 173.689 -69.4744 170.63 -60.5062 168.905C-59.3221 168.677 -58.0994 168.558 -56.8488 168.558C-53.1801 168.558 -49.3952 167.128 -47.0713 164.289C-41.3186 157.262 -32.5758 152.777 -22.7854 152.777C-13.3786 152.777 -4.9389 156.917 0.810699 163.475C3.53619 166.584 7.09159 168.955 10.8559 170.665C12.8487 171.57 14.6939 172.743 16.3455 174.138C20.5751 177.711 27.4878 179.335 33.0246 179.335C42.059 179.335 49.3829 186.659 49.3829 195.693Z" fill="#FFF1F2"/>
<path fill-rule="evenodd" clip-rule="evenodd" d="M557.702 127.375C554.12 128.442 550.631 130.804 546.116 135.547C545.029 136.689 543.241 136.791 542.032 135.778C536.584 131.217 532.828 128.759 529.215 127.588C525.696 126.447 522.003 126.432 516.473 127.458C514.85 127.759 509.222 126.687 508.92 125.064C508.619 123.441 513.759 121.881 515.382 121.58C521.387 120.466 526.202 120.326 531.059 121.901C533.53 122.702 535.927 123.92 538.438 125.557C541.589 127.612 545.699 127.383 548.778 125.221C551.117 123.579 553.473 122.396 555.995 121.645C560.965 120.165 566.187 120.483 572.484 121.573C574.111 121.855 578.7 123.402 578.419 125.029C578.137 126.655 573.091 127.746 571.465 127.464C565.422 126.418 561.317 126.298 557.702 127.375Z" fill="#758097"/>
<path fill-rule="evenodd" clip-rule="evenodd" d="M601.792 166.981C598.21 168.048 594.721 170.41 590.207 175.154C589.119 176.296 587.332 176.397 586.123 175.385C580.674 170.823 576.918 168.365 573.306 167.194C569.786 166.053 566.093 166.038 560.563 167.064C558.94 167.366 553.312 166.294 553.011 164.671C552.71 163.048 557.849 161.488 559.472 161.186C565.477 160.072 570.292 159.933 575.149 161.507C577.62 162.308 580.017 163.527 582.528 165.164C585.68 167.218 589.789 166.99 592.868 164.828C595.207 163.186 597.564 162.003 600.086 161.252C605.055 159.772 610.277 160.09 616.575 161.18C618.201 161.462 622.791 163.009 622.509 164.635C622.227 166.262 617.182 167.352 615.555 167.071C609.512 166.024 605.407 165.905 601.792 166.981Z" fill="#758097"/>
<path fill-rule="evenodd" clip-rule="evenodd" d="M141.472 39.7635C143.319 40.3284 145.12 41.579 147.449 44.0908C148.004 44.6896 148.937 44.7455 149.556 44.2132C152.367 41.7978 154.305 40.4963 156.169 39.8762C157.985 39.2721 159.89 39.2641 162.743 39.8074C163.581 39.9669 166.485 39.3994 166.64 38.54C166.795 37.6805 164.144 36.8544 163.306 36.695C160.208 36.1049 157.724 36.0313 155.218 36.8648C154.917 36.9648 154.619 37.077 154.322 37.2015C150.784 38.6823 146.75 38.4162 143.179 37.0176C142.907 36.9109 142.631 36.815 142.352 36.7296C139.788 35.9458 137.094 36.1142 133.845 36.6916C133.005 36.8407 130.637 37.6599 130.783 38.5212C130.928 39.3826 133.532 39.9599 134.371 39.8108C137.488 39.2568 139.606 39.1933 141.472 39.7635Z" fill="#758097"/>
<path fill-rule="evenodd" clip-rule="evenodd" d="M105.6 23.323C107.448 23.8879 109.249 25.1386 111.578 27.6503C112.133 28.2492 113.066 28.305 113.685 27.7728C116.496 25.3574 118.434 24.0558 120.298 23.4357C122.114 22.8317 124.019 22.8236 126.872 23.367C127.71 23.5265 130.613 22.959 130.769 22.0995C130.924 21.24 128.272 20.414 127.435 20.2545C124.337 19.6645 121.853 19.5908 119.347 20.4244C119.046 20.5243 118.748 20.6365 118.451 20.761C114.913 22.2419 110.879 21.9758 107.308 20.5771C107.036 20.4705 106.76 20.3745 106.481 20.2891C103.917 19.5054 101.223 19.6738 97.9735 20.2512C97.1342 20.4003 94.7664 21.2194 94.9117 22.0808C95.057 22.9421 97.6604 23.5195 98.4997 23.3703C101.617 22.8164 103.735 22.7528 105.6 23.323Z" fill="#758097"/>
<path fill-rule="evenodd" clip-rule="evenodd" d="M38.3451 69.6552C40.193 70.2201 41.9932 71.4708 44.3226 73.9825C44.8779 74.5814 45.8102 74.6372 46.4297 74.105C49.2409 71.6896 51.1785 70.388 53.0425 69.7679C54.8583 69.1639 56.7637 69.1558 59.6168 69.6992C60.4543 69.8587 63.3581 69.2912 63.5135 68.4317C63.6689 67.5722 61.0171 66.7462 60.1796 66.5867C57.0815 65.9967 54.5972 65.923 52.0914 66.7566C51.791 66.8565 51.4927 66.9687 51.1953 67.0932C47.6573 68.5741 43.6239 68.308 40.0526 66.9093C39.7804 66.8027 39.5049 66.7067 39.2256 66.6213C36.6617 65.8376 33.9672 66.006 30.7181 66.5833C29.8788 66.7325 27.511 67.5516 27.6563 68.413C27.8016 69.2743 30.405 69.8517 31.2443 69.7025C34.3618 69.1486 36.4798 69.085 38.3451 69.6552Z" fill="#758097"/>
<path fill-rule="evenodd" clip-rule="evenodd" d="M87.6659 87.5903C89.5138 88.1552 91.314 89.4058 93.6434 91.9176C94.1987 92.5165 95.131 92.5723 95.7505 92.04C98.5617 89.6246 100.499 88.3231 102.363 87.703C104.179 87.0989 106.084 87.0909 108.938 87.6342C109.775 87.7937 112.679 87.2263 112.834 86.3668C112.99 85.5073 110.338 84.6813 109.5 84.5218C106.402 83.9318 103.918 83.8581 101.412 84.6916C101.112 84.7916 100.814 84.9038 100.516 85.0283C96.9781 86.5091 92.9447 86.2431 89.3734 84.8444C89.1012 84.7378 88.8257 84.6418 88.5464 84.5564C85.9825 83.7727 83.288 83.9411 80.0389 84.5184C79.1996 84.6676 76.8318 85.4867 76.9771 86.348C77.1224 87.2094 79.7258 87.7867 80.5651 87.6376C83.6826 87.0836 85.8006 87.0201 87.6659 87.5903Z" fill="#758097"/>
<path fill-rule="evenodd" clip-rule="evenodd" d="M172.11 14.3555C173.958 14.9204 175.758 16.171 178.088 18.6828C178.643 19.2816 179.575 19.3375 180.195 18.8052C183.006 16.3898 184.944 15.0883 186.808 14.4682C188.623 13.8641 190.529 13.8561 193.382 14.3994C194.219 14.5589 197.123 13.9915 197.279 13.132C197.434 12.2725 194.782 11.4464 193.945 11.287C190.847 10.6969 188.362 10.6233 185.857 11.4568C185.556 11.5568 185.258 11.669 184.96 11.7935C181.422 13.2743 177.389 13.0082 173.818 11.6096C173.546 11.5029 173.27 11.407 172.991 11.3216C170.427 10.5378 167.732 10.7062 164.483 11.2836C163.644 11.4327 161.276 12.2519 161.421 13.1132C161.567 13.9746 164.17 14.5519 165.009 14.4028C168.127 13.8488 170.245 13.7853 172.11 14.3555Z" fill="#758097"/>
<path d="M3.6839 302.534C23.1786 274.515 60.5696 265.543 90.6561 281.664L136.705 306.337C147.774 312.268 160.281 314.981 172.812 314.17L200.631 312.37C218.594 311.208 236.274 317.295 249.715 329.27L303.775 377.436H-48.4321L3.6839 302.534Z" fill="#A9BECA"/>
<path fill-rule="evenodd" clip-rule="evenodd" d="M36.5482 277.761L38.4211 280.209C44.7431 288.473 53.7422 294.281 63.8764 296.638L83.2078 301.133C91.8111 303.134 99.6318 307.631 105.688 314.061L110.574 319.247C116.95 326.015 126.111 329.431 135.361 328.489L154.525 326.537C158.847 326.096 163.209 326.287 167.475 327.101L199.995 333.308C209.408 335.105 217.133 341.815 220.229 350.883C223.559 360.636 232.211 367.596 242.45 368.76L301.26 375.449L303.775 377.689H-48.4321L3.6839 302.787C12.022 290.803 23.6341 282.303 36.5482 277.761Z" fill="#758097"/>
<path d="M786.14 328.097C773.277 309.609 748.604 303.688 728.751 314.326L698.365 330.607C691.061 334.52 682.808 336.311 674.539 335.776L656.183 334.588C644.329 333.821 632.663 337.838 623.794 345.74L588.121 377.523H820.53L786.14 328.097Z" fill="#A9BECA"/>
<path fill-rule="evenodd" clip-rule="evenodd" d="M764.11 311.631C772.769 314.598 780.563 320.25 786.139 328.264L820.528 377.689H588.12L623.792 345.906C627.103 342.957 630.803 340.549 634.757 338.729L633.759 344.119C633.526 345.375 634.388 346.571 635.653 346.748L665.466 350.907L669.87 351.9C682.923 354.842 696.325 348.657 702.557 336.817L704.277 333.548C705.781 330.691 707.962 328.247 710.63 326.431L720.628 319.623C726.607 315.552 734.134 314.473 741.016 316.702C749.159 319.338 757.973 317.3 764.11 311.631Z" fill="#758097"/>
<circle cx="261.927" cy="215.274" r="50.4423" fill="url(#paint1_linear_906_4014)"/>
<path d="M298.448 62.6528C298.412 62.6167 298.381 62.5749 298.358 62.529C297.853 61.5215 298.673 60.3571 299.792 60.4922L300.048 60.5233C300.128 60.5329 300.204 60.561 300.271 60.6053L309.354 66.6064C310.456 67.3349 310.693 68.8543 309.864 69.8834L309.601 70.2094C308.768 71.2436 307.223 71.3307 306.279 70.3968L298.448 62.6528Z" fill="#2C3B5C"/>
<path d="M320.702 79.7933C321.444 80.2054 322.189 79.2583 321.615 78.634L310.76 66.8393C309.825 65.8234 308.203 65.8859 307.349 66.9706L306.017 68.6622C305.163 69.7469 305.483 71.3384 306.69 72.0088L320.702 79.7933Z" fill="#2C3B5C"/>
<path d="M320.128 79.106C320.07 78.7305 320.304 78.3715 320.67 78.2717L327.215 76.4902C327.42 76.4345 327.637 76.5184 327.751 76.6973C327.892 76.9189 327.831 77.2125 327.613 77.3592L323.329 80.2446C323.16 80.3581 323.045 80.5353 323.01 80.7355L322.137 85.7249C322.096 85.9576 321.899 86.1309 321.663 86.1419C321.405 86.1539 321.18 85.9694 321.141 85.7143L320.128 79.106Z" fill="#2C3B5C"/>
<path d="M302.313 84.998C302.102 84.8231 302.003 84.5467 302.057 84.2777L305.179 68.4628C305.289 67.908 305.951 67.6712 306.387 68.0307L311.414 72.1703C311.697 72.4036 311.769 72.808 311.583 73.1247L304.318 85.532C304.085 85.9297 303.551 86.0239 303.197 85.7299L302.313 84.998Z" fill="#2C3B5C"/>
<path d="M322.143 60.6241C321.93 60.448 321.636 60.4042 321.381 60.51L306.521 66.6685C306 66.8844 305.896 67.5773 306.332 67.9357L311.364 72.0798C311.647 72.3131 312.058 72.3062 312.333 72.0635L323.12 62.5521C323.465 62.2481 323.456 61.7079 323.101 61.4153L322.143 60.6241Z" fill="#2C3B5C"/>
<rect y="369.59" width="727.117" height="174.867" fill="url(#paint2_linear_906_4014)"/>
<g filter="url(#filter0_f_906_4014)">
<rect y="369.59" width="727.117" height="96.4009" fill="url(#paint3_linear_906_4014)" fill-opacity="0.3"/>
</g>
<path d="M360.944 377.063H372.153" stroke="#FFF1F2" stroke-width="3.73647" stroke-linecap="round"/>
<path d="M379.626 383.041H383.363" stroke="#FFF1F2" stroke-width="3.73647" stroke-linecap="round"/>
<path d="M286.213 380.052H297.423" stroke="#FFF1F2" stroke-width="3.73647" stroke-linecap="round"/>
<path d="M273.51 383.041H277.246" stroke="#FFF1F2" stroke-width="3.73647" stroke-linecap="round"/>
<path d="M297.423 386.778H301.159" stroke="#FFF1F2" stroke-width="3.73647" stroke-linecap="round"/>
<path d="M173.372 390.514H184.581" stroke="#FFF1F2" stroke-width="3.73647" stroke-linecap="round"/>
<path d="M191.308 380.052H195.044" stroke="#FFF1F2" stroke-width="3.73647" stroke-linecap="round"/>
<path d="M150.954 383.041H162.163" stroke="#FFF1F2" stroke-width="3.73647" stroke-linecap="round"/>
<path d="M435.673 383.041H446.882" stroke="#FFF1F2" stroke-width="3.73647" stroke-linecap="round"/>
<path d="M446.883 390.514H450.619" stroke="#FFF1F2" stroke-width="3.73647" stroke-linecap="round"/>
<path d="M286.961 406.955H275.752" stroke="#FFF1F2" stroke-width="3.73647" stroke-linecap="round"/>
<path d="M268.278 400.976H264.542" stroke="#FFF1F2" stroke-width="3.73647" stroke-linecap="round"/>
<path d="M479.015 388.272H467.805" stroke="#FFF1F2" stroke-width="3.73647" stroke-linecap="round"/>
<path d="M491.719 385.283H487.982" stroke="#FFF1F2" stroke-width="3.73647" stroke-linecap="round"/>
<path d="M467.806 381.547H464.07" stroke="#FFF1F2" stroke-width="3.73647" stroke-linecap="round"/>
<path d="M574.67 377.81H563.461" stroke="#FFF1F2" stroke-width="3.73647" stroke-linecap="round"/>
<path d="M556.735 388.272H552.998" stroke="#FFF1F2" stroke-width="3.73647" stroke-linecap="round"/>
<path d="M597.089 385.283H585.88" stroke="#FFF1F2" stroke-width="3.73647" stroke-linecap="round"/>
<path d="M351.977 397.987H340.767" stroke="#FFF1F2" stroke-width="3.73647" stroke-linecap="round"/>
<path d="M340.767 390.514H337.03" stroke="#FFF1F2" stroke-width="3.73647" stroke-linecap="round"/>
</g>
<rect width="717" height="433" fill="url(#paint4_linear_906_4014)" fill-opacity="0.1"/>
</g>
<defs>
<filter id="filter0_f_906_4014" x="-32.8809" y="336.709" width="792.879" height="162.163" filterUnits="userSpaceOnUse" color-interpolation-filters="sRGB">
<feFlood flood-opacity="0" result="BackgroundImageFix"/>
<feBlend mode="normal" in="SourceGraphic" in2="BackgroundImageFix" result="shape"/>
<feGaussianBlur stdDeviation="16.4405" result="effect1_foregroundBlur_906_4014"/>
</filter>
<linearGradient id="paint0_linear_906_4014" x1="458.292" y1="-365" x2="458.292" y2="781.436" gradientUnits="userSpaceOnUse">
<stop stop-color="#91C4FC"/>
<stop offset="0.647214" stop-color="#F0F3F6"/>
<stop offset="1" stop-color="#FFF0E8"/>
</linearGradient>
<linearGradient id="paint1_linear_906_4014" x1="261.927" y1="164.831" x2="204.011" y2="306.07" gradientUnits="userSpaceOnUse">
<stop offset="0.214967" stop-color="#FEFAF6"/>
<stop offset="1" stop-color="#FEF6FC" stop-opacity="0"/>
</linearGradient>
<linearGradient id="paint2_linear_906_4014" x1="363.558" y1="369.59" x2="363.558" y2="544.457" gradientUnits="userSpaceOnUse">
<stop stop-color="#64B7EC"/>
<stop offset="1" stop-color="#718EF9"/>
</linearGradient>
<linearGradient id="paint3_linear_906_4014" x1="363.558" y1="369.59" x2="363.558" y2="443.572" gradientUnits="userSpaceOnUse">
<stop offset="0.725" stop-color="#E1F3FF"/>
<stop offset="1" stop-color="#86C7F1"/>
</linearGradient>
<linearGradient id="paint4_linear_906_4014" x1="358.5" y1="0" x2="358.5" y2="433" gradientUnits="userSpaceOnUse">
<stop stop-color="#454545" stop-opacity="0"/>
<stop offset="1" stop-color="#27117B"/>
</linearGradient>
<clipPath id="clip0_906_4014">
<rect width="715" height="433" rx="15" fill="white"/>
</clipPath>
<clipPath id="clip1_906_4014">
<rect width="720" height="585" fill="white" transform="translate(0 -100)"/>
</clipPath>
</defs>
</svg>
