<svg width="725" height="907" viewBox="0 0 725 907" fill="none" xmlns="http://www.w3.org/2000/svg">
<g clip-path="url(#clip0_507_3347)">
<rect width="973" height="1217" fill="url(#paint0_linear_507_3347)"/>
<path fill-rule="evenodd" clip-rule="evenodd" d="M520.328 537.116C520.151 537.415 519.828 537.594 519.481 537.594H338.595C338.589 537.594 338.583 537.592 338.579 537.587C338.573 537.58 338.562 537.578 338.554 537.583C338.551 537.585 338.547 537.587 338.544 537.589C338.538 537.592 338.532 537.594 338.526 537.594H200.503C199.983 537.594 199.549 537.196 199.514 536.678C199.43 535.437 199.387 534.185 199.387 532.922C199.387 502.701 223.886 478.202 254.107 478.202C265.681 478.202 276.416 481.796 285.257 487.928C285.759 488.276 286.456 488.111 286.754 487.578C293.125 476.208 305.29 468.524 319.25 468.524C323.19 468.524 326.986 469.136 330.55 470.27C331.021 470.42 331.534 470.216 331.77 469.782C342.04 450.852 362.088 438 385.137 438C407.703 438 427.392 450.318 437.845 468.597C437.999 468.866 438.267 469.05 438.573 469.099C453.819 471.534 466.555 481.497 472.848 495.056C473.126 495.655 473.892 495.847 474.424 495.458C479.656 491.63 486.108 489.37 493.087 489.37C510.562 489.37 524.728 503.536 524.728 521.01C524.728 526.892 523.123 532.399 520.328 537.116Z" fill="#FFF1F2"/>
<path fill-rule="evenodd" clip-rule="evenodd" d="M-53.3999 338.273C-53.3337 338.753 -52.9162 339.1 -52.4316 339.1H165.734C166.332 339.1 166.797 338.578 166.711 337.986C164.093 320.048 148.646 306.272 129.981 306.272C122.263 306.272 115.096 308.628 109.158 312.658C108.652 313.002 107.956 312.837 107.649 312.308C103.28 304.774 95.1264 299.707 85.7898 299.707C83.214 299.707 80.7282 300.093 78.3872 300.809C77.9148 300.954 77.402 300.751 77.1635 300.318C70.1574 287.609 56.6303 279 41.0925 279C25.8409 279 12.5267 287.295 5.41531 299.62C5.26073 299.888 4.99272 300.072 4.68755 300.122C-5.44337 301.793 -13.9213 308.366 -18.2285 317.324C-18.5144 317.919 -19.2803 318.111 -19.8202 317.732C-23.3068 315.285 -27.5547 313.848 -32.138 313.848C-43.9925 313.848 -53.6024 323.458 -53.6024 335.313C-53.6024 336.317 -53.5334 337.305 -53.3999 338.273ZM167.101 343.562V343.224C167.101 343.281 167.102 343.337 167.102 343.393C167.102 343.45 167.101 343.506 167.101 343.562Z" fill="#FFF1F2"/>
<path fill-rule="evenodd" clip-rule="evenodd" d="M863.512 537.074C863.436 537.552 863.02 537.9 862.535 537.9H392.381C391.783 537.9 391.319 537.376 391.396 536.783C396.457 497.69 429.875 467.492 470.347 467.492C487.376 467.492 503.156 472.838 516.1 481.944C516.6 482.295 517.297 482.13 517.59 481.594C526.788 464.799 544.627 453.411 565.126 453.411C570.995 453.411 576.647 454.344 581.939 456.071C582.409 456.225 582.923 456.02 583.157 455.585C598.042 427.856 627.314 409 660.989 409C693.901 409 722.605 427.01 737.787 453.711C737.939 453.98 738.208 454.165 738.514 454.212C760.998 457.725 779.757 472.484 788.854 492.554C789.126 493.155 789.892 493.348 790.42 492.952C798.115 487.168 807.683 483.74 818.051 483.74C843.476 483.74 864.087 504.351 864.087 529.776C864.087 532.259 863.89 534.697 863.512 537.074Z" fill="#FFF1F2"/>
<path fill-rule="evenodd" clip-rule="evenodd" d="M113.504 536.803C113.444 537.284 113.026 537.631 112.541 537.631H-52.6305C-53.2281 537.631 -53.6936 537.109 -53.6017 536.519C-51.501 523.029 -39.8333 512.707 -25.7547 512.707C-19.9949 512.707 -14.6386 514.434 -10.1759 517.4C-9.66702 517.738 -8.97109 517.573 -8.65687 517.049C-5.30652 511.461 0.809196 507.722 7.79839 507.722C9.68127 507.722 11.5008 507.993 13.2199 508.499C13.6937 508.638 14.206 508.436 14.4473 508.005C19.7949 498.455 30.0105 492 41.7337 492C53.2712 492 63.3485 498.252 68.7623 507.553C68.9179 507.821 69.1855 508.005 69.4905 508.056C77.0242 509.338 83.3407 514.192 86.6353 520.814C86.9291 521.405 87.6951 521.597 88.2423 521.229C90.8395 519.479 93.9678 518.458 97.3346 518.458C106.335 518.458 113.631 525.755 113.631 534.755C113.631 535.449 113.588 536.132 113.504 536.803Z" fill="#FFF1F2"/>
<rect x="404" y="329" width="227" height="146" fill="#FFFBF7"/>
<rect x="641" y="329" width="105" height="146" fill="#DDE6D8"/>
<rect x="404" y="551" width="227" height="146" fill="#FFFBF7"/>
<rect x="641" y="551" width="105" height="146" fill="#DDE6D8"/>
<rect x="404" y="773" width="227" height="146" fill="#FFFBF7"/>
<rect x="641" y="773" width="105" height="146" fill="#DDE6D8"/>
<rect x="405" y="373" width="326" height="7" fill="#FF4343"/>
<rect x="641" y="373" width="90" height="7" fill="#B41515"/>
<rect x="405" y="570" width="326" height="7" fill="#FF4343"/>
<rect x="641" y="570" width="90" height="7" fill="#B41515"/>
<rect x="405" y="796" width="326" height="7" fill="#FF4343"/>
<rect x="641" y="796" width="90" height="7" fill="#B41515"/>
<rect x="621" y="327" width="20" height="594" fill="#FF7474"/>
<rect x="641" y="327" width="10" height="594" fill="#FF5B5B"/>
<path d="M642.045 417.403L621 336L651 343.035V437L642.045 417.403Z" fill="#FF0C0C" fill-opacity="0.3"/>
<rect x="404" y="327" width="20" height="594" fill="#FF7474"/>
<rect x="424" y="327" width="10" height="594" fill="#FF5B5B"/>
<path d="M424.5 417L401 336L434.5 343V436.5L424.5 417Z" fill="#FF0C0C" fill-opacity="0.3"/>
<path d="M633 339.793C533.787 372.154 458.712 371.984 359.499 339.793C359.5 333.5 359.499 326 359.499 320C428.065 284.566 505.25 261.872 556.179 207H610.082C641.093 260.401 707.92 280.245 776.5 321V334.293C724.944 363.75 684.556 364.43 633 339.793Z" fill="#FF8F98"/>
<path d="M633.5 322L614.5 220.5L776.5 303V334.5C722 367 674 361.5 633 340L633.5 322Z" fill="#FF5E5E"/>
<path d="M632.5 320C523.906 355.58 438.594 350.393 330 315C330 308 330 301.5 330 292C419.5 292 499.762 233.781 555 174H614C644.016 225.919 730 292 801 291.5V308.5C744.57 340.886 688.931 347.087 632.5 320Z" fill="#728680"/>
<path d="M634 320.5C611.5 299.5 588.255 228.994 588.5 174L614.5 174C657 242 737.461 280.361 802.5 299.5C747.5 338 703.5 349.5 634 320.5Z" fill="#366167"/>
<path d="M632.501 537C533.288 569.361 458.213 569.191 359 537C359.001 530.707 359 523.207 359 517.207C367.501 509.707 383.001 493.5 393.001 473H741.5C741.5 510.355 750 542.5 750 542.5C735.096 559.396 683.373 561.31 632.501 537Z" fill="#FF8F98"/>
<path d="M633 537V516.5L776.5 519V535.5C722 568 674 558.5 633 537Z" fill="#FF5E5E"/>
<path d="M632.5 516C523.906 551.58 438.594 544.393 330 509C330 502 330 495.5 330 486C360 486 378.5 481.5 392.5 475H632.5C670.5 475 730 475.5 801 475V506C744.57 538.386 688.931 543.087 632.5 516Z" fill="#728680"/>
<path d="M633 517C628.5 506 624 490.5 624 474.5L742.5 474.5C750 483.5 756.5 490.5 791 505C758 533 702.5 546 633 517Z" fill="#366167"/>
<rect x="496" y="409" width="36" height="64" rx="11" fill="#366167"/>
<rect x="496" y="635" width="36" height="64" rx="11" fill="#366167"/>
<rect x="496" y="861" width="36" height="64" rx="11" fill="#366167"/>
<path d="M632.501 761C533.288 793.361 458.213 793.191 359 761C359.001 754.707 359 747.207 359 741.207C367.501 733.707 383.001 717.5 393.001 697H741.5C741.5 734.355 750 766.5 750 766.5C735.096 783.396 683.373 785.31 632.501 761Z" fill="#FF8F98"/>
<path d="M632.5 761.5V740L776.5 743V759.5C722 792 673.5 783 632.5 761.5Z" fill="#FF5E5E"/>
<path d="M632.5 740C523.906 775.58 438.594 768.393 330 733C330 726 330 719.5 330 710C360 710 378.5 705.5 392.5 699H632.5C670.5 699 730 699.5 801 699V730C744.57 762.386 682.5 762 632.5 740Z" fill="#728680"/>
<path d="M632.5 740C628 729 623 715 623 699L741.5 699C749 708 755.5 715 790 729.5C757 757.5 702 769 632.5 740Z" fill="#366167"/>
<rect x="379" y="430" width="262" height="7" fill="#FF4343"/>
<rect x="379" y="448" width="262" height="7" fill="#FF4343"/>
<rect x="379" y="430" width="14.5556" height="43" fill="#FF4343"/>
<rect x="501.683" y="430" width="7.27778" height="43" fill="#FF4343"/>
<rect x="438.262" y="430" width="7.27778" height="43" fill="#FF4343"/>
<rect x="565.103" y="430" width="7.27778" height="43" fill="#FF4343"/>
<rect x="626.444" y="430" width="14.5556" height="43" fill="#FF4343"/>
<rect x="379" y="466" width="262" height="7" fill="#FF4343"/>
<rect x="641" y="430" width="136" height="7" fill="#B41515"/>
<rect x="641" y="448" width="136" height="7" fill="#B41515"/>
<rect x="641" y="430" width="7.55556" height="43" fill="#B41515"/>
<rect x="704.683" y="430" width="3.77778" height="43" fill="#B41515"/>
<rect x="671.762" y="430" width="3.77778" height="43" fill="#B41515"/>
<rect x="641" y="466" width="136" height="7" fill="#B41515"/>
<rect x="641" y="656" width="136" height="7" fill="#B41515"/>
<rect x="641" y="674" width="136" height="7" fill="#B41515"/>
<rect x="641" y="656" width="7.55556" height="43" fill="#B41515"/>
<rect x="704.683" y="656" width="3.77778" height="43" fill="#B41515"/>
<rect x="671.762" y="656" width="3.77778" height="43" fill="#B41515"/>
<rect x="641" y="692" width="136" height="7" fill="#B41515"/>
<rect x="641" y="882" width="136" height="7" fill="#B41515"/>
<rect x="641" y="900" width="136" height="7" fill="#B41515"/>
<rect x="641" y="882" width="7.55556" height="43" fill="#B41515"/>
<rect x="704.683" y="882" width="3.77778" height="43" fill="#B41515"/>
<rect x="671.762" y="882" width="3.77778" height="43" fill="#B41515"/>
<rect x="379" y="656" width="262" height="7" fill="#FF4343"/>
<rect x="379" y="674" width="262" height="7" fill="#FF4343"/>
<rect x="379" y="656" width="14.5556" height="43" fill="#FF4343"/>
<rect x="501.683" y="656" width="7.27778" height="43" fill="#FF4343"/>
<rect x="438.262" y="656" width="7.27778" height="43" fill="#FF4343"/>
<rect x="565.103" y="656" width="7.27778" height="43" fill="#FF4343"/>
<rect x="626.444" y="656" width="14.5556" height="43" fill="#FF4343"/>
<rect x="379" y="692" width="262" height="7" fill="#FF4343"/>
<rect x="379" y="882" width="262" height="7" fill="#FF4343"/>
<rect x="379" y="900" width="262" height="7" fill="#FF4343"/>
<rect x="379" y="882" width="14.5556" height="43" fill="#FF4343"/>
<rect x="501.683" y="882" width="7.27778" height="43" fill="#FF4343"/>
<rect x="438.262" y="882" width="7.27778" height="43" fill="#FF4343"/>
<rect x="565.103" y="882" width="7.27778" height="43" fill="#FF4343"/>
<rect x="626.444" y="882" width="14.5556" height="43" fill="#FF4343"/>
<rect x="555" y="144" width="59" height="30" fill="#728680"/>
<rect x="588" y="144" width="27" height="30" fill="#366167"/>
<rect x="579" width="11" height="132" fill="#366167"/>
<rect x="565" y="111" width="39" height="12" fill="#728680"/>
<rect x="593" y="111" width="11" height="12" fill="#366167"/>
<rect x="570" y="90" width="29" height="12" fill="#728680"/>
<rect x="590" y="90" width="9" height="12" fill="#366167"/>
<rect x="570" y="69" width="29" height="12" fill="#728680"/>
<rect x="590" y="69" width="9" height="12" fill="#366167"/>
<rect x="570" y="48" width="29" height="12" fill="#728680"/>
<rect x="590" y="48" width="9" height="12" fill="#366167"/>
<rect x="570" y="27" width="29" height="12" fill="#728680"/>
<rect x="590" y="27" width="9" height="12" fill="#366167"/>
<rect x="570" y="6" width="29" height="12" fill="#728680"/>
<rect x="590" y="6" width="9" height="12" fill="#366167"/>
<rect x="559" y="132" width="51" height="12" fill="#728680"/>
<rect x="590" y="132" width="20" height="12" fill="#366167"/>
</g>
<defs>
<linearGradient id="paint0_linear_507_3347" x1="486.5" y1="0" x2="487" y2="725.5" gradientUnits="userSpaceOnUse">
<stop stop-color="#ACAFFF"/>
<stop offset="0.371305" stop-color="#FFDAEC"/>
<stop offset="0.697656" stop-color="#FFEEDA"/>
</linearGradient>
<clipPath id="clip0_507_3347">
<rect width="724.387" height="906.042" fill="white"/>
</clipPath>
</defs>
</svg>
