<svg width="715" height="433" viewBox="0 0 715 433" fill="none" xmlns="http://www.w3.org/2000/svg">
<g clip-path="url(#clip0_905_2527)">
<g clip-path="url(#clip1_905_2527)">
<rect x="-25.3662" width="916.557" height="1146.4" fill="url(#paint0_linear_905_2527)"/>
<path fill-rule="evenodd" clip-rule="evenodd" d="M546.408 121.415C546.243 121.698 545.938 121.867 545.612 121.867H430.625C430.621 121.867 430.617 121.865 430.615 121.862C430.611 121.857 430.603 121.856 430.598 121.859C430.596 121.86 430.593 121.862 430.591 121.863C430.587 121.865 430.583 121.867 430.579 121.867H342.991C342.501 121.867 342.092 121.492 342.063 121.003C342.021 120.305 342 119.601 342 118.892C342 99.6527 357.597 84.0559 376.836 84.0559C384.078 84.0559 390.803 86.2654 396.375 90.0469C396.851 90.3701 397.507 90.2147 397.796 89.7168C401.897 82.6481 409.548 77.8944 418.308 77.8944C420.725 77.8944 423.057 78.256 425.253 78.9282C425.698 79.0643 426.181 78.8728 426.406 78.4653C432.981 66.5403 445.675 58.462 460.255 58.462C474.568 58.462 487.062 66.2459 493.736 77.8114C493.882 78.0637 494.134 78.2373 494.421 78.2847C503.926 79.8534 511.88 86.0202 515.923 94.4241C516.192 94.9842 516.913 95.1654 517.422 94.8084C520.694 92.5128 524.679 91.1654 528.979 91.1654C540.104 91.1654 549.123 100.184 549.123 111.309C549.123 114.992 548.134 118.445 546.408 121.415Z" fill="#FFF1F2"/>
<path fill-rule="evenodd" clip-rule="evenodd" d="M192.124 60.8762C192.181 61.3292 192.575 61.6562 193.031 61.6562H351.082C351.645 61.6562 352.083 61.1647 351.997 60.6084C349.994 47.6946 338.828 37.8102 325.353 37.8102C319.836 37.8102 314.707 39.4666 310.435 42.3093C309.956 42.6281 309.3 42.4727 309.005 41.9788C305.801 36.6251 299.946 33.0408 293.253 33.0408C291.447 33.0408 289.702 33.3019 288.053 33.7883C287.607 33.92 287.124 33.729 286.897 33.3229C281.783 24.1806 272.006 18 260.786 18C249.745 18 240.102 23.9843 234.923 32.8862C234.777 33.138 234.525 33.3113 234.238 33.3601C227.021 34.5853 220.97 39.2378 217.82 45.5845C217.544 46.1412 216.822 46.3222 216.307 45.9744C213.819 44.2942 210.82 43.3131 207.592 43.3131C198.981 43.3131 192 50.2937 192 58.9046C192 59.5724 192.042 60.2305 192.124 60.8762Z" fill="#FFF1F2"/>
<path fill-rule="evenodd" clip-rule="evenodd" d="M764.839 121.283C764.771 121.734 764.379 122.061 763.922 122.061H465.208C464.645 122.061 464.207 121.568 464.283 121.01C467.654 96.288 488.853 77.2379 514.501 77.2379C525.214 77.2379 535.152 80.5621 543.338 86.2353C543.811 86.5632 544.467 86.4079 544.749 85.9059C550.652 75.3836 561.916 68.2732 574.839 68.2732C578.484 68.2732 581.996 68.8386 585.293 69.8864C585.737 70.0274 586.221 69.8353 586.443 69.4263C595.957 51.8993 614.523 40 635.868 40C656.767 40 675.001 51.4067 684.685 68.3339C684.83 68.5868 685.083 68.7606 685.371 68.8066C699.484 71.0622 711.273 80.2808 717.105 92.829C717.367 93.3925 718.088 93.5737 718.59 93.2072C723.433 89.6698 729.402 87.5819 735.859 87.5819C752.045 87.5819 765.166 100.703 765.166 116.89C765.166 118.383 765.055 119.85 764.839 121.283Z" fill="#FFF1F2"/>
<path fill-rule="evenodd" clip-rule="evenodd" d="M151.556 138.205C151.499 138.658 151.105 138.985 150.649 138.985H-4.94236C-5.5053 138.985 -5.94383 138.493 -5.85721 137.937C-3.87855 125.23 7.11236 115.505 20.3745 115.505C25.8001 115.505 30.8455 117.133 35.0493 119.926C35.5287 120.245 36.1843 120.09 36.4803 119.596C39.6363 114.333 45.3972 110.81 51.9808 110.81C53.7545 110.81 55.4685 111.066 57.088 111.542C57.5344 111.674 58.0169 111.483 58.2442 111.077C63.2815 102.081 72.9046 96 83.9479 96C94.8163 96 104.309 101.89 109.409 110.651C109.555 110.903 109.808 111.076 110.095 111.125C117.192 112.332 123.142 116.905 126.245 123.143C126.522 123.7 127.244 123.881 127.759 123.534C130.206 121.886 133.153 120.924 136.324 120.924C144.803 120.924 151.676 127.797 151.676 136.275C151.676 136.929 151.635 137.573 151.556 138.205Z" fill="#FFF1F2"/>
<path d="M88.94 242.891C76.3854 237.167 39.1976 229.154 -9.11621 242.891V382.714H568.831V242.891C494.023 209.137 449.345 237.985 436.358 256.628C391.681 248.778 363.194 272.327 354.536 285.083C336.353 275.271 315.357 289.172 307.131 297.348C306.092 261.632 272.498 255.32 255.83 256.628C246.479 230.724 218.166 225.229 205.179 225.719C205.179 214.926 197.386 193.634 166.216 194.811C127.253 196.283 139.592 216.888 118.811 215.907C102.187 215.122 91.9705 233.569 88.94 242.891Z" fill="url(#paint1_linear_905_2527)"/>
<path d="M88.94 242.891C76.3854 237.167 39.1976 229.154 -9.11621 242.891V382.714H568.831V242.891C494.023 209.137 449.345 237.985 436.358 256.628C391.681 248.778 363.194 272.327 354.536 285.083C336.353 275.271 315.357 289.172 307.131 297.348C306.092 261.632 272.498 255.32 255.83 256.628C246.479 230.724 218.166 225.229 205.179 225.719C205.179 214.926 197.386 193.634 166.216 194.811C127.253 196.283 139.592 216.888 118.811 215.907C102.187 215.122 91.9705 233.569 88.94 242.891Z" fill="url(#paint2_linear_905_2527)"/>
<path d="M211.109 285.179C198.554 279.456 161.367 271.442 113.053 285.179V425.003H691V285.179C616.192 251.425 571.514 280.273 558.527 298.916C513.849 291.067 485.363 314.616 476.705 327.372C458.522 317.56 437.526 331.46 429.3 339.637C428.261 303.921 394.667 297.608 377.999 298.916C368.648 273.012 340.335 267.517 327.348 268.008C327.348 257.215 319.555 235.922 288.385 237.1C249.422 238.571 261.761 259.177 240.98 258.196C224.356 257.411 214.139 275.858 211.109 285.179Z" fill="url(#paint3_linear_905_2527)"/>
<path d="M446.342 269.203C458.897 263.48 496.085 255.466 544.398 269.203V409.027H-33.549V269.203C41.2595 235.45 85.9368 264.297 98.9244 282.941C143.602 275.091 172.088 298.64 180.746 311.396C198.929 301.584 219.925 315.484 228.151 323.661C229.19 287.945 262.784 281.632 279.452 282.941C288.803 257.036 317.116 251.542 330.103 252.032C330.103 241.239 337.896 219.946 369.066 221.124C408.029 222.596 395.691 243.201 416.471 242.22C433.095 241.435 443.312 259.882 446.342 269.203Z" fill="url(#paint4_linear_905_2527)"/>
<path d="M397.595 289.89C408.734 283.176 441.729 273.776 484.595 289.89V453.91H-28.1833V289.89C38.1897 250.295 77.8292 284.135 89.3523 306.004C128.992 296.796 154.266 324.421 161.948 339.384C178.08 327.874 196.709 344.18 204.007 353.772C204.929 311.875 234.735 304.47 249.523 306.004C257.82 275.618 282.94 269.172 294.464 269.747C294.464 257.086 301.377 232.109 329.033 233.49C363.602 235.217 352.655 259.388 371.092 258.237C385.842 257.316 394.907 278.955 397.595 289.89Z" fill="url(#paint5_linear_905_2527)"/>
<path d="M492.538 312.58C503.655 305.896 536.586 296.539 579.368 312.58V475.858H67.5877V312.58C133.832 273.164 173.394 306.851 184.895 328.621C224.457 319.455 249.682 346.954 257.349 361.85C273.45 350.392 292.043 366.624 299.327 376.172C300.247 334.465 329.995 327.094 344.754 328.621C353.035 298.372 378.106 291.956 389.607 292.528C389.607 279.925 396.507 255.06 424.109 256.435C458.611 258.154 447.685 282.216 466.086 281.07C480.807 280.153 489.855 301.695 492.538 312.58Z" fill="url(#paint6_linear_905_2527)"/>
<path d="M492.538 351.487C503.655 344.803 536.586 335.446 579.368 351.487V514.765H67.5877V351.487C133.832 312.071 173.394 345.758 184.895 367.529C224.457 358.362 249.682 385.862 257.349 400.757C273.45 389.299 292.043 405.531 299.327 415.08C300.247 373.372 329.995 366.001 344.754 367.529C353.035 337.279 378.106 330.863 389.607 331.436C389.607 318.832 396.507 293.968 424.109 295.343C458.611 297.061 447.685 321.123 466.086 319.977C480.807 319.061 489.855 340.602 492.538 351.487Z" fill="url(#paint7_linear_905_2527)"/>
<rect x="565.961" y="145.886" width="104.836" height="73.6153" fill="#FFFBF7"/>
<rect x="675.416" y="145.886" width="48.4923" height="73.6153" fill="#DDE6D8"/>
<rect x="565.961" y="257.822" width="104.836" height="73.6153" fill="#FFFBF7"/>
<rect x="675.416" y="257.822" width="48.4923" height="73.6153" fill="#DDE6D8"/>
<rect x="565.961" y="369.758" width="104.836" height="73.6153" fill="#FFFBF7"/>
<rect x="675.416" y="369.758" width="48.4923" height="73.6153" fill="#DDE6D8"/>
<rect x="566.424" y="168.072" width="150.557" height="3.5295" fill="#FF4343"/>
<rect x="675.417" y="168.072" width="41.5648" height="3.5295" fill="#B41515"/>
<rect x="566.424" y="267.402" width="150.557" height="3.5295" fill="#FF4343"/>
<rect x="675.417" y="267.402" width="41.5648" height="3.5295" fill="#B41515"/>
<rect x="566.424" y="381.355" width="150.557" height="3.5295" fill="#FF4343"/>
<rect x="675.417" y="381.355" width="41.5648" height="3.5295" fill="#B41515"/>
<rect x="666.18" y="144.878" width="9.23662" height="299.503" fill="#FF7474"/>
<rect x="675.416" y="144.878" width="4.61831" height="299.503" fill="#FF5B5B"/>
<path d="M675.899 190.46L666.18 149.416L680.035 152.963V200.341L675.899 190.46Z" fill="#FF0C0C" fill-opacity="0.3"/>
<rect x="565.964" y="144.878" width="9.23662" height="299.503" fill="#FF7474"/>
<rect x="575.199" y="144.878" width="4.61831" height="299.503" fill="#FF5B5B"/>
<path d="M575.431 190.257L564.578 149.416L580.049 152.945V200.089L575.431 190.257Z" fill="#FF0C0C" fill-opacity="0.3"/>
<path d="M671.72 151.328C625.901 167.646 591.229 167.56 545.409 151.328C545.409 148.155 545.409 144.374 545.409 141.349C577.075 123.482 612.721 112.039 636.242 84.3724H661.136C675.458 111.298 706.321 121.304 737.993 141.853V148.555C714.183 163.408 695.531 163.751 671.72 151.328Z" fill="#FF8F98"/>
<path d="M671.951 142.357L663.176 91.1791L737.992 132.777V148.66C712.823 165.046 690.655 162.273 671.72 151.433L671.951 142.357Z" fill="#FF5E5E"/>
<path d="M671.489 141.348C621.337 159.288 581.937 156.673 531.785 138.827L531.785 127.23C573.119 127.23 610.186 97.8755 635.697 67.7332H662.945C676.807 93.9113 716.518 127.23 749.308 126.978V135.55C723.246 151.88 697.551 155.006 671.489 141.348Z" fill="#728680"/>
<path d="M672.181 141.601C661.79 131.012 651.055 95.4621 651.168 67.7332L663.175 67.7332C682.803 102.02 719.963 121.362 750 131.012C724.599 150.424 704.278 156.223 672.181 141.601Z" fill="#366167"/>
<path d="M671.489 250.763C625.67 267.08 590.997 266.994 545.178 250.763C545.178 247.59 545.178 243.809 545.178 240.783C549.104 237.002 556.262 228.83 560.88 218.493H721.828C721.828 237.328 725.754 253.536 725.754 253.536C718.87 262.055 694.983 263.02 671.489 250.763Z" fill="#FF8F98"/>
<path d="M671.72 250.763V240.427L737.992 241.687V250.007C712.823 266.394 690.655 261.604 671.72 250.763Z" fill="#FF5E5E"/>
<path d="M671.489 240.174C621.337 258.114 581.937 254.49 531.785 236.645L531.785 225.048C545.64 225.048 554.184 222.779 560.65 219.502H671.489C689.039 219.502 716.518 219.754 749.308 219.502V235.132C723.246 251.462 697.551 253.832 671.489 240.174Z" fill="#728680"/>
<path d="M671.719 240.679C669.641 235.132 667.562 227.317 667.562 219.25L722.289 219.25C725.753 223.788 728.755 227.317 744.688 234.628C729.448 248.746 703.816 255.301 671.719 240.679Z" fill="#366167"/>
<rect x="608.45" y="186.223" width="16.6259" height="32.2697" rx="7.15545" fill="#366167"/>
<rect x="608.45" y="300.176" width="16.6259" height="32.2697" rx="7.15545" fill="#366167"/>
<rect x="608.45" y="414.129" width="16.6259" height="32.2697" rx="7.15545" fill="#366167"/>
<path d="M671.489 363.707C625.67 380.024 590.997 379.938 545.178 363.707C545.178 360.534 545.178 356.753 545.178 353.727C549.104 349.946 556.262 341.774 560.88 331.437H721.828C721.828 350.272 725.754 366.48 725.754 366.48C718.87 374.999 694.983 375.964 671.489 363.707Z" fill="#FF8F98"/>
<path d="M671.49 363.959V353.119L737.994 354.631V362.951C712.824 379.338 690.425 374.8 671.49 363.959Z" fill="#FF5E5E"/>
<path d="M671.489 353.119C621.337 371.059 581.937 367.435 531.785 349.589L531.785 337.992C545.64 337.992 554.184 335.723 560.65 332.446H671.489C689.039 332.446 716.518 332.698 749.308 332.446V348.076C723.246 364.406 694.581 364.211 671.489 353.119Z" fill="#728680"/>
<path d="M671.49 353.119C669.412 347.572 667.103 340.513 667.103 332.446L721.83 332.446C725.293 336.984 728.295 340.513 744.228 347.824C728.988 361.942 703.587 367.741 671.49 353.119Z" fill="#366167"/>
<rect x="554.417" y="196.812" width="121" height="3.5295" fill="#FF4343"/>
<rect x="554.417" y="205.888" width="121" height="3.5295" fill="#FF4343"/>
<rect x="554.417" y="196.812" width="6.72221" height="21.6812" fill="#FF4343"/>
<rect x="611.076" y="196.812" width="3.3611" height="21.6812" fill="#FF4343"/>
<rect x="581.786" y="196.812" width="3.3611" height="21.6812" fill="#FF4343"/>
<rect x="640.365" y="196.812" width="3.3611" height="21.6812" fill="#FF4343"/>
<rect x="668.694" y="196.812" width="6.72221" height="21.6812" fill="#FF4343"/>
<rect x="554.417" y="214.964" width="121" height="3.5295" fill="#FF4343"/>
<rect x="675.415" y="196.812" width="62.809" height="3.5295" fill="#B41515"/>
<rect x="675.415" y="205.888" width="62.809" height="3.5295" fill="#B41515"/>
<rect x="675.415" y="196.812" width="3.48939" height="21.6812" fill="#B41515"/>
<rect x="704.825" y="196.812" width="1.7447" height="21.6812" fill="#B41515"/>
<rect x="689.622" y="196.812" width="1.7447" height="21.6812" fill="#B41515"/>
<rect x="675.415" y="214.963" width="62.809" height="3.5295" fill="#B41515"/>
<rect x="675.415" y="310.764" width="62.809" height="3.5295" fill="#B41515"/>
<rect x="675.415" y="319.84" width="62.809" height="3.5295" fill="#B41515"/>
<rect x="675.415" y="310.764" width="3.48939" height="21.6812" fill="#B41515"/>
<rect x="704.825" y="310.764" width="1.7447" height="21.6812" fill="#B41515"/>
<rect x="689.622" y="310.764" width="1.7447" height="21.6812" fill="#B41515"/>
<rect x="675.415" y="328.916" width="62.809" height="3.5295" fill="#B41515"/>
<rect x="675.415" y="424.717" width="62.809" height="3.5295" fill="#B41515"/>
<rect x="675.415" y="424.717" width="3.48939" height="21.6812" fill="#B41515"/>
<rect x="704.825" y="424.717" width="1.7447" height="21.6812" fill="#B41515"/>
<rect x="689.622" y="424.717" width="1.7447" height="21.6812" fill="#B41515"/>
<rect x="554.417" y="310.764" width="121" height="3.5295" fill="#FF4343"/>
<rect x="554.417" y="319.84" width="121" height="3.5295" fill="#FF4343"/>
<rect x="554.417" y="310.764" width="6.72221" height="21.6812" fill="#FF4343"/>
<rect x="611.076" y="310.764" width="3.3611" height="21.6812" fill="#FF4343"/>
<rect x="581.786" y="310.764" width="3.3611" height="21.6812" fill="#FF4343"/>
<rect x="640.365" y="310.764" width="3.3611" height="21.6812" fill="#FF4343"/>
<rect x="668.694" y="310.764" width="6.72221" height="21.6812" fill="#FF4343"/>
<rect x="554.417" y="328.916" width="121" height="3.5295" fill="#FF4343"/>
<rect x="554.417" y="424.717" width="121" height="3.5295" fill="#FF4343"/>
<rect x="554.417" y="424.717" width="6.72221" height="21.6812" fill="#FF4343"/>
<rect x="611.076" y="424.717" width="3.3611" height="21.6812" fill="#FF4343"/>
<rect x="581.786" y="424.717" width="3.3611" height="21.6812" fill="#FF4343"/>
<rect x="640.365" y="424.717" width="3.3611" height="21.6812" fill="#FF4343"/>
<rect x="668.694" y="424.717" width="6.72221" height="21.6812" fill="#FF4343"/>
<rect x="635.698" y="52.6069" width="27.248" height="15.1264" fill="#728680"/>
<rect x="650.938" y="52.6069" width="12.4694" height="15.1264" fill="#366167"/>
<rect x="646.781" y="-20" width="5.08014" height="66.5563" fill="#366167"/>
<rect x="640.315" y="35.9677" width="18.0114" height="6.05057" fill="#728680"/>
<rect x="653.247" y="35.9677" width="5.08014" height="6.05057" fill="#366167"/>
<rect x="642.625" y="25.3792" width="13.3931" height="6.05057" fill="#728680"/>
<rect x="651.861" y="25.3792" width="4.15648" height="6.05057" fill="#366167"/>
<rect x="642.625" y="14.7908" width="13.3931" height="6.05057" fill="#728680"/>
<rect x="651.861" y="14.7908" width="4.15648" height="6.05057" fill="#366167"/>
<rect x="642.625" y="4.2024" width="13.3931" height="6.05057" fill="#728680"/>
<rect x="651.861" y="4.2024" width="4.15648" height="6.05057" fill="#366167"/>
<rect x="637.545" y="46.5563" width="23.5534" height="6.05057" fill="#728680"/>
<rect x="651.862" y="46.5563" width="9.23662" height="6.05057" fill="#366167"/>
<path d="M502.456 368.962C473.511 349.491 450.668 368.962 442.836 389.004C442.836 389.004 404.656 378.874 404.656 413.78C378.876 399.406 363.539 428.124 363.539 428.124C343.633 408.256 305.453 424.212 301.537 447.358V475.068L807.016 469.852V368.962C759.54 344.606 731.185 365.422 722.943 378.874C694.589 373.21 676.51 390.202 671.015 399.406C659.476 392.326 646.15 402.356 640.93 408.256C640.271 382.485 618.95 377.93 608.372 378.874C602.438 360.182 584.469 356.218 576.227 356.572C576.227 348.784 562.272 339.452 551.829 356.572C545.955 341.408 530.944 334.27 521.414 349.491C510.864 348.925 495.375 349.491 502.456 368.962Z" fill="url(#paint8_linear_905_2527)"/>
<path d="M48.2379 392.783C48.8145 370.394 67.4587 366.437 76.7088 367.257C83.7678 345.169 123.165 345.203 131.225 364.267C142.071 345.081 165.586 352.416 169.829 373.541C182.131 352.932 211.825 352.932 221.465 376.058C221.465 376.058 254.853 367.257 254.853 397.582C277.396 385.095 290.808 410.044 290.808 410.044C308.216 392.783 341.603 406.646 345.027 426.754V450.828L-96.9995 446.297V358.645C-55.4825 337.486 -30.6877 355.57 -23.4798 367.257C1.31503 362.336 17.1242 377.098 21.9294 385.095C32.0203 378.944 43.6729 387.658 48.2379 392.783Z" fill="url(#paint9_linear_905_2527)"/>
<path d="M367.786 390.16C342.393 373.072 322.353 390.16 315.482 407.75C315.482 407.75 281.987 398.859 281.987 429.495C259.371 416.88 245.915 442.085 245.915 442.085C228.452 424.647 194.957 438.651 191.521 458.965V483.286L634.974 478.708V390.16C593.323 368.784 568.449 387.053 561.217 398.859C536.343 393.888 520.482 408.802 515.662 416.88C505.538 410.666 493.848 419.469 489.268 424.647C488.69 402.029 469.986 398.031 460.706 398.859C455.499 382.455 439.736 378.975 432.504 379.286C432.504 372.451 420.262 364.26 411.101 379.286C405.948 365.977 392.779 359.712 384.418 373.072C375.162 372.575 361.574 373.072 367.786 390.16Z" fill="url(#paint10_linear_905_2527)"/>
<path d="M282.233 211.69C276.691 203.653 300.131 210.487 300.127 220.996C284.278 221.783 270.158 210.034 282.233 211.69Z" fill="#FFF1F2"/>
<path d="M220.148 373.318C228.973 377.493 218.45 355.46 208.08 357.158C209.857 372.926 223.728 384.968 220.148 373.318Z" fill="#FFF1F2"/>
<path d="M39.8764 177.388C35.5301 169.731 53.4982 177.137 53.6555 186.802C41.5898 186.769 30.6491 175.288 39.8764 177.388Z" fill="#FFDDEC"/>
<path d="M225.774 127.47C224.711 119.807 236.239 131.277 233.515 139.378C224.32 135.793 219.352 122.999 225.774 127.47Z" fill="#FFDDEC"/>
<path d="M253.574 200.442C261.286 199.825 249.166 210.669 241.237 207.479C245.349 198.508 258.41 194.29 253.574 200.442Z" fill="#FFDDEC"/>
<path d="M87.7849 203.268C95.4968 202.652 83.3774 213.495 75.4475 210.306C79.5598 201.334 92.6209 197.117 87.7849 203.268Z" fill="#FFDDEC"/>
<path d="M78.9954 181.267C66.7254 179.58 89.2504 166.953 100.612 174.603C91.2314 187.076 69.4084 189.128 78.9954 181.267Z" fill="#FFDDEC"/>
<path d="M645.631 289.391C649.978 297.048 632.01 289.642 631.852 279.977C643.918 280.01 654.859 291.491 645.631 289.391Z" fill="#FFDDEC"/>
<path d="M431.934 266.337C424.222 266.954 436.341 256.11 444.271 259.3C440.159 268.271 427.098 272.489 431.934 266.337Z" fill="#FFDDEC"/>
<path d="M597.723 263.511C590.011 264.127 602.13 253.284 610.06 256.473C605.948 265.445 592.887 269.663 597.723 263.511Z" fill="#FFDDEC"/>
<path d="M606.512 285.512C618.782 287.199 596.257 299.826 584.896 292.175C594.276 279.703 616.099 277.651 606.512 285.512Z" fill="#FFDDEC"/>
<rect width="710" height="856" fill="url(#paint11_linear_905_2527)" fill-opacity="0.4"/>
</g>
</g>
<defs>
<linearGradient id="paint0_linear_905_2527" x1="432.913" y1="0" x2="433.384" y2="683.415" gradientUnits="userSpaceOnUse">
<stop stop-color="#ACAFFF"/>
<stop offset="0.371305" stop-color="#FFDAEC"/>
<stop offset="0.697656" stop-color="#FFEEDA"/>
</linearGradient>
<linearGradient id="paint1_linear_905_2527" x1="280.327" y1="258.197" x2="279.857" y2="382.714" gradientUnits="userSpaceOnUse">
<stop stop-color="#FFDCEB"/>
<stop offset="1" stop-color="#FDB0E7"/>
</linearGradient>
<linearGradient id="paint2_linear_905_2527" x1="280.327" y1="258.197" x2="279.857" y2="382.714" gradientUnits="userSpaceOnUse">
<stop stop-color="#FFDCEB"/>
<stop offset="1" stop-color="#FDB0E7"/>
</linearGradient>
<linearGradient id="paint3_linear_905_2527" x1="402.496" y1="300.486" x2="402.026" y2="425.003" gradientUnits="userSpaceOnUse">
<stop stop-color="#FFDCEB"/>
<stop offset="1" stop-color="#FDB0E7"/>
</linearGradient>
<linearGradient id="paint4_linear_905_2527" x1="254.955" y1="284.51" x2="255.425" y2="409.027" gradientUnits="userSpaceOnUse">
<stop stop-color="#FFDCEB"/>
<stop offset="1" stop-color="#FDB0E7"/>
</linearGradient>
<linearGradient id="paint5_linear_905_2527" x1="228.206" y1="233.435" x2="228.206" y2="453.91" gradientUnits="userSpaceOnUse">
<stop stop-color="#FFBDD9"/>
<stop offset="1" stop-color="#FF94EE"/>
</linearGradient>
<linearGradient id="paint6_linear_905_2527" x1="323.478" y1="256.381" x2="323.478" y2="475.858" gradientUnits="userSpaceOnUse">
<stop stop-color="#FFBDD9"/>
<stop offset="1" stop-color="#FF94EE"/>
</linearGradient>
<linearGradient id="paint7_linear_905_2527" x1="323.478" y1="295.288" x2="323.478" y2="514.765" gradientUnits="userSpaceOnUse">
<stop stop-color="#FFBDD9"/>
<stop offset="1" stop-color="#FF94EE"/>
</linearGradient>
<linearGradient id="paint8_linear_905_2527" x1="623.621" y1="334.236" x2="623.621" y2="469.852" gradientUnits="userSpaceOnUse">
<stop stop-color="#CA769A"/>
<stop offset="1" stop-color="#9B3F97"/>
</linearGradient>
<linearGradient id="paint9_linear_905_2527" x1="63.3743" y1="328.477" x2="63.3743" y2="446.297" gradientUnits="userSpaceOnUse">
<stop stop-color="#CA769A"/>
<stop offset="1" stop-color="#9B3F97"/>
</linearGradient>
<linearGradient id="paint10_linear_905_2527" x1="474.083" y1="359.682" x2="474.083" y2="478.708" gradientUnits="userSpaceOnUse">
<stop stop-color="#CA769A"/>
<stop offset="1" stop-color="#9B3F97"/>
</linearGradient>
<linearGradient id="paint11_linear_905_2527" x1="355" y1="0" x2="355" y2="856" gradientUnits="userSpaceOnUse">
<stop stop-color="#F9F9F9" stop-opacity="0"/>
<stop offset="1" stop-color="#581441"/>
</linearGradient>
<clipPath id="clip0_905_2527">
<rect width="715" height="433" rx="15" fill="white"/>
</clipPath>
<clipPath id="clip1_905_2527">
<rect width="710" height="853" rx="15" fill="white"/>
</clipPath>
</defs>
</svg>
