<svg width="715" height="433" viewBox="0 0 715 433" fill="none" xmlns="http://www.w3.org/2000/svg">
<g clip-path="url(#clip0_906_3437)">
<g clip-path="url(#clip1_906_3437)">
<rect x="-76" y="-85" width="868" height="515" fill="url(#paint0_linear_906_3437)"/>
<path fill-rule="evenodd" clip-rule="evenodd" d="M711.669 314.682C711.619 315.043 711.307 315.308 710.943 315.308H431.894C431.454 315.308 431.111 314.925 431.162 314.488C434.201 288.596 454.04 268.606 478.061 268.606C488.099 268.606 497.406 272.096 505.062 278.049C505.443 278.345 506.004 278.215 506.219 277.783C511.708 266.74 522.259 259.265 534.374 259.265C537.801 259.265 541.103 259.864 544.2 260.971C544.566 261.102 544.975 260.937 545.145 260.587C554.007 242.259 571.366 229.807 591.33 229.807C610.865 229.807 627.905 241.729 636.932 259.411C637.039 259.622 637.241 259.771 637.475 259.812C650.73 262.156 661.795 271.846 667.219 285.029C667.416 285.509 668.029 285.658 668.43 285.329C672.968 281.592 678.577 279.383 684.648 279.383C699.754 279.383 712 293.055 712 309.92C712 311.54 711.887 313.13 711.669 314.682Z" fill="#ECB9F8"/>
<path fill-rule="evenodd" clip-rule="evenodd" d="M276.991 314.683C277.043 315.044 277.354 315.308 277.719 315.308H619.52C619.96 315.308 620.303 314.925 620.253 314.488C616.607 282.714 592.292 258.158 562.841 258.158C550.485 258.158 539.033 262.48 529.632 269.844C529.252 270.141 528.691 270.011 528.478 269.578C521.787 255.96 508.825 246.728 493.93 246.728C489.683 246.728 485.593 247.478 481.761 248.867C481.395 249 480.986 248.835 480.817 248.484C469.993 225.98 448.713 210.678 424.232 210.678C400.3 210.678 379.427 225.301 368.391 246.981C368.283 247.192 368.081 247.341 367.847 247.382C351.516 250.237 337.891 262.204 331.276 278.477C331.081 278.957 330.467 279.107 330.069 278.775C324.484 274.109 317.55 271.346 310.037 271.346C291.552 271.346 276.567 288.076 276.567 308.714C276.567 310.745 276.712 312.739 276.991 314.683Z" fill="#ECB9F8"/>
<path fill-rule="evenodd" clip-rule="evenodd" d="M656.252 314.653C656.121 314.874 655.881 315.007 655.623 315.007H521.394C521.39 315.007 521.386 315.006 521.383 315.002C521.378 314.997 521.371 314.996 521.364 314.999C521.362 315.001 521.359 315.002 521.357 315.004C521.353 315.006 521.349 315.007 521.344 315.007H418.923C418.537 315.007 418.215 314.712 418.189 314.327C418.126 313.407 418.095 312.478 418.095 311.541C418.095 289.115 436.274 270.936 458.7 270.936C467.289 270.936 475.254 273.602 481.815 278.152C482.187 278.411 482.704 278.288 482.926 277.893C487.654 269.456 496.681 263.754 507.04 263.754C509.963 263.754 512.78 264.208 515.425 265.049C515.774 265.16 516.155 265.009 516.33 264.687C523.951 250.64 538.828 241.103 555.932 241.103C572.677 241.103 587.287 250.244 595.044 263.808C595.158 264.007 595.357 264.144 595.584 264.18C606.898 265.987 616.349 273.379 621.019 283.442C621.225 283.886 621.794 284.028 622.189 283.739C626.071 280.899 630.859 279.222 636.038 279.222C649.005 279.222 659.517 289.734 659.517 302.702C659.517 307.066 658.326 311.152 656.252 314.653Z" fill="#FFDBDB"/>
<path fill-rule="evenodd" clip-rule="evenodd" d="M710.336 271.914C710.209 272.138 709.968 272.271 709.711 272.271H655.565C655.563 272.271 655.561 272.27 655.56 272.268C655.557 272.265 655.553 272.264 655.55 272.266C655.549 272.267 655.547 272.268 655.546 272.269C655.544 272.27 655.542 272.271 655.539 272.271H641.38C641.244 272.271 641.111 272.234 640.996 272.162C637.087 269.709 634.489 265.361 634.489 260.407C634.489 252.747 640.698 246.538 648.358 246.538C649.714 246.538 651.025 246.733 652.265 247.096C652.617 247.199 652.997 247.049 653.176 246.729C657.046 239.829 664.431 235.166 672.905 235.166C684.203 235.166 693.565 243.454 695.243 254.282C695.32 254.777 695.842 255.079 696.316 254.919C697.499 254.521 698.766 254.304 700.084 254.304C706.594 254.304 711.872 259.582 711.872 266.093C711.872 268.21 711.313 270.197 710.336 271.914Z" fill="#FFDBDB"/>
<path fill-rule="evenodd" clip-rule="evenodd" d="M414.1 240.28C414.1 240.586 414.351 240.83 414.657 240.83H503.474C503.711 240.83 503.935 240.717 504.071 240.523C506.726 236.751 508.284 232.153 508.284 227.191C508.284 214.383 497.901 204 485.094 204C476.394 204 468.814 208.79 464.846 215.876C464.667 216.196 464.287 216.346 463.935 216.243C462.659 215.868 461.309 215.666 459.912 215.666C454.726 215.666 450.188 218.441 447.702 222.588C447.468 222.977 446.952 223.099 446.574 222.848C443.263 220.648 439.288 219.365 435.014 219.365C423.463 219.365 414.1 228.729 414.1 240.28ZM536.848 240.83C537.136 240.83 537.4 240.663 537.512 240.397C538.114 238.96 538.446 237.382 538.446 235.727C538.446 229.048 533.032 223.634 526.353 223.634C519.674 223.634 514.26 229.048 514.26 235.727C514.26 237.382 514.593 238.96 515.195 240.397C515.306 240.663 515.57 240.83 515.859 240.83H536.848Z" fill="#FFDBDB"/>
<path fill-rule="evenodd" clip-rule="evenodd" d="M477.458 314.556C477.341 314.819 477.078 314.986 476.789 314.986H230.807C230.405 314.986 230.075 314.665 230.072 314.263C230.07 314.137 230.07 314.01 230.07 313.883C230.07 290.712 248.854 271.928 272.025 271.928C280.91 271.928 289.15 274.689 295.933 279.401C296.305 279.66 296.823 279.537 297.044 279.142C301.925 270.41 311.26 264.507 321.974 264.507C325.001 264.507 327.919 264.978 330.657 265.852C331.006 265.963 331.387 265.812 331.562 265.489C339.434 250.966 354.81 241.103 372.491 241.103C389.796 241.103 404.895 250.553 412.909 264.573C413.023 264.773 413.222 264.91 413.449 264.946C425.156 266.811 434.934 274.464 439.756 284.88C439.962 285.324 440.53 285.467 440.925 285.178C444.941 282.231 449.897 280.491 455.26 280.491C468.659 280.491 479.52 291.352 479.52 304.751C479.52 308.24 478.784 311.557 477.458 314.556Z" fill="#FFDBDB"/>
<circle cx="398.258" cy="347.279" r="94.0918" fill="url(#paint1_radial_906_3437)"/>
<rect x="-29.9766" y="374.484" width="776.064" height="172.089" fill="#3B5482"/>
<path d="M274.032 401.842H262.291" stroke="#61ACCC" stroke-width="3.91342" stroke-linecap="round"/>
<path d="M254.465 395.581H250.551" stroke="#61ACCC" stroke-width="3.91342" stroke-linecap="round"/>
<path d="M369.055 430.857H365.141" stroke="#61ACCC" stroke-width="3.91342" stroke-linecap="round"/>
<path d="M352.303 398.712H340.563" stroke="#61ACCC" stroke-width="3.91342" stroke-linecap="round"/>
<path d="M365.608 395.581H361.694" stroke="#61ACCC" stroke-width="3.91342" stroke-linecap="round"/>
<path d="M340.562 391.668H336.649" stroke="#61ACCC" stroke-width="3.91342" stroke-linecap="round"/>
<path d="M470.487 387.755H458.747" stroke="#61ACCC" stroke-width="3.91342" stroke-linecap="round"/>
<path d="M451.702 398.712H447.789" stroke="#61ACCC" stroke-width="3.91342" stroke-linecap="round"/>
<path d="M493.967 395.581H482.227" stroke="#61ACCC" stroke-width="3.91342" stroke-linecap="round"/>
<path d="M195.765 395.581H184.024" stroke="#61ACCC" stroke-width="3.91342" stroke-linecap="round"/>
<path d="M184.023 387.755H180.11" stroke="#61ACCC" stroke-width="3.91342" stroke-linecap="round"/>
<path d="M393.738 391.96H405.479" stroke="#B5F2FF" stroke-width="3.91342" stroke-linecap="round"/>
<path d="M413.305 398.221H417.219" stroke="#B5F2FF" stroke-width="3.91342" stroke-linecap="round"/>
<path d="M315.467 395.09H327.207" stroke="#B5F2FF" stroke-width="3.91342" stroke-linecap="round"/>
<path d="M302.162 398.221H306.076" stroke="#B5F2FF" stroke-width="3.91342" stroke-linecap="round"/>
<path d="M327.208 402.135H331.121" stroke="#B5F2FF" stroke-width="3.91342" stroke-linecap="round"/>
<path d="M197.282 406.048H209.022" stroke="#B5F2FF" stroke-width="3.91342" stroke-linecap="round"/>
<path d="M216.068 395.09H219.981" stroke="#B5F2FF" stroke-width="3.91342" stroke-linecap="round"/>
<path d="M173.803 398.221H185.543" stroke="#B5F2FF" stroke-width="3.91342" stroke-linecap="round"/>
<path d="M472.006 398.221H483.747" stroke="#B5F2FF" stroke-width="3.91342" stroke-linecap="round"/>
<path d="M483.748 406.048H487.661" stroke="#B5F2FF" stroke-width="3.91342" stroke-linecap="round"/>
<path d="M352.879 417.19H341.139" stroke="#B5F2FF" stroke-width="3.91342" stroke-linecap="round"/>
<path d="M333.312 423.452H329.399" stroke="#B5F2FF" stroke-width="3.91342" stroke-linecap="round"/>
<path d="M288.279 434.011H276.539" stroke="#B5F2FF" stroke-width="3.91342" stroke-linecap="round"/>
<path d="M376.273 416.583H364.533" stroke="#B5F2FF" stroke-width="3.91342" stroke-linecap="round"/>
<path d="M357.488 405.626H353.575" stroke="#B5F2FF" stroke-width="3.91342" stroke-linecap="round"/>
<path d="M399.753 408.756H388.013" stroke="#B5F2FF" stroke-width="3.91342" stroke-linecap="round"/>
<path d="M237.815 409.831H226.075" stroke="#B5F2FF" stroke-width="3.91342" stroke-linecap="round"/>
<path d="M226.074 417.658H222.161" stroke="#B5F2FF" stroke-width="3.91342" stroke-linecap="round"/>
<path fill-rule="evenodd" clip-rule="evenodd" d="M165.184 156.84C141.1 156.84 121.576 137.631 121.576 113.936C121.576 90.2402 141.1 71.0311 165.184 71.0311C185.954 71.0311 203.333 85.3178 207.722 104.448C207.823 104.889 208.245 105.183 208.694 105.126C210.4 104.906 212.135 104.792 213.894 104.792C238.656 104.792 258.729 127.203 258.729 154.848C258.729 158.998 258.277 163.031 257.424 166.887C257.339 167.274 256.993 167.547 256.597 167.547H171.192C170.795 167.547 170.45 167.274 170.364 166.887C169.699 163.88 169.278 160.766 169.124 157.573C169.101 157.083 168.677 156.707 168.188 156.74C167.196 156.807 166.194 156.84 165.184 156.84ZM-28.1822 166.648C-28.2111 167.135 -27.8219 167.547 -27.3335 167.547H112.022C112.51 167.547 112.899 167.135 112.87 166.648C110.43 125.535 79.787 93.0312 42.3442 93.0312C4.90132 93.0312 -25.7417 125.535 -28.1822 166.648Z" fill="#CBAEEF"/>
<path fill-rule="evenodd" clip-rule="evenodd" d="M13.3139 167.993C13.3759 168.402 13.7318 168.699 14.1459 168.699H295.902C296.412 168.699 296.809 168.252 296.741 167.746C293.578 144.414 273.579 126.431 249.38 126.431C239.263 126.431 229.88 129.574 222.154 134.938C221.726 135.236 221.13 135.095 220.875 134.639C215.313 124.698 204.682 117.977 192.48 117.977C189.033 117.977 185.712 118.513 182.594 119.507C182.192 119.635 181.753 119.461 181.552 119.09C172.584 102.548 155.068 91.3152 134.929 91.3152C115.216 91.3152 98.016 102.078 88.8862 118.049C88.755 118.278 88.5257 118.436 88.2647 118.478C74.9344 120.603 63.8009 129.316 58.3061 141.174C58.0691 141.686 57.4148 141.85 56.9602 141.517C52.3866 138.165 46.7437 136.185 40.6385 136.185C25.3749 136.185 13.0013 148.559 13.0013 163.822C13.0013 165.24 13.1081 166.633 13.3139 167.993ZM297.176 174.461V173.992C297.176 174.07 297.176 174.149 297.176 174.227C297.176 174.305 297.176 174.383 297.176 174.461Z" fill="#FFCEE8"/>
<path fill-rule="evenodd" clip-rule="evenodd" d="M623.973 62.8565C648.057 62.8565 667.581 43.6475 667.581 19.9519C667.581 -3.74369 648.057 -22.9528 623.973 -22.9528C603.203 -22.9528 585.824 -8.6662 581.435 10.4638C581.334 10.9049 580.913 11.1994 580.464 11.1415C578.757 10.9214 577.022 10.8083 575.263 10.8083C550.501 10.8083 530.428 33.219 530.428 60.864C530.428 65.0144 530.88 69.0468 531.733 72.9032C531.819 73.2906 532.164 73.5636 532.561 73.5636H617.965C618.362 73.5636 618.707 73.2906 618.793 72.9031C619.458 69.8963 619.879 66.7824 620.033 63.589C620.056 63.0992 620.48 62.7236 620.969 62.7563C621.962 62.8228 622.963 62.8565 623.973 62.8565ZM697.873 132.813C697.141 132.813 696.752 133.67 697.245 134.212C710.003 148.227 727.506 156.873 746.818 156.873C766.13 156.873 783.633 148.227 796.391 134.212C796.883 133.67 796.494 132.813 795.762 132.813H697.873ZM808.913 115.692C808.524 116.488 807.369 116.204 807.369 115.317V74.418C807.369 73.9461 806.986 73.5636 806.515 73.5636H677.14C676.652 73.5636 676.263 73.1513 676.291 72.6638C678.732 31.5511 709.375 -0.952614 746.818 -0.952614C785.855 -0.952614 817.501 34.3779 817.501 77.9604C817.501 91.6273 814.389 104.483 808.913 115.692Z" fill="#CBAEEF"/>
<path fill-rule="evenodd" clip-rule="evenodd" d="M775.841 74.0095C775.779 74.419 775.423 74.7157 775.009 74.7157H493.254C492.744 74.7157 492.347 74.2684 492.415 73.7624C495.578 50.4308 515.577 32.4472 539.776 32.4472C549.893 32.4472 559.276 35.5906 567.001 40.954C567.43 41.2518 568.025 41.1109 568.28 40.6553C573.842 30.7139 584.474 23.9932 596.675 23.9932C600.122 23.9932 603.444 24.5297 606.562 25.5237C606.964 25.6519 607.403 25.4776 607.604 25.1065C616.572 8.56438 634.088 -2.66846 654.227 -2.66846C673.94 -2.66846 691.14 8.09486 700.27 24.0655C700.401 24.2949 700.63 24.4525 700.891 24.4942C714.221 26.62 725.355 35.3328 730.849 47.1909C731.086 47.7023 731.741 47.8667 732.195 47.5335C736.769 44.1811 742.412 42.2014 748.517 42.2014C763.78 42.2014 776.154 54.575 776.154 69.8386C776.154 71.2564 776.047 72.6492 775.841 74.0095ZM491.98 80.4902V79.9964C491.98 80.0786 491.979 80.1609 491.979 80.2433C491.979 80.3256 491.98 80.4079 491.98 80.4902Z" fill="#FFCEE8"/>
<path fill-rule="evenodd" clip-rule="evenodd" d="M154.981 82.6782C154.981 83.0304 154.692 83.3112 154.34 83.3112H52.0758C51.8027 83.3112 51.5453 83.1811 51.3881 82.9577C48.3319 78.6154 46.5374 73.321 46.5374 67.6075C46.5374 52.8608 58.492 40.9062 73.2387 40.9062C83.2549 40.9062 91.9831 46.4214 96.552 54.5806C96.7582 54.9488 97.1959 55.122 97.6008 55.0029C99.0696 54.5706 100.624 54.3387 102.233 54.3387C108.205 54.3387 113.43 57.534 116.292 62.308C116.561 62.7558 117.155 62.8968 117.59 62.6078C121.403 60.0741 125.98 58.5979 130.901 58.5979C144.2 58.5979 154.981 69.379 154.981 82.6782ZM13.6505 83.3112C13.3184 83.3112 13.0142 83.1196 12.8859 82.8133C12.1927 81.1589 11.8097 79.3423 11.8097 77.4362C11.8097 69.7462 18.0437 63.5123 25.7337 63.5123C33.4236 63.5123 39.6576 69.7462 39.6576 77.4362C39.6576 79.3423 39.2746 81.1589 38.5814 82.8133C38.4531 83.1196 38.1489 83.3112 37.8168 83.3112H13.6505Z" fill="#FFCEE8"/>
<path fill-rule="evenodd" clip-rule="evenodd" d="M579.982 132.233C579.982 132.585 580.271 132.866 580.623 132.866H682.888C683.161 132.866 683.419 132.736 683.576 132.512C686.632 128.17 688.426 122.876 688.426 117.162C688.426 102.416 676.472 90.4612 661.725 90.4612C651.709 90.4612 642.981 95.9763 638.412 104.136C638.206 104.504 637.768 104.677 637.363 104.558C635.894 104.126 634.34 103.894 632.731 103.894C626.759 103.894 621.534 107.089 618.671 111.863C618.403 112.311 617.808 112.452 617.373 112.163C613.56 109.629 608.984 108.153 604.063 108.153C590.764 108.153 579.982 118.934 579.982 132.233ZM721.313 132.866C721.645 132.866 721.95 132.674 722.078 132.368C722.771 130.714 723.154 128.897 723.154 126.991C723.154 119.301 716.92 113.067 709.23 113.067C701.54 113.067 695.306 119.301 695.306 126.991C695.306 128.897 695.689 130.714 696.382 132.368C696.511 132.674 696.815 132.866 697.147 132.866H721.313Z" fill="#FFCEE8"/>
<rect y="-47.1312" width="715" height="970.357" fill="url(#paint2_linear_906_3437)" fill-opacity="0.5"/>
<path d="M598.949 638.542C672.395 553.604 680.488 407.143 660.566 244.97L685.09 247.014C709.668 339.328 744.578 536.104 713.777 643.483L598.949 638.542Z" fill="#351C45"/>
<path d="M561.237 266.382C550.718 268.289 539.66 247.63 513.538 267.922C563.834 204.695 646.914 205.182 702.086 269.305C692.66 278.004 665.264 233.929 648.914 283.678C642.08 277.745 637.017 271.992 652.549 257.273C642.18 263.444 643.044 264.85 633.847 279.671C642.673 253.919 645.703 245.197 638.953 261.078C632.204 276.96 629.52 275.281 598.329 277.752C620.792 268.006 614.897 262.885 623.388 251.668C613.234 265.08 593.994 280.856 573.877 281.735C585.167 272.63 598.865 258.492 606.148 247.137C595.143 247.082 583.81 264.103 581.512 269.408C583.182 253.812 589.576 250.947 591.268 240.813C591.268 240.813 571.756 264.475 561.237 266.382Z" fill="#27255B"/>
<path d="M785.862 252.843C796.393 254.686 791.635 240.986 816.016 237.678C762.626 200.297 663.998 230.122 658.538 261.535C668.016 270.176 695.146 225.937 711.796 275.586C718.594 269.612 723.622 263.829 708.002 249.204C718.408 255.312 717.552 256.724 726.838 271.489C717.858 245.791 714.775 237.087 721.62 252.927C728.465 268.768 731.139 267.073 762.345 269.357C739.823 259.746 745.687 254.589 737.129 243.424C747.363 256.774 766.698 272.434 786.819 273.192C775.475 264.155 761.692 250.1 754.341 238.789C762.82 249.93 775.866 255.345 778.196 260.636C776.432 245.05 769.908 251.164 768.155 241.041C768.155 241.041 775.332 250.999 785.862 252.843Z" fill="#27255B"/>
<path d="M628.106 364.742C624.985 372.893 608.566 367.626 590.677 379.656C600.546 325.011 613.8 295.601 671.52 248.563C673.616 258.815 652.342 278.562 666.931 308.193C658.292 301.638 656.44 298.377 652.716 281.321C652.643 291.165 654.341 307.586 660.819 320.262C646.531 303.234 644.305 297.214 645.371 299.879C646.438 302.545 662.634 328.445 657.942 335.404C655.789 319.54 647.701 317.125 643.447 306.463C648.534 319.212 651.919 322.172 644.013 336.592C642.422 324.866 643.029 323.379 638.166 313.502C633.465 321.164 638.047 328.972 640.787 332.815C630.577 325.069 630.885 322.919 624.508 317.462C624.508 317.462 631.227 356.592 628.106 364.742Z" fill="#27255B"/>
<path d="M781.829 307.443C789.419 311.752 798.748 297.249 820.204 295.167C777.853 259.252 748.928 244.972 674.469 245.344C679.368 254.591 708.342 256.314 715.913 288.463C718.417 277.911 717.773 274.217 709.807 258.682C716.121 266.236 725.247 279.992 728.303 293.896C728.51 271.669 726.402 265.606 727.273 268.341C728.144 271.077 732.103 301.367 740.148 303.757C731.727 290.141 736.436 283.136 732.943 272.201C737.12 285.277 736.387 289.714 751.657 295.821C745.432 285.757 744.018 284.995 741.494 274.278C749.994 277.206 751.419 286.146 751.746 290.855C754.705 278.385 753.101 276.921 754.556 268.655C754.556 268.655 774.239 303.134 781.829 307.443Z" fill="#27255B"/>
<path d="M566.069 323.793C558.004 330.811 537.937 318.711 525.864 349.506C536.759 269.453 608.406 227.391 688.608 254.287C684.955 266.582 638.875 242.712 650.261 293.826C641.355 292.221 634.062 289.866 639.884 269.276C634.128 279.88 635.59 280.647 635.264 298.086C629.681 271.443 627.825 262.398 630.146 279.497C632.466 296.597 629.3 296.526 603.759 314.599C618.08 294.737 610.395 293.351 611.957 279.37C610.089 296.087 601.621 319.483 584.782 330.525C589.829 316.927 594.372 297.773 594.825 284.291C585.338 289.87 584.302 310.293 585.04 316.027C578.501 301.77 582.53 296.039 578.803 286.465C578.803 286.465 574.133 316.776 566.069 323.793Z" fill="#27255B"/>
<path d="M764.312 348.233C770.027 357.268 792.72 351.429 795.458 384.392C807.97 304.576 751.389 243.739 666.843 246.514C666.818 259.34 717.807 249.683 692.245 295.387C701.237 296.403 708.899 296.238 709.225 274.842C711.699 286.652 710.078 286.967 705.391 303.768C718.378 279.844 722.749 271.71 715.624 287.427C708.499 303.143 711.552 303.983 730.84 328.62C722.814 305.486 730.574 306.361 733.085 292.519C730.082 309.07 731.488 333.912 744.454 349.317C743.518 334.843 744.657 315.191 748.088 302.144C755.577 310.21 750.714 330.072 748.364 335.354C758.716 323.57 756.498 316.924 762.814 308.821C762.814 308.821 758.598 339.198 764.312 348.233Z" fill="#27255B"/>
<path d="M145.005 651.271C97.976 571.043 113.43 450.548 154.064 321.474L133.784 319.448C99.8735 390.928 41.8243 545.927 50.7466 638.011L145.005 651.271Z" fill="#482463"/>
<path d="M47.0055 333.333C38.294 334.912 29.1355 317.803 7.50231 334.608C49.1563 282.245 117.962 282.649 163.655 335.754C155.848 342.958 133.159 306.456 119.618 347.657C113.959 342.743 109.766 337.979 122.629 325.789C114.042 330.9 114.757 332.065 107.141 344.338C114.449 323.012 116.959 315.788 111.369 328.941C105.78 342.093 103.556 340.703 77.7244 342.75C96.3283 334.678 91.4458 330.437 98.4781 321.148C90.0692 332.255 74.1344 345.32 57.4742 346.049C66.8242 338.508 78.1685 326.799 84.2006 317.395C75.0857 317.349 65.6999 331.446 63.7968 335.839C65.1801 322.923 70.4753 320.55 71.8766 312.158C71.8766 312.158 55.7171 331.753 47.0055 333.333Z" fill="#484772"/>
<path d="M233.037 322.12C241.757 323.647 237.817 312.301 258.009 309.561C213.792 278.602 132.11 303.303 127.588 329.319C135.438 336.475 157.907 299.837 171.696 340.956C177.326 336.008 181.49 331.219 168.554 319.107C177.171 324.165 176.463 325.335 184.153 337.562C176.716 316.28 174.163 309.071 179.832 322.19C185.5 335.309 187.716 333.905 213.559 335.797C194.907 327.837 199.764 323.566 192.676 314.32C201.152 325.376 217.165 338.345 233.829 338.973C224.434 331.489 213.019 319.848 206.931 310.481C213.953 319.708 224.758 324.192 226.687 328.574C225.226 315.666 219.823 320.73 218.372 312.346C218.372 312.346 224.316 320.593 233.037 322.12Z" fill="#484772"/>
<path d="M102.386 414.794C99.801 421.544 86.2025 417.182 71.3873 427.145C79.5609 381.889 90.5376 357.532 138.34 318.575C140.076 327.066 122.457 343.42 134.54 367.96C127.385 362.532 125.851 359.831 122.767 345.705C122.707 353.858 124.113 367.458 129.478 377.956C117.645 363.854 115.801 358.868 116.684 361.075C117.567 363.282 130.981 384.733 127.095 390.496C125.312 377.358 118.614 375.358 115.09 366.527C119.304 377.086 122.107 379.538 115.559 391.48C114.241 381.769 114.745 380.537 110.717 372.357C106.824 378.703 110.619 385.169 112.888 388.352C104.432 381.936 104.687 380.157 99.4059 375.637C99.4059 375.637 104.971 408.043 102.386 414.794Z" fill="#484772"/>
<path d="M229.697 367.34C235.983 370.908 243.708 358.897 261.479 357.173C226.403 327.429 202.448 315.602 140.782 315.91C144.839 323.568 168.836 324.995 175.106 351.62C177.179 342.882 176.646 339.822 170.049 326.956C175.278 333.212 182.836 344.605 185.367 356.12C185.539 337.712 183.793 332.691 184.514 334.956C185.235 337.221 188.514 362.307 195.177 364.287C188.202 353.01 192.103 347.209 189.21 338.152C192.669 348.982 192.062 352.656 204.708 357.714C199.553 349.379 198.382 348.748 196.292 339.873C203.331 342.298 204.511 349.702 204.782 353.601C207.233 343.274 205.904 342.062 207.109 335.216C207.109 335.216 223.411 363.771 229.697 367.34Z" fill="#484772"/>
<path d="M51.0064 380.88C44.3274 386.692 27.7081 376.671 17.7097 402.175C26.7324 335.876 86.0697 301.041 152.492 323.316C149.466 333.498 111.303 313.73 120.733 356.062C113.357 354.733 107.318 352.782 112.139 335.73C107.372 344.512 108.583 345.147 108.313 359.59C103.689 337.525 102.152 330.034 104.074 344.195C105.996 358.356 103.374 358.298 82.2209 373.266C94.0816 356.817 87.7169 355.668 89.0107 344.089C87.4636 357.935 80.45 377.311 66.5047 386.455C70.6841 375.194 74.4464 359.331 74.8219 348.165C66.9651 352.786 66.1071 369.7 66.7181 374.448C61.3023 362.641 64.6398 357.894 61.5529 349.965C61.5529 349.965 57.6853 375.069 51.0064 380.88Z" fill="#484772"/>
<path d="M215.19 401.121C219.922 408.604 238.717 403.768 240.984 431.067C251.347 364.965 204.486 314.581 134.467 316.879C134.446 327.501 176.674 319.504 155.504 357.355C162.952 358.196 169.297 358.059 169.567 340.34C171.616 350.12 170.274 350.382 166.392 364.296C177.147 344.482 180.767 337.746 174.866 350.762C168.965 363.778 171.494 364.474 187.468 384.878C180.821 365.719 187.248 366.443 189.328 354.979C186.841 368.687 188.005 389.26 198.744 402.019C197.968 390.032 198.911 373.756 201.753 362.951C207.955 369.631 203.928 386.081 201.981 390.455C210.555 380.695 208.718 375.191 213.949 368.48C213.949 368.48 210.457 393.638 215.19 401.121Z" fill="#484772"/>
<path d="M164.724 630.133C66.8872 516.988 56.1066 321.887 82.6442 105.858L49.9762 108.581C17.2363 231.552 -29.268 493.676 11.7627 636.716L164.724 630.133Z" fill="#351C45"/>
<path d="M214.96 134.38C228.972 136.921 243.703 109.4 278.499 136.431C211.5 52.2077 100.83 52.8567 27.3351 138.274C39.8913 149.861 76.3855 91.1497 98.1654 157.42C107.269 149.516 114.013 141.853 93.3235 122.246C107.136 130.466 105.984 132.34 118.236 152.082C106.479 117.779 102.443 106.159 111.434 127.315C120.424 148.471 124 146.234 165.55 149.527C135.626 136.544 143.48 129.722 132.169 114.78C145.694 132.646 171.324 153.661 198.121 154.832C183.082 142.703 164.836 123.87 155.133 108.744C169.794 108.67 184.891 131.344 187.952 138.411C185.727 117.635 177.21 113.819 174.956 100.321C174.956 100.321 200.948 131.839 214.96 134.38Z" fill="#27255B"/>
<path d="M-84.2525 116.34C-98.2796 118.796 -91.9424 100.547 -124.42 96.1394C-53.2987 46.344 78.0822 86.0749 85.3555 127.919C72.7297 139.43 36.5899 80.4998 14.4112 146.637C5.3558 138.679 -1.34205 130.975 19.4649 111.494C5.60358 119.63 6.74364 121.511 -5.62646 141.179C6.3361 106.947 10.4422 95.3523 1.32451 116.453C-7.79316 137.554 -11.356 135.296 -52.9246 138.339C-22.9234 125.536 -30.7354 118.667 -19.3345 103.794C-32.9672 121.578 -58.7236 142.438 -85.5273 143.448C-70.4155 131.409 -52.0556 112.687 -42.2624 97.6197C-53.5584 112.46 -70.9365 119.673 -74.0401 126.722C-71.6899 105.96 -62.9997 114.105 -60.6646 100.62C-60.6646 100.62 -70.2254 113.884 -84.2525 116.34Z" fill="#27255B"/>
<path d="M125.884 265.406C130.042 276.264 151.914 269.248 175.744 285.273C162.597 212.48 144.941 173.304 68.0531 110.644C65.2612 124.301 93.6003 150.605 74.1663 190.077C85.6747 181.346 88.1412 177.002 93.1015 154.281C93.1989 167.395 90.9375 189.269 82.308 206.154C101.34 183.472 104.306 175.452 102.885 179.003C101.465 182.553 79.8901 217.055 86.1401 226.325C89.008 205.192 99.7821 201.975 105.449 187.772C98.6728 204.756 94.163 208.699 104.695 227.908C106.815 212.287 106.005 210.306 112.483 197.149C118.746 207.356 112.642 217.757 108.992 222.876C122.593 212.557 122.183 209.694 130.677 202.425C130.677 202.425 121.727 254.549 125.884 265.406Z" fill="#27255B"/>
<path d="M-78.875 189.074C-88.9858 194.814 -101.412 175.495 -129.995 172.721C-73.578 124.88 -35.047 105.857 64.1388 106.353C57.6135 118.671 19.0163 120.966 8.93127 163.791C5.59645 149.735 6.45337 144.814 17.0653 124.12C8.65497 134.182 -3.50274 152.507 -7.57283 171.028C-7.84911 141.419 -5.04118 133.344 -6.20127 136.987C-7.36136 140.631 -12.6349 180.981 -23.352 184.165C-12.1337 166.027 -18.407 156.695 -13.7547 142.128C-19.3177 159.547 -18.3425 165.457 -38.6826 173.593C-30.3908 160.186 -28.5065 159.171 -25.1448 144.896C-36.4675 148.796 -38.366 160.705 -38.8018 166.977C-42.743 150.366 -40.6067 148.416 -42.5443 137.405C-42.5443 137.405 -68.7642 183.335 -78.875 189.074Z" fill="#27255B"/>
<path d="M208.524 210.858C219.267 220.206 245.999 204.088 262.08 245.11C247.568 138.471 152.127 82.4407 45.2907 118.268C50.1567 134.646 111.54 102.851 96.3721 170.939C108.236 168.801 117.951 165.664 110.196 138.235C117.863 152.362 115.915 153.383 116.35 176.614C123.786 141.123 126.259 129.074 123.168 151.852C120.077 174.629 124.294 174.536 158.318 198.611C139.24 172.153 149.477 170.305 147.396 151.682C149.885 173.951 161.166 205.116 183.596 219.825C176.874 201.711 170.822 176.196 170.218 158.237C182.856 165.669 184.236 192.874 183.253 200.513C191.964 181.521 186.596 173.886 191.561 161.133C191.561 161.133 197.782 201.51 208.524 210.858Z" fill="#27255B"/>
<path d="M-55.5418 243.41C-63.1538 255.445 -93.3838 247.667 -97.0306 291.577C-113.698 185.254 -38.3262 104.215 74.2969 107.911C74.3304 124.996 6.40834 112.132 40.4591 173.014C28.48 174.368 18.274 174.147 17.8401 145.647C14.5446 161.378 16.7034 161.798 22.9471 184.178C5.64774 152.309 -0.175185 141.474 9.31614 162.41C18.8075 183.346 14.7404 184.465 -10.9532 217.283C-0.261569 186.467 -10.5988 187.632 -13.9442 169.193C-9.9439 191.241 -11.8169 224.332 -29.0891 244.854C-27.8417 225.573 -29.359 199.395 -33.9291 182.016C-43.905 192.759 -37.428 219.218 -34.2968 226.254C-48.0868 210.556 -45.1327 201.703 -53.5455 190.909C-53.5455 190.909 -47.9298 231.374 -55.5418 243.41Z" fill="#27255B"/>
</g>
</g>
<defs>
<linearGradient id="paint0_linear_906_3437" x1="358" y1="-85" x2="358" y2="304.953" gradientUnits="userSpaceOnUse">
<stop stop-color="#4484E4"/>
<stop offset="0.266524" stop-color="#A29AFF"/>
<stop offset="0.476113" stop-color="#FFACFC"/>
<stop offset="0.758495" stop-color="#FFC3B6"/>
<stop offset="0.953569" stop-color="#FFECD0"/>
</linearGradient>
<radialGradient id="paint1_radial_906_3437" cx="0" cy="0" r="1" gradientUnits="userSpaceOnUse" gradientTransform="translate(398.258 347.279) rotate(90) scale(94.0918)">
<stop stop-color="white"/>
<stop offset="1" stop-color="#FFEEC2" stop-opacity="0"/>
</radialGradient>
<linearGradient id="paint2_linear_906_3437" x1="357.5" y1="-47.1312" x2="357.5" y2="923.226" gradientUnits="userSpaceOnUse">
<stop stop-color="#1E1E1E" stop-opacity="0"/>
<stop offset="0.997705" stop-color="#1E1E1E" stop-opacity="0.65"/>
</linearGradient>
<clipPath id="clip0_906_3437">
<rect width="715" height="433" rx="15" fill="white"/>
</clipPath>
<clipPath id="clip1_906_3437">
<rect y="-47.1312" width="715" height="949.262" rx="16.6537" fill="white"/>
</clipPath>
</defs>
</svg>
