<svg width="642" height="854" viewBox="0 0 642 854" fill="none" xmlns="http://www.w3.org/2000/svg">
<g clip-path="url(#clip0_507_3473)">
<rect width="642" height="854" rx="15" fill="#D9D9D9"/>
<g clip-path="url(#clip1_507_3473)">
<rect x="-36.2129" width="973" height="1217" fill="url(#paint0_linear_507_3473)"/>
<path fill-rule="evenodd" clip-rule="evenodd" d="M137.375 218.197C136.184 218.562 135.023 219.368 133.522 220.987C133.164 221.373 132.563 221.409 132.164 221.066C130.352 219.509 129.103 218.67 127.902 218.27C126.731 217.881 125.503 217.876 123.664 218.226C123.124 218.329 121.253 217.963 121.153 217.409C121.052 216.855 122.762 216.322 123.301 216.22C125.298 215.839 126.9 215.792 128.515 216.329C128.531 216.335 128.548 216.34 128.565 216.346C131.209 217.245 134.136 217.058 136.807 216.242C138.46 215.737 140.196 215.845 142.291 216.218C142.832 216.314 144.358 216.842 144.264 217.397C144.17 217.952 142.492 218.324 141.951 218.228C139.942 217.871 138.577 217.83 137.375 218.197Z" fill="#758097"/>
<path fill-rule="evenodd" clip-rule="evenodd" d="M160.495 207.601C159.304 207.965 158.143 208.771 156.642 210.39C156.284 210.776 155.683 210.812 155.284 210.469C153.472 208.912 152.223 208.073 151.022 207.674C149.851 207.284 148.623 207.279 146.784 207.629C146.245 207.732 144.373 207.366 144.273 206.812C144.173 206.258 145.882 205.726 146.422 205.623C148.418 205.243 150.02 205.195 151.635 205.733C151.651 205.738 151.668 205.744 151.685 205.749C154.329 206.649 157.257 206.462 159.927 205.645C161.58 205.14 163.317 205.249 165.411 205.621C165.952 205.717 167.478 206.245 167.384 206.8C167.291 207.355 165.613 207.728 165.072 207.631C163.062 207.274 161.697 207.233 160.495 207.601Z" fill="#758097"/>
<path fill-rule="evenodd" clip-rule="evenodd" d="M203.845 237.464C202.654 237.828 201.494 238.634 199.993 240.253C199.635 240.639 199.034 240.675 198.635 240.332C196.823 238.775 195.574 237.936 194.372 237.537C193.202 237.147 191.974 237.142 190.135 237.492C189.595 237.595 187.724 237.229 187.623 236.675C187.523 236.121 189.232 235.589 189.772 235.486C191.769 235.106 193.37 235.058 194.985 235.596C195.002 235.601 195.019 235.607 195.035 235.612C197.679 236.512 200.607 236.325 203.278 235.508C204.93 235.003 206.667 235.112 208.761 235.484C209.302 235.58 210.828 236.108 210.735 236.663C210.641 237.218 208.963 237.591 208.422 237.494C206.413 237.137 205.048 237.096 203.845 237.464Z" fill="#758097"/>
<path fill-rule="evenodd" clip-rule="evenodd" d="M172.055 249.024C170.864 249.388 169.704 250.194 168.203 251.813C167.845 252.199 167.244 252.235 166.845 251.892C165.033 250.335 163.784 249.496 162.582 249.096C161.412 248.707 160.184 248.702 158.345 249.052C157.805 249.155 155.933 248.789 155.833 248.235C155.733 247.681 157.442 247.149 157.982 247.046C159.979 246.666 161.58 246.618 163.195 247.155C163.212 247.161 163.229 247.167 163.245 247.172C165.889 248.071 168.817 247.885 171.488 247.068C173.14 246.563 174.877 246.672 176.971 247.044C177.512 247.14 179.038 247.668 178.945 248.223C178.851 248.778 177.173 249.15 176.632 249.054C174.623 248.697 173.258 248.656 172.055 249.024Z" fill="#758097"/>
<path fill-rule="evenodd" clip-rule="evenodd" d="M117.628 201.821C116.437 202.185 115.276 202.991 113.775 204.61C113.417 204.996 112.816 205.032 112.417 204.689C110.605 203.132 109.356 202.293 108.155 201.894C106.984 201.504 105.756 201.499 103.917 201.849C103.377 201.952 101.506 201.586 101.406 201.032C101.305 200.478 103.015 199.946 103.554 199.843C105.551 199.463 107.152 199.415 108.768 199.953C108.784 199.958 108.801 199.964 108.817 199.969C111.461 200.869 114.389 200.682 117.06 199.865C118.713 199.36 120.449 199.469 122.544 199.841C123.085 199.937 124.611 200.465 124.517 201.02C124.423 201.575 122.745 201.947 122.204 201.851C120.195 201.494 118.83 201.453 117.628 201.821Z" fill="#758097"/>
<path fill-rule="evenodd" clip-rule="evenodd" d="M530.452 217.84C530.288 218.123 529.983 218.291 529.656 218.291H412.357C412.353 218.291 412.35 218.29 412.347 218.287C412.343 218.282 412.336 218.281 412.33 218.284C412.328 218.285 412.326 218.287 412.323 218.288C412.32 218.29 412.316 218.291 412.312 218.291H322.954C322.464 218.291 322.055 217.916 322.025 217.427C321.982 216.71 321.96 215.986 321.96 215.258C321.96 195.633 337.869 179.724 357.493 179.724C364.887 179.724 371.753 181.982 377.44 185.847C377.917 186.17 378.573 186.015 378.861 185.517C383.042 178.296 390.851 173.439 399.795 173.439C402.265 173.439 404.648 173.81 406.893 174.498C407.338 174.635 407.821 174.443 408.046 174.035C414.751 161.864 427.703 153.618 442.581 153.618C457.183 153.618 469.929 161.561 476.736 173.362C476.881 173.615 477.134 173.789 477.422 173.836C487.129 175.435 495.252 181.736 499.373 190.322C499.642 190.882 500.364 191.064 500.872 190.706C504.213 188.356 508.286 186.976 512.68 186.976C524.028 186.976 533.227 196.175 533.227 207.522C533.227 211.283 532.217 214.808 530.452 217.84Z" fill="#FFF1F2"/>
<path fill-rule="evenodd" clip-rule="evenodd" d="M-86.5459 152.01C-86.4834 152.462 -86.09 152.789 -85.6331 152.789H120.002C120.565 152.789 121.003 152.297 120.922 151.739C118.455 134.831 103.894 121.847 86.3017 121.847C79.0273 121.847 72.2714 124.067 66.6745 127.866C66.198 128.19 65.5417 128.034 65.2527 127.536C61.134 120.435 53.4491 115.659 44.6487 115.659C42.221 115.659 39.8781 116.022 37.6716 116.698C37.2264 116.834 36.743 116.642 36.5182 116.235C29.9145 104.256 17.1645 96.1412 2.51913 96.1412C-11.8564 96.1412 -24.4058 103.96 -31.1087 115.577C-31.2544 115.829 -31.507 116.003 -31.7947 116.05C-41.3439 117.625 -49.3351 123.821 -53.395 132.264C-53.6644 132.824 -54.3863 133.006 -54.8952 132.648C-58.1815 130.342 -62.1853 128.988 -66.5052 128.988C-77.6788 128.988 -86.7367 138.046 -86.7367 149.219C-86.7367 150.166 -86.6717 151.097 -86.5459 152.01Z" fill="#FFF1F2"/>
<path fill-rule="evenodd" clip-rule="evenodd" d="M753.26 217.711C753.191 218.162 752.799 218.49 752.342 218.49H447.612C447.049 218.49 446.611 217.996 446.687 217.438C450.117 192.211 471.744 172.769 497.912 172.769C508.848 172.769 518.991 176.165 527.344 181.959C527.817 182.287 528.474 182.132 528.755 181.629C534.774 170.886 546.269 163.625 559.459 163.625C563.181 163.625 566.769 164.204 570.137 165.276C570.581 165.417 571.065 165.225 571.287 164.815C580.99 146.93 599.931 134.786 621.709 134.786C643.029 134.786 661.631 146.425 671.508 163.695C671.652 163.948 671.905 164.122 672.193 164.168C686.601 166.468 698.635 175.882 704.581 188.695C704.843 189.259 705.565 189.44 706.067 189.073C711.01 185.456 717.106 183.32 723.701 183.32C740.211 183.32 753.595 196.704 753.595 213.214C753.595 214.743 753.481 216.244 753.26 217.711ZM446.213 224.659V224.278C446.213 224.342 446.213 224.405 446.213 224.469C446.213 224.532 446.213 224.595 446.213 224.659Z" fill="#FFF1F2"/>
<path fill-rule="evenodd" clip-rule="evenodd" d="M70.7706 217.546C70.7138 217.999 70.3196 218.327 69.8628 218.327H-85.8217C-86.385 218.327 -86.8238 217.835 -86.7371 217.278C-84.7571 204.563 -73.7596 194.834 -60.4896 194.834C-55.0607 194.834 -50.0121 196.462 -45.8057 199.257C-45.326 199.576 -44.6701 199.421 -44.3739 198.927C-41.216 193.66 -35.4516 190.135 -28.8639 190.135C-27.0891 190.135 -25.374 190.391 -23.7536 190.868C-23.307 190.999 -22.8241 190.808 -22.5967 190.402C-17.5563 181.401 -7.92743 175.316 3.12245 175.316C13.9974 175.316 23.4959 181.209 28.5987 189.976C28.7453 190.228 28.9976 190.402 29.285 190.451C36.3858 191.658 42.3394 196.234 45.4446 202.476C45.7215 203.033 46.4436 203.214 46.9594 202.866C49.4075 201.217 52.3563 200.255 55.53 200.255C64.0135 200.255 70.8907 207.132 70.8907 215.616C70.8907 216.27 70.8499 216.914 70.7706 217.546Z" fill="#FFF1F2"/>
<mask id="mask0_507_3473" style="mask-type:alpha" maskUnits="userSpaceOnUse" x="-116" y="253" width="770" height="241">
<path d="M-4.92937 359.275L-110.709 465.358C-121.013 475.691 -113.694 493.325 -99.1015 493.325H637.127C647.772 493.325 655.594 483.336 653.04 473.001L622.099 347.764C619.017 335.287 603.429 331.049 594.454 340.247L577.715 357.4C571.081 364.199 560.075 363.953 553.751 356.864L474.923 268.501C468.82 261.66 458.294 261.154 451.562 267.377L389.987 324.311C385.281 328.663 378.471 329.872 372.554 327.407L361.341 322.735C356.018 320.516 349.92 321.259 345.284 324.69L312.757 348.765C305.938 353.813 296.394 352.823 290.756 346.483L213.124 259.187C206.999 252.3 196.403 251.814 189.674 258.111L162.009 284C158.972 286.842 154.968 288.423 150.809 288.423H141.484C136.687 288.423 132.13 290.525 129.015 294.175L110.729 315.603C108.747 317.927 106.154 319.65 103.244 320.579L73.5345 330.061C70.6823 330.971 68.1339 332.645 66.1658 334.901L44.8903 359.29C39.539 365.425 30.4968 366.703 23.6552 362.292L15.5607 357.073C9.0654 352.885 0.527481 353.803 -4.92937 359.275Z" fill="#429EA3"/>
</mask>
<g mask="url(#mask0_507_3473)">
<path d="M-4.92769 359.719L-107.313 467.269C-117.249 477.706 -109.851 494.964 -95.4407 494.964H637.174C647.805 494.964 655.623 485.001 653.096 474.675L622.055 347.852C618.996 335.353 603.388 331.092 594.401 340.301L577.716 357.4C571.081 364.199 560.075 363.953 553.751 356.864L474.924 268.501C468.821 261.66 458.294 261.154 451.563 267.377L389.988 324.311C385.282 328.663 378.471 329.872 372.555 327.407L361.341 322.735C356.018 320.516 349.92 321.259 345.285 324.69L312.757 348.765C305.938 353.813 296.394 352.823 290.756 346.483L213.124 259.187C207 252.3 196.404 251.814 189.675 258.111L162.009 284C158.972 286.842 154.968 288.423 150.809 288.423H141.485C136.687 288.423 132.13 290.525 129.016 294.175L110.73 315.603C108.747 317.927 106.154 319.65 103.244 320.579L73.5349 330.061C70.6827 330.971 68.1343 332.645 66.1662 334.901L44.8906 359.29C39.5394 365.425 30.4972 366.703 23.6555 362.292L15.8273 357.244C9.21214 352.979 0.499344 354.018 -4.92769 359.719Z" fill="#81AFB1"/>
<path d="M316.763 362.03L292.609 346.249C291.744 345.684 291.048 344.896 290.594 343.968L246.143 253.117C245.18 251.149 243.181 249.902 240.99 249.902H190.476L180.612 294.64C179.8 298.325 175.711 300.236 172.363 298.494L164.791 294.557C161.556 292.875 157.593 294.598 156.617 298.112L132.822 383.771C131.571 388.277 125.744 389.473 122.819 385.825L70.3334 320.377C67.1542 316.412 60.7711 318.233 60.1617 323.278L53.1558 381.287C52.5513 386.293 46.2478 388.14 43.0367 384.253L-2.13513 329.572C-5.35894 325.669 -11.6888 327.55 -12.259 332.579L-24.0163 436.284C-24.6963 442.282 -32.9874 443.297 -35.0937 437.64L-102.111 257.641C-103.506 253.892 -100.734 249.902 -96.7341 249.902H190.476H240.99H459.433C461.123 246.299 466.392 245.267 469.175 248.872L469.971 249.902H627.315C631.184 249.902 633.943 253.652 632.792 257.346L593.127 384.635C591.784 388.947 586.216 390.088 583.285 386.652L501.926 291.292L469.971 249.902H459.433C459.092 250.628 458.897 251.459 458.897 252.378V319.848C458.897 324.502 453.498 327.075 449.883 324.144C446.898 321.723 442.414 323.011 441.168 326.647L426.608 369.137C425.239 373.133 420.168 374.33 417.157 371.367L356.372 311.552C352.745 307.983 346.611 310.552 346.611 315.641V317.73C346.611 318.668 346.381 319.592 345.941 320.42L324.969 359.918C323.387 362.897 319.588 363.875 316.763 362.03Z" fill="url(#paint1_linear_507_3473)"/>
</g>
<mask id="mask1_507_3473" style="mask-type:alpha" maskUnits="userSpaceOnUse" x="-988" y="249" width="1737" height="517">
<path d="M-706.016 458.262L-981.819 734.855C-993.231 746.3 -985.125 765.831 -968.963 765.831H730.145C741.936 765.831 750.599 754.767 747.771 743.32L665.771 411.42C662.357 397.601 645.093 392.907 635.151 403.095L561.599 478.471C554.255 485.997 542.073 485.729 535.067 477.888L336.235 255.367C329.371 247.685 317.497 247.247 310.086 254.403L240.472 321.617L218.342 344.976L138.733 421.649C131.089 429.01 118.79 428.275 112.077 420.057L78.4784 378.922C71.1085 369.899 57.2681 370.054 50.1021 379.24L-24.617 475.019C-31.6398 484.021 -45.1302 484.384 -52.6264 475.772L-220.561 282.842C-227.312 275.086 -239.152 274.479 -246.661 281.506L-326.704 356.409C-330.068 359.557 -334.503 361.308 -339.11 361.308H-381.73C-383.054 361.308 -384.374 361.453 -385.666 361.74L-466.724 379.737L-547.29 405.449C-550.449 406.458 -553.271 408.312 -555.451 410.811L-616.29 480.553C-622.217 487.347 -632.232 488.762 -639.81 483.877L-683.322 455.823C-690.516 451.185 -699.972 452.201 -706.016 458.262Z" fill="#429EA3"/>
</mask>
<g mask="url(#mask1_507_3473)">
<path d="M-706.015 458.754L-972.604 738.79C-983.608 750.35 -975.414 769.464 -959.454 769.464H730.196C741.971 769.464 750.631 758.429 747.831 746.992L665.722 411.518C662.334 397.674 645.046 392.954 635.093 403.154L561.61 478.459C554.262 485.989 542.072 485.717 535.068 477.865L335.027 253.627C328.268 246.05 316.608 245.489 309.153 252.382L150.495 399.081C145.283 403.901 137.74 405.24 131.187 402.51L86.0386 383.698C80.1422 381.241 73.3887 382.064 68.2543 385.864L-25.5228 455.274C-33.0672 460.858 -43.6241 459.771 -49.8724 452.766L-209.806 273.481C-216.594 265.872 -228.315 265.344 -235.76 272.311L-315.97 347.37C-319.334 350.518 -323.769 352.269 -328.375 352.269H-370.382C-372.11 352.269 -373.829 352.516 -375.488 353.001L-466.724 379.737L-547.29 405.449C-550.449 406.458 -553.272 408.312 -555.451 410.811L-616.29 480.552C-622.217 487.347 -632.232 488.762 -639.81 483.877L-683.027 456.013C-690.354 451.289 -700.004 452.439 -706.015 458.754Z" fill="#429EA3"/>
<path d="M3.57581 479.242L-58.2724 438.835C-59.2305 438.209 -60.0018 437.336 -60.5048 436.308L-161.558 229.77C-162.624 227.59 -164.839 226.208 -167.266 226.208H-220.079L-240.977 375.66C-241.324 378.14 -243.096 380.186 -245.501 380.883L-280.06 390.9C-282.04 391.474 -283.618 392.973 -284.294 394.921L-334.052 538.326C-335.497 542.491 -340.641 543.955 -344.062 541.175L-559.536 366.103C-563.418 362.949 -569.252 365.307 -569.852 370.272L-589.407 532.19C-590.077 537.734 -597.058 539.78 -600.615 535.475L-719.74 391.271C-723.311 386.948 -730.322 389.031 -730.953 394.602L-761.703 665.834C-762.457 672.477 -771.64 673.601 -773.973 667.335L-935.021 234.78C-936.567 230.628 -933.497 226.208 -929.066 226.208H-220.079H-167.266H323.869C325.343 221.911 331.55 219.964 334.969 224.393L336.37 226.208H693.822C698.107 226.208 701.163 230.362 699.889 234.453L605.954 535.898C604.466 540.673 598.3 541.937 595.053 538.132L407.21 317.962L336.37 226.208H323.869C323.454 227.418 323.415 228.813 323.917 230.305L339.546 276.685C340.13 278.416 339.94 280.314 339.026 281.895L326.265 303.968C325.636 305.055 324.7 305.931 323.574 306.486L304.19 316.045C301.845 317.202 300.448 319.676 300.669 322.28L312.885 466.628C313.301 471.537 308.214 475.031 303.781 472.881L282.383 462.507C278.163 460.461 273.256 463.535 273.256 468.225V619.94C273.256 626.184 265.192 628.683 261.661 623.533L95.4613 381.146C92.5341 376.877 85.8491 378.949 85.8491 384.125C85.8491 385.325 85.4396 386.489 84.6882 387.424L12.0054 477.902C9.95837 480.45 6.31213 481.03 3.57581 479.242Z" fill="url(#paint2_linear_507_3473)"/>
</g>
<rect x="-36.2129" y="705.978" width="682.414" height="147.982" fill="#174C63"/>
<path d="M329.03 727.264C268.706 712.076 161.723 729.543 128.264 705.507C121.192 670.161 142.406 571.192 136.75 490.132C127.325 423.21 118.839 424.624 118.839 424.624C118.839 424.624 136.75 417.084 148.061 490.132C159.372 563.18 109.413 708.334 181.048 709.748C252.683 711.162 361.548 713.047 383.699 727.264C405.849 741.48 93.3897 740.756 93.3897 756.876C93.3897 767.245 367.193 768.84 427.999 772.429C571.74 780.912 682.176 839.978 622.638 870.454H189.531C189.531 870.454 408.549 802.404 293.683 792.223C178.817 782.041 38.7212 779.028 25.5253 757.348C12.3295 735.667 389.354 742.451 329.03 727.264Z" fill="url(#paint3_linear_507_3473)"/>
<path d="M337.511 728.128C303.288 717.947 132.976 721.059 126.849 705.507C126.849 674.402 142.404 571.192 136.749 490.132C127.323 423.21 118.837 424.624 118.837 424.624C118.837 424.624 136.749 417.084 148.059 490.132C159.37 563.18 119.309 705.035 166.437 709.748C213.565 714.461 369.087 705.507 386.053 728.128C403.02 750.75 93.3882 740.756 93.3882 756.876C93.3882 767.245 373.318 766.484 434.124 770.072C577.865 778.555 710.451 839.978 650.913 870.454H189.529C189.529 870.454 389.697 803.818 274.831 793.636C159.965 783.455 38.7197 779.028 25.5238 757.348C12.328 735.667 371.735 738.31 337.511 728.128Z" fill="url(#paint4_linear_507_3473)"/>
<path d="M77.21 758.722H66.6841" stroke="#95E6FF" stroke-width="3.50863" stroke-linecap="round"/>
<path d="M59.667 753.108H56.1584" stroke="#95E6FF" stroke-width="3.50863" stroke-linecap="round"/>
<path d="M99.4121 766.021H88.8862" stroke="#95E6FF" stroke-width="3.50863" stroke-linecap="round"/>
<path d="M111.342 763.215H107.833" stroke="#95E6FF" stroke-width="3.50863" stroke-linecap="round"/>
<path d="M88.8867 759.706H85.3781" stroke="#95E6FF" stroke-width="3.50863" stroke-linecap="round"/>
<path d="M380.015 780.442H369.489" stroke="#95E6FF" stroke-width="3.50863" stroke-linecap="round"/>
<path d="M363.172 790.266H359.663" stroke="#95E6FF" stroke-width="3.50863" stroke-linecap="round"/>
<path d="M401.066 787.459H390.541" stroke="#95E6FF" stroke-width="3.50863" stroke-linecap="round"/>
<path d="M447.636 822.312H458.162" stroke="#95E6FF" stroke-width="6.33401" stroke-linecap="round"/>
<path d="M464.479 812.488H467.987" stroke="#95E6FF" stroke-width="6.33401" stroke-linecap="round"/>
<path d="M426.584 815.294H437.11" stroke="#95E6FF" stroke-width="6.33401" stroke-linecap="round"/>
<path d="M526.812 824.741H537.337" stroke="#95E6FF" stroke-width="6.33401" stroke-linecap="round"/>
<path d="M543.654 834.565H547.163" stroke="#95E6FF" stroke-width="6.33401" stroke-linecap="round"/>
<path d="M505.76 831.758H516.286" stroke="#95E6FF" stroke-width="6.33401" stroke-linecap="round"/>
<path d="M359.56 729.021H349.034" stroke="#95E6FF" stroke-width="3.50863" stroke-linecap="round"/>
<path d="M349.033 722.003H345.525" stroke="#95E6FF" stroke-width="3.50863" stroke-linecap="round"/>
<path d="M602.74 841.184H592.214" stroke="#95E6FF" stroke-width="4.44889" stroke-linecap="round"/>
<path d="M592.214 834.167H588.705" stroke="#95E6FF" stroke-width="4.44889" stroke-linecap="round"/>
<path fill-rule="evenodd" clip-rule="evenodd" d="M525.154 418.22C528.517 419.222 531.794 421.44 536.033 425.894C537.054 426.967 538.733 427.062 539.868 426.111C544.984 421.828 548.511 419.52 551.903 418.42C555.208 417.349 558.676 417.335 563.869 418.298C565.393 418.581 570.678 417.575 570.961 416.051C571.244 414.526 566.417 413.062 564.893 412.779C559.254 411.732 554.733 411.602 550.172 413.08C547.852 413.832 545.601 414.976 543.243 416.513C540.284 418.443 536.425 418.228 533.534 416.198C531.337 414.656 529.125 413.545 526.756 412.84C522.09 411.45 517.186 411.749 511.273 412.773C509.745 413.037 505.436 414.49 505.7 416.017C505.965 417.545 510.703 418.569 512.23 418.304C517.904 417.322 521.759 417.209 525.154 418.22Z" fill="#1F5060"/>
<path fill-rule="evenodd" clip-rule="evenodd" d="M483.753 455.412C487.116 456.413 490.392 458.631 494.632 463.086C495.653 464.158 497.331 464.253 498.467 463.303C503.583 459.019 507.109 456.711 510.502 455.612C513.807 454.54 517.275 454.526 522.467 455.49C523.992 455.772 529.277 454.766 529.559 453.242C529.842 451.718 525.016 450.253 523.492 449.97C517.853 448.924 513.332 448.793 508.771 450.271C506.451 451.023 504.2 452.168 501.842 453.705C498.883 455.634 495.024 455.419 492.132 453.39C489.936 451.848 487.723 450.737 485.355 450.032C480.689 448.642 475.785 448.94 469.871 449.964C468.344 450.229 464.034 451.681 464.299 453.209C464.563 454.736 469.302 455.76 470.829 455.496C476.503 454.513 480.358 454.401 483.753 455.412Z" fill="#1F5060"/>
</g>
<rect width="686" height="869" fill="url(#paint5_linear_507_3473)" fill-opacity="0.2"/>
</g>
<defs>
<linearGradient id="paint0_linear_507_3473" x1="450.287" y1="0" x2="450.287" y2="1217" gradientUnits="userSpaceOnUse">
<stop stop-color="#54C2FF"/>
<stop offset="0.647214" stop-color="#DAEDFF"/>
</linearGradient>
<linearGradient id="paint1_linear_507_3473" x1="265.06" y1="235.968" x2="265.06" y2="447.017" gradientUnits="userSpaceOnUse">
<stop stop-color="#3B4E6F"/>
<stop offset="1" stop-color="#3B4E6F" stop-opacity="0"/>
</linearGradient>
<linearGradient id="paint2_linear_507_3473" x1="-117.877" y1="195.321" x2="-117.877" y2="663.175" gradientUnits="userSpaceOnUse">
<stop stop-color="#3B4E6F"/>
<stop offset="1" stop-color="#3B4E6F" stop-opacity="0"/>
</linearGradient>
<linearGradient id="paint3_linear_507_3473" x1="116.011" y1="410.957" x2="463.345" y2="859.616" gradientUnits="userSpaceOnUse">
<stop stop-color="#9CEDFF" stop-opacity="0.37"/>
<stop offset="1" stop-color="#27CBFF"/>
</linearGradient>
<linearGradient id="paint4_linear_507_3473" x1="116.009" y1="410.957" x2="463.343" y2="859.616" gradientUnits="userSpaceOnUse">
<stop stop-color="white" stop-opacity="0.2"/>
<stop offset="1" stop-color="#F6FDFF" stop-opacity="0.26"/>
</linearGradient>
<linearGradient id="paint5_linear_507_3473" x1="343" y1="0" x2="343" y2="869" gradientUnits="userSpaceOnUse">
<stop stop-color="#454545" stop-opacity="0"/>
<stop offset="1" stop-color="#27117B"/>
</linearGradient>
<clipPath id="clip0_507_3473">
<rect width="642" height="854" rx="15" fill="white"/>
</clipPath>
<clipPath id="clip1_507_3473">
<rect width="682.779" height="854" fill="white" transform="translate(-36.2129)"/>
</clipPath>
</defs>
</svg>
